STARTFONT 2.1
COMMENT
COMMENT Converted from OpenType font "Q:\font stuff\winfont\SinsOfficinaSans.ttf" by "otf2bdf 3.0".
COMMENT
FONT -FreeType-ITC Officina Sans Std Book-Medium-R-Normal--84-840-72-72-P-327-ISO10646-1
SIZE 84 72 72
FONTBOUNDINGBOX 96 99 -7 -21
STARTPROPERTIES 19
FOUNDRY "FreeType"
FAMILY_NAME "ITC Officina Sans Std Book"
WEIGHT_NAME "Medium"
SLANT "R"
SETWIDTH_NAME "Normal"
ADD_STYLE_NAME ""
PIXEL_SIZE 64
POINT_SIZE 840
RESOLUTION_X 72
RESOLUTION_Y 72
SPACING "P"
AVERAGE_WIDTH 327
CHARSET_REGISTRY "ISO10646"
CHARSET_ENCODING "1"
FONT_ASCENT 60
FONT_DESCENT 18
COPYRIGHT "Copyright © 1993, 2001 Adobe Systems Incorporated.  All Rights Reserved."
_OTF_FONTFILE "Q:\font stuff\winfont\SinsOfficinaSans.ttf"
_OTF_PSNAME "OfficinaSansStd-Book"
ENDPROPERTIES
CHARS 252
STARTCHAR 0020
ENCODING 32
SWIDTH 297 0
DWIDTH 25 0
BBX 0 0 0 0
BITMAP
ENDCHAR
STARTCHAR 0021
ENCODING 33
SWIDTH 333 0
DWIDTH 28 0
BBX 12 59 8 -2
BITMAP
3F80
3FC0
3FC0
3FC0
3FC0
3FC0
3FC0
3FC0
3FC0
3FC0
3FC0
3FC0
3FC0
3F80
3F80
3F80
1F80
1F80
1F80
1F80
1F80
1F80
1F80
1F80
1F80
1F80
1F80
1F80
1F80
1F80
1F80
1F00
1F00
0F00
0F00
0F00
0000
0000
0000
0000
0000
0000
0000
0000
0000
0000
0000
0600
3FC0
7FE0
7FE0
FFF0
FFF0
FFF0
FFF0
FFF0
7FE0
7FE0
1F80
ENDCHAR
STARTCHAR 0022
ENCODING 34
SWIDTH 404 0
DWIDTH 34 0
BBX 19 22 8 38
BITMAP
FC0FE0
FC0FE0
FC0FE0
FC0FE0
FC0FE0
FC0FE0
FC0FC0
FC0FC0
FC0FC0
FC0FC0
FC07C0
FC07C0
FC07C0
FC07C0
FC07C0
F807C0
7807C0
7807C0
7807C0
7807C0
7807C0
780780
ENDCHAR
STARTCHAR 0023
ENCODING 35
SWIDTH 500 0
DWIDTH 42 0
BBX 36 62 3 -6
BITMAP
001F001F00
001F001F00
001F003F00
003F003F00
003F003F00
003F003F00
003F003E00
003E003E00
003E003E00
003E003E00
003E003E00
003E003E00
003E007E00
007E007E00
007E007E00
007E007E00
007C007C00
007C007C00
3FFFFFFFF0
3FFFFFFFF0
3FFFFFFFF0
3FFFFFFFF0
3FFFFFFFF0
00FC00FC00
00FC00FC00
00FC00F800
00F800F800
00F800F800
00F800F800
00F800F800
00F800F800
00F801F800
01F801F800
01F801F800
01F801F800
01F001F000
01F001F000
01F001F000
01F001F000
01F001F000
7FFFFFFFC0
FFFFFFFFC0
FFFFFFFFC0
FFFFFFFFC0
FFFFFFFFC0
7FFFFFFFC0
03E003E000
03E003E000
03E003E000
03E003E000
03E003E000
03E007E000
07E007E000
07E007E000
07E007E000
07C007C000
07C007C000
07C007C000
07C007C000
07C007C000
07C007C000
07C0078000
ENDCHAR
STARTCHAR 0024
ENCODING 36
SWIDTH 500 0
DWIDTH 42 0
BBX 32 68 5 -8
BITMAP
0001E000
0003E000
0003E000
0003E000
0003E000
0003E000
001FFE00
007FFFE0
01FFFFF8
03FFFFFC
07FFFFFC
0FFFFFFC
0FF3E1FC
1FC3E038
1FC3E000
3F83E000
3F83E000
3F03E000
3F03E000
7F03E000
7F03E000
3F83E000
3F83E000
3F83E000
3FC3E000
1FC3E000
1FE3E000
0FFBE000
07FFE000
07FFE000
01FFE000
00FFF800
007FFC00
001FFF00
0007FF80
0003FFE0
0003FFF0
0003FFF8
0003E7F8
0003E3FC
0003E1FE
0003E1FE
0003E0FE
0003E0FF
0003E07F
0003E07F
0003E07F
0003E07F
0003E07F
0003E07F
0003E07F
0003E0FE
0003E0FE
3003E1FE
7E03E3FC
7F83E7F8
7FFFFFF8
FFFFFFF0
7FFFFFE0
3FFFFF80
07FFFE00
007FF000
0003E000
0003E000
0003E000
0003E000
0003E000
0003E000
ENDCHAR
STARTCHAR 0025
ENCODING 37
SWIDTH 761 0
DWIDTH 64 0
BBX 58 56 3 -1
BITMAP
01FF00003F000000
07FFC0003E000000
0FFFE0007E000000
1FFFF0007E000000
3FE7F8007C000000
3F01F800FC000000
3F00FC00FC000000
7E00FC00FC000000
7E00FC01F8000000
7C007C01F8000000
7C007C01F8000000
FC007E03F0000000
FC007E03F0000000
FC007E03F0000000
FC007E03E0000000
FC007E07E0000000
FC007C07E0000000
FC007C07C0000000
7C007C0FC0000000
7C00FC0FC0000000
7E00FC0FC0000000
7E00F81F80000000
3F01F81F80000000
3F87F81F80000000
1FFFF03F00000000
1FFFE03F00000000
0FFFC03F00000000
03FF003E00000000
0000007E003FF000
0000007E00FFF800
0000007C01FFFC00
000000FC03FFFE00
000000FC07F87F00
000000F807E03F00
000001F80FC01F80
000001F80FC01F80
000001F80FC01F80
000003F00F800F80
000003F01F800F80
000003F01F800FC0
000003E01F800FC0
000007E01F800FC0
000007E01F800FC0
000007C01F800F80
00000FC01F800F80
00000FC01F800F80
00000F801F800F80
00001F800F801F80
00001F800FC01F80
00001F800FC03F00
00003F0007E07F00
00003F0007F9FE00
00003F0003FFFE00
00003E0001FFFC00
00007E0000FFF800
00007E00003FC000
ENDCHAR
STARTCHAR 0026
ENCODING 38
SWIDTH 607 0
DWIDTH 51 0
BBX 43 60 5 -2
BITMAP
0000F8000000
000FFF800000
003FFFC00000
007FFFF00000
01FFFFF00000
03FFFFF80000
03FC03FC0000
07F001FC0000
07E000FE0000
0FE000FE0000
0FC0007E0000
0FC0007E0000
0FC0007E0000
0FC0007E0000
0FC0007E0000
0FC0007E0000
0FE000FE0000
0FE000FC0000
0FF001FC0000
07F001FC0000
07F803F80000
03F807F00000
03FC0FF00000
01FE1FE00000
00FF3FC00000
00FFFF800000
007FFE000000
003FFC000000
001FF8000000
003FF0000000
00FFF8000000
01FFFC000000
03FFFE000000
07F9FF000FC0
0FE0FF800FC0
1FC07F800FC0
3FC03FC00FC0
3F801FE00FC0
7F000FF00FC0
7F000FF80FC0
FE0007FC1FC0
FE0003FE1F80
FE0001FE1F80
FE0000FF3F80
FE00007FBF00
FE00007FFF00
FE00003FFE00
FE00001FFE00
FE00000FFC00
FF000007F800
7F000007FC00
7F80001FFE00
3FC0003FFF00
3FF000FFFF80
1FFFBFFF7FC0
0FFFFFFE3FE0
07FFFFFC1FE0
01FFFFF00FC0
00FFFFC00F80
001FFE000700
ENDCHAR
STARTCHAR 0027
ENCODING 39
SWIDTH 166 0
DWIDTH 14 0
BBX 6 22 4 38
BITMAP
FC
FC
FC
FC
FC
FC
FC
FC
FC
FC
FC
FC
FC
FC
FC
FC
78
78
78
78
78
78
ENDCHAR
STARTCHAR 0028
ENCODING 40
SWIDTH 369 0
DWIDTH 31 0
BBX 20 80 7 -20
BITMAP
000180
0003E0
0007F0
0007E0
000FE0
001FC0
003F80
003F00
007F00
00FE00
00FE00
01FC00
01FC00
03F800
03F800
07F000
07F000
07E000
0FE000
0FC000
1FC000
1FC000
1F8000
3F8000
3F8000
3F0000
3F0000
7F0000
7F0000
7F0000
7E0000
7E0000
FE0000
FE0000
FE0000
FE0000
FE0000
FE0000
FE0000
FE0000
FE0000
FE0000
FE0000
FE0000
FE0000
FE0000
FE0000
FE0000
7E0000
7E0000
7F0000
7F0000
7F0000
7F0000
3F0000
3F8000
3F8000
1F8000
1F8000
1FC000
0FC000
0FC000
0FE000
07E000
07F000
03F000
03F800
01F800
01FC00
00FC00
00FE00
007E00
007F00
003F80
001F80
001FC0
000FE0
0007E0
0003F0
0001E0
ENDCHAR
STARTCHAR 0029
ENCODING 41
SWIDTH 369 0
DWIDTH 31 0
BBX 20 80 4 -20
BITMAP
180000
7C0000
FE0000
7E0000
7F0000
3F8000
1FC000
0FC000
0FE000
07E000
07F000
03F800
01F800
01FC00
00FC00
00FE00
007E00
007E00
007F00
003F00
003F80
003F80
001F80
001FC0
001FC0
000FC0
000FC0
000FE0
000FE0
000FE0
000FE0
0007E0
0007F0
0007F0
0007F0
0007F0
0007F0
0007F0
0007F0
0007F0
0007F0
0007F0
0007F0
0007F0
0007F0
0007F0
0007F0
0007F0
0007F0
0007E0
0007E0
000FE0
000FE0
000FE0
000FC0
000FC0
001FC0
001FC0
001F80
003F80
003F80
003F00
007F00
007E00
00FE00
00FE00
01FC00
01FC00
03F800
03F800
07F000
07E000
0FE000
1FC000
1FC000
3F8000
7F0000
7E0000
FC0000
3C0000
ENDCHAR
STARTCHAR 002A
ENCODING 42
SWIDTH 500 0
DWIDTH 42 0
BBX 28 26 7 31
BITMAP
000F0000
001F8000
001F8000
001F8000
001F8000
000F0000
000F0000
000F0000
780F01E0
7E0F07E0
7FCF3FE0
FFFFFFF0
FFFFFFF0
1FFFFF80
00FFF000
003F8000
003FC000
007FE000
00F9F000
01F9F800
03F0FC00
07F0FE00
07E07E00
0FC03F00
07C03E00
03801C00
ENDCHAR
STARTCHAR 002B
ENCODING 43
SWIDTH 500 0
DWIDTH 42 0
BBX 38 38 2 3
BITMAP
0000FC0000
0000FC0000
0000FC0000
0000FC0000
0000FC0000
0000FC0000
0000FC0000
0000FC0000
0000FC0000
0000FC0000
0000FC0000
0000FC0000
0000FC0000
0000FC0000
0000FC0000
0000FC0000
FFFFFFFFFC
FFFFFFFFFC
FFFFFFFFFC
FFFFFFFFFC
FFFFFFFFFC
FFFFFFFFF8
0000FC0000
0000FC0000
0000FC0000
0000FC0000
0000FC0000
0000FC0000
0000FC0000
0000FC0000
0000FC0000
0000FC0000
0000FC0000
0000FC0000
0000FC0000
0000FC0000
0000FC0000
0000FC0000
ENDCHAR
STARTCHAR 002C
ENCODING 44
SWIDTH 297 0
DWIDTH 25 0
BBX 15 20 4 -11
BITMAP
01FC
03FE
07FC
07F8
07F8
0FF0
0FF0
0FE0
1FE0
1FC0
1FC0
1F80
3F80
3F00
3F00
7E00
7C00
7C00
F800
7800
ENDCHAR
STARTCHAR 002D
ENCODING 45
SWIDTH 357 0
DWIDTH 30 0
BBX 21 7 4 18
BITMAP
7FFFF0
FFFFF8
FFFFF8
FFFFF8
FFFFF8
FFFFF8
7FFFF8
ENDCHAR
STARTCHAR 002E
ENCODING 46
SWIDTH 297 0
DWIDTH 25 0
BBX 11 12 7 -2
BITMAP
0400
7F80
7FC0
FFE0
FFE0
FFE0
FFE0
FFE0
FFE0
FFE0
7FC0
3F80
ENDCHAR
STARTCHAR 002F
ENCODING 47
SWIDTH 440 0
DWIDTH 37 0
BBX 38 78 0 -17
BITMAP
000000007C
00000000FC
00000000F8
00000001F8
00000001F8
00000003F0
00000003F0
00000007E0
00000007E0
00000007C0
0000000FC0
0000000FC0
0000001F80
0000001F80
0000001F00
0000003F00
0000003E00
0000007E00
0000007E00
000000FC00
000000FC00
000000F800
000001F800
000001F000
000003F000
000003F000
000007E000
000007E000
000007C000
00000FC000
00000F8000
00001F8000
00001F8000
00003F0000
00003F0000
00003E0000
00007E0000
00007C0000
0000FC0000
0000FC0000
0001F80000
0001F80000
0001F00000
0003F00000
0003E00000
0007E00000
0007E00000
000FC00000
000FC00000
000F800000
001F800000
001F000000
003F000000
003F000000
007E000000
007E000000
007C000000
00FC000000
00F8000000
01F8000000
01F8000000
03F0000000
03F0000000
03E0000000
07E0000000
07C0000000
0FC0000000
0FC0000000
1F80000000
1F80000000
1F00000000
3F00000000
3E00000000
7E00000000
7E00000000
FC00000000
FC00000000
F800000000
ENDCHAR
STARTCHAR 0030
ENCODING 48
SWIDTH 500 0
DWIDTH 42 0
BBX 34 56 4 -1
BITMAP
0007FC0000
001FFF8000
007FFFC000
00FFFFE000
01FFFFF000
03FFFFF800
07FC07FC00
0FF003FC00
0FE001FE00
1FE000FE00
1FC000FF00
3F80007F00
3F80007F00
3F80003F80
7F00003F80
7F00003F80
7F00003F80
7F00001F80
7E00001FC0
FE00001FC0
FE00001FC0
FE00001FC0
FE00001FC0
FE00001FC0
FE00001FC0
FE00001FC0
FE00001FC0
FE00001FC0
FE00001FC0
FE00001FC0
FE00001FC0
FE00001FC0
FE00001FC0
FE00001FC0
FE00001FC0
FE00001FC0
FE00001FC0
FE00001F80
7E00001F80
7F00003F80
7F00003F80
7F00003F80
7F00003F00
3F80007F00
3F80007F00
1FC000FE00
1FC000FE00
1FE001FE00
0FF003FC00
07F807F800
07FFFFF800
03FFFFF000
01FFFFE000
00FFFFC000
003FFF0000
000FFC0000
ENDCHAR
STARTCHAR 0031
ENCODING 49
SWIDTH 500 0
DWIDTH 42 0
BBX 30 54 6 1
BITMAP
0001F800
0003F800
000FF800
001FF800
007FF800
00FFF800
01FFF800
07FFF800
0FF9F800
3FE1F800
7FC1F800
FF01F800
7C01F800
7001F800
0001F800
0001F800
0001F800
0001F800
0001F800
0001F800
0001F800
0001F800
0001F800
0001F800
0001F800
0001F800
0001F800
0001F800
0001F800
0001F800
0001F800
0001F800
0001F800
0001F800
0001F800
0001F800
0001F800
0001F800
0001F800
0001F800
0001F800
0001F800
0001F800
0001F800
0001F800
0001F800
0001F800
0001F800
0001F800
07FFFFFC
07FFFFFC
07FFFFFC
07FFFFFC
07FFFFFC
ENDCHAR
STARTCHAR 0032
ENCODING 50
SWIDTH 500 0
DWIDTH 42 0
BBX 30 55 6 1
BITMAP
001FF000
00FFFE00
01FFFF80
07FFFFC0
0FFFFFE0
1FFFFFF0
1FE01FF0
3FC00FF8
7F8007F8
7F0003F8
FE0001FC
FE0001FC
FC0001FC
FC0001FC
080001FC
000001FC
000001FC
000001FC
000001FC
000003FC
000003F8
000007F8
00000FF0
00001FF0
00003FE0
00007FC0
0001FF80
0003FF00
000FFE00
001FFC00
003FF000
007FE000
00FFC000
01FF0000
03FE0000
07FC0000
0FF80000
0FF00000
1FE00000
1FE00000
3FC00000
3F800000
7F800000
7F800000
7F000000
7F000000
FF000000
FE000000
FE000000
FFFFFFFC
FFFFFFFC
FFFFFFFC
FFFFFFFC
FFFFFFFC
FFFFFFFC
ENDCHAR
STARTCHAR 0033
ENCODING 51
SWIDTH 500 0
DWIDTH 42 0
BBX 32 56 4 -1
BITMAP
001FF800
00FFFE00
01FFFF80
07FFFFC0
0FFFFFE0
1FFFFFF0
3FF00FF0
3FC007F8
3F0003F8
0E0001FC
040001FC
000000FC
000000FC
000000FC
000000FC
000000FC
000001FC
000001FC
000001F8
000003F8
000007F0
00000FF0
00001FE0
0001FFC0
007FFF00
007FFC00
007FFE00
007FFF80
007FFFE0
0003FFF0
00001FF8
000007FC
000003FC
000001FE
000000FE
000000FE
0000007F
0000007F
0000007F
0000007F
0000007F
0000007F
0000007F
0000007F
000000FE
000000FE
000001FE
000003FC
380007FC
3F001FF8
7FFFFFF0
7FFFFFE0
FFFFFFC0
7FFFFF80
0FFFFE00
00FFF000
ENDCHAR
STARTCHAR 0034
ENCODING 52
SWIDTH 500 0
DWIDTH 42 0
BBX 36 56 3 -1
BITMAP
000003E000
000007F000
00000FF000
00000FE000
00001FC000
00001FC000
00003F8000
00007F8000
00007F0000
0000FE0000
0000FE0000
0001FC0000
0003FC0000
0003F80000
0007F00000
0007F00000
000FE00000
001FC00000
001FC00000
003F800000
003F800000
007F000000
00FE000000
00FE01F000
01FC01F800
01FC01F800
03F801F800
07F001F800
07F001F800
0FE001F800
0FE001F800
1FC001F800
3F8003F800
3F8003F800
7F0003F800
7F0003F800
FE0003F800
FC0003F800
FFFFFFFFF0
FFFFFFFFF0
FFFFFFFFF0
FFFFFFFFF0
FFFFFFFFF0
000003F800
000003F800
000003F800
000003F800
000003F800
000003F800
000003F800
000003F800
000003F800
000003F800
000003F800
000003F800
000003F000
ENDCHAR
STARTCHAR 0035
ENCODING 53
SWIDTH 500 0
DWIDTH 42 0
BBX 31 55 6 -1
BITMAP
1FFFFFE0
1FFFFFE0
1FFFFFE0
3FFFFFE0
3FFFFFE0
3FFFFFE0
3F000000
3F000000
3F000000
3F000000
3F000000
3F000000
3F000000
7E000000
7E000000
7E000000
7E000000
7E000000
7E000000
7E03C000
7E3FFC00
7EFFFF00
7DFFFF80
7FFFFFC0
FFFFFFE0
FFF03FF0
FFC00FF8
FF0007F8
FE0003FC
3C0001FC
000001FC
000001FC
000000FC
000000FE
000000FE
000000FE
000000FE
000000FE
000000FE
000001FC
000001FC
000001FC
000001FC
000003F8
000003F8
000007F8
00000FF0
00003FE0
7800FFE0
7FFFFFC0
FFFFFF80
FFFFFF00
FFFFFC00
7FFFF000
0FFF8000
ENDCHAR
STARTCHAR 0036
ENCODING 54
SWIDTH 500 0
DWIDTH 42 0
BBX 32 56 5 -1
BITMAP
00007FF0
0003FFFC
000FFFFC
001FFFFC
003FFFF8
007FFDF8
00FF8000
01FE0000
03FC0000
03F80000
07F00000
07E00000
0FC00000
0FC00000
1F800000
1F800000
1F800000
3F000000
3F01F800
3F0FFF00
3F3FFF80
7E7FFFE0
7EFFFFF0
7EFFFFF0
7FF81FF8
7FE007FC
7FC003FC
FF8001FE
FF8001FE
FF0000FE
FF0000FE
FF00007F
FF00007F
FE00007F
FE00007F
FE00007F
FE00007F
FE00007F
FE00007F
7E00007F
7E00007F
7E00007F
7E00007E
7F0000FE
7F0000FE
3F0000FE
3F8001FC
3FC003FC
1FC007F8
1FF00FF0
0FFFFFF0
07FFFFE0
03FFFFC0
01FFFF80
00FFFE00
001FF000
ENDCHAR
STARTCHAR 0037
ENCODING 55
SWIDTH 500 0
DWIDTH 42 0
BBX 30 55 6 0
BITMAP
FFFFFFFC
FFFFFFFC
FFFFFFFC
FFFFFFFC
FFFFFFFC
FFFFFFFC
000003F8
000003F8
000003F0
000007F0
000007F0
00000FE0
00000FE0
00000FE0
00001FC0
00001FC0
00003F80
00003F80
00003F80
00007F00
00007F00
0000FE00
0000FE00
0000FE00
0001FC00
0001FC00
0001FC00
0003F800
0003F800
0007F000
0007F000
0007F000
000FE000
000FE000
001FC000
001FC000
001FC000
003F8000
003F8000
007F8000
007F0000
007F0000
00FE0000
00FE0000
00FE0000
01FC0000
01FC0000
03FC0000
03F80000
03F80000
07F00000
07F00000
0FF00000
0FE00000
00E00000
ENDCHAR
STARTCHAR 0038
ENCODING 56
SWIDTH 500 0
DWIDTH 42 0
BBX 36 56 3 -1
BITMAP
0007FE0000
003FFFC000
00FFFFF000
01FFFFF800
03FFFFFC00
07FF9FFE00
07F801FF00
0FE0007F00
0FC0007F80
1FC0003F80
1FC0003F80
1F80001F80
1F80001F80
1F80001F80
1F80001F80
1FC0003F80
1FC0003F80
1FC0003F00
0FE0007F00
0FF000FF00
07F801FE00
03FC03FC00
03FF07F800
00FFDFF000
007FFFE000
001FFF8000
000FFF0000
003FFFC000
00FFFFF000
03FFFFFC00
07FF0FFE00
0FFC03FF00
1FF001FF80
3FE0007F80
3FC0003FC0
7F80001FE0
7F80001FE0
7F00000FE0
7F00000FE0
FE000007F0
FE000007F0
FE000007F0
FE000007F0
7E000007E0
7F00000FE0
7F00000FE0
7F80001FE0
3FC0003FC0
3FE0007FC0
1FF801FF80
0FFF9FFF00
07FFFFFE00
03FFFFFC00
01FFFFF000
007FFFE000
000FFF0000
ENDCHAR
STARTCHAR 0039
ENCODING 57
SWIDTH 500 0
DWIDTH 42 0
BBX 31 56 5 -1
BITMAP
001FF800
007FFE00
01FFFF80
03FFFFC0
07FFFFE0
0FFFFFE0
1FF00FF0
3FC007F8
3F8003F8
7F0001F8
7F0001FC
7E0000FC
FE0000FC
FE0000FE
FE0000FE
FE0000FE
FE0000FE
FC0000FE
FC0000FE
FC0000FE
FC0000FE
FE0000FE
FE0000FE
FE0000FE
FE0000FE
FE0000FE
FF0001FE
7F0001FE
7F8003FE
7F8007FE
3FC00FFE
3FF01F7E
1FFFFFFE
0FFFFEFE
07FFFCFC
03FFF8FC
00FFF0FC
003F81FC
000001F8
000001F8
000003F8
000003F0
000003F0
000007F0
00000FE0
00000FE0
00001FC0
00003FC0
0000FF80
0003FF00
1FFFFE00
3FFFFC00
3FFFF800
3FFFF000
3FFFC000
07FE0000
ENDCHAR
STARTCHAR 003A
ENCODING 58
SWIDTH 297 0
DWIDTH 25 0
BBX 11 41 7 -1
BITMAP
3F80
7FC0
FFE0
FFE0
FFE0
FFE0
FFE0
FFE0
FFE0
7FC0
3F80
0000
0000
0000
0000
0000
0000
0000
0000
0000
0000
0000
0000
0000
0000
0000
0000
0000
0000
0400
7F80
7FC0
FFE0
FFE0
FFE0
FFE0
FFE0
FFE0
FFE0
7FC0
3F80
ENDCHAR
STARTCHAR 003B
ENCODING 59
SWIDTH 297 0
DWIDTH 25 0
BBX 16 50 4 -10
BITMAP
03F8
07FC
0FFE
0FFE
0FFF
0FFF
0FFF
0FFE
0FFE
07FE
03F8
0000
0000
0000
0000
0000
0000
0000
0000
0000
0000
0000
0000
0000
0000
0000
0000
0000
0000
0000
03FC
07FC
07FC
07F8
07F8
0FF0
0FF0
0FE0
1FE0
1FC0
1FC0
3F80
3F80
3F00
3E00
7E00
7C00
7C00
F800
7800
ENDCHAR
STARTCHAR 003C
ENCODING 60
SWIDTH 500 0
DWIDTH 42 0
BBX 38 31 2 6
BITMAP
0000000038
00000001F8
0000000FF8
0000003FFC
000001FFFC
00000FFFFC
00007FFFF0
0003FFFF80
000FFFFC00
007FFFF000
03FFFF8000
1FFFFC0000
7FFFE00000
FFFF000000
FFF8000000
FFE0000000
FFF0000000
FFFE000000
FFFFC00000
3FFFF80000
07FFFF0000
00FFFFC000
001FFFF800
0007FFFF00
0000FFFFE0
00001FFFFC
000003FFFC
000000FFFC
0000001FF8
00000003F8
0000000078
ENDCHAR
STARTCHAR 003D
ENCODING 61
SWIDTH 500 0
DWIDTH 42 0
BBX 38 17 2 13
BITMAP
FFFFFFFFFC
FFFFFFFFFC
FFFFFFFFFC
FFFFFFFFFC
FFFFFFFFFC
FFFFFFFFFC
0000000000
0000000000
0000000000
0000000000
0000000000
7FFFFFFFF8
FFFFFFFFFC
FFFFFFFFFC
FFFFFFFFFC
FFFFFFFFFC
FFFFFFFFFC
ENDCHAR
STARTCHAR 003E
ENCODING 62
SWIDTH 500 0
DWIDTH 42 0
BBX 38 32 2 6
BITMAP
3000000000
7E00000000
7FC0000000
7FF8000000
FFFE000000
FFFFC00000
3FFFF80000
07FFFF0000
00FFFFC000
001FFFF800
0007FFFF00
0000FFFFE0
00001FFFF8
000003FFFC
0000007FFC
0000001FFC
0000003FFC
000001FFFC
00000FFFFC
00007FFFF0
0001FFFF80
000FFFFC00
007FFFF000
03FFFF8000
1FFFFC0000
7FFFE00000
FFFF800000
FFFC000000
7FE0000000
7F00000000
7800000000
2000000000
ENDCHAR
STARTCHAR 003F
ENCODING 63
SWIDTH 428 0
DWIDTH 36 0
BBX 28 60 4 -2
BITMAP
003F0000
07FFF000
3FFFFC00
FFFFFE00
FFFFFF00
7FFFFF80
7F00FFC0
78003FC0
00001FE0
00000FE0
00000FE0
00000FE0
000007F0
000007F0
000007F0
000007F0
00000FE0
00000FE0
00001FE0
00001FE0
00003FC0
0000FF80
0003FF80
001FFF00
007FFE00
007FF800
007FE000
007F0000
007E0000
007E0000
007E0000
007E0000
007E0000
007E0000
007E0000
007E0000
007C0000
00000000
00000000
00000000
00000000
00000000
00000000
00000000
00000000
00000000
00000000
00000000
00180000
00FF0000
01FF8000
01FF8000
03FFC000
03FFC000
03FFC000
03FFC000
03FFC000
01FF8000
01FF8000
007E0000
ENDCHAR
STARTCHAR 0040
ENCODING 64
SWIDTH 940 0
DWIDTH 79 0
BBX 68 70 6 -14
BITMAP
00000001FFFF000000
0000001FFFFFF00000
000000FFFFFFFC0000
000003FFFFFFFF0000
00000FFFFFFFFFC000
00003FFE0000FFE000
00007FF000001FF000
0000FF80000007F800
0003FE00000003FC00
0007FC00000000FE00
000FF0000000007F00
001FE0000000003F00
003FC0000000003F80
007F00000000001F80
00FE00000000000FC0
00FC00000000000FC0
01FC000000000007C0
03F8000000000007E0
07F0000000000007E0
07E00000FE000003E0
0FE00003FF9F8003E0
0FC00007FFDF0003E0
1FC0000FFFFF0003E0
1F80001FFFFF0003E0
3F80003F83FF0003F0
3F00007F00FE0003E0
3F00007E007E0003E0
7E0000FC007E0003E0
7E0000FC007E0003E0
7E0001F8007E0003E0
7C0001F8007C0007E0
FC0003F800FC0007E0
FC0003F000FC0007E0
FC0003F000FC0007C0
FC0003F000FC000FC0
FC0007E001F8000FC0
FC0007E001F8000F80
F80007E001F8001F80
F80007E003F8001F00
F80007E003F8003F00
F80007E007F0007E00
F80007E007F000FC00
FC0007E00FF001FC00
FC0007E01EF003F800
FC0007F07EF807F000
FC0007FBFCF81FE000
FC0003FFF8FFFFC000
FC0003FFF07FFF8000
7C0001FFE07FFE0000
7E0000FF803FF80000
7E00003E000FC00000
7F0000000000000000
3F0000000000000000
3F0000000000000000
1F8000000000000000
1FC000000000000000
0FC000000000000000
0FE000000000000000
07F000000000004000
03F80000000001E000
01FE0000000007E000
00FF000000001FF000
007FC0000000FFF000
003FF800000FFFE000
001FFFC003FFFF8000
0007FFFFFFFFFE0000
0001FFFFFFFFF00000
00007FFFFFFF000000
00000FFFFFE0000000
0000003FF000000000
ENDCHAR
STARTCHAR 0041
ENCODING 65
SWIDTH 559 0
DWIDTH 47 0
BBX 42 58 2 0
BITMAP
00001F000000
00003F800000
00007F800000
00007FC00000
00007FC00000
0000FFC00000
0000FFE00000
0000FFE00000
0001FFE00000
0001FFF00000
0001FBF00000
0003F3F00000
0003F3F00000
0003F3F80000
0003F1F80000
0007E1F80000
0007E1FC0000
0007E1FC0000
000FE0FC0000
000FC0FE0000
000FC0FE0000
001FC07E0000
001FC07F0000
001F807F0000
003F807F0000
003F803F0000
003F003F8000
003F003F8000
007F003F8000
007F001FC000
007E001FC000
00FE001FC000
00FE001FE000
00FE000FE000
01FC000FE000
01FFFFFFF000
01FFFFFFF000
03FFFFFFF000
03FFFFFFF800
03FFFFFFF800
03FFFFFFF800
07F00003F800
07F00003FC00
07F00001FC00
0FF00001FC00
0FE00001FE00
0FE00001FE00
1FE00000FE00
1FE00000FF00
1FC00000FF00
3FC000007F00
3FC000007F80
3F8000007F80
3F8000007F80
7F8000003F80
7F8000003FC0
7F0000003FC0
FF0000001FC0
ENDCHAR
STARTCHAR 0042
ENCODING 66
SWIDTH 559 0
DWIDTH 47 0
BBX 34 58 8 0
BITMAP
7FFF000000
FFFFFE0000
FFFFFFC000
FFFFFFE000
FFFFFFF000
FFFFFFF800
FE00FFFC00
FE0007FC00
FE0003FE00
FE0001FE00
FE0001FE00
FE0000FE00
FE0000FE00
FE0000FF00
FE0000FF00
FE0000FF00
FE0000FE00
FE0000FE00
FE0000FE00
FE0001FE00
FE0001FC00
FE0001FC00
FE0003F800
FE0007F800
FE000FF000
FE007FE000
FFFFFF8000
FFFFFF0000
FFFFFF8000
FFFFFFE000
FFFFFFF800
FE01FFFC00
FE000FFE00
FE0003FE00
FE0001FF00
FE0000FF00
FE00007F80
FE00007F80
FE00003F80
FE00003F80
FE00003FC0
FE00003FC0
FE00003FC0
FE00003FC0
FE00003F80
FE00003F80
FE00007F80
FE00007F80
FE0000FF00
FE0001FF00
FE0003FF00
FE000FFE00
FFFFFFFC00
FFFFFFF800
FFFFFFF000
FFFFFFE000
FFFFFF8000
FFFFF80000
ENDCHAR
STARTCHAR 0043
ENCODING 67
SWIDTH 464 0
DWIDTH 39 0
BBX 33 60 4 -2
BITMAP
0000FC0000
000FFF8000
003FFFF000
007FFFF800
00FFFFFE00
01FFFFFF00
03FF03FF80
07FC007F00
07F8003F00
0FF0001E00
1FE0000400
1FC0000000
1FC0000000
3FC0000000
3F80000000
3F80000000
3F80000000
7F80000000
7F80000000
7F00000000
7F00000000
7F00000000
7F00000000
7F00000000
7F00000000
FF00000000
FF00000000
FF00000000
FF00000000
FF00000000
FF00000000
FF00000000
FF00000000
FF00000000
7F00000000
7F00000000
7F00000000
7F00000000
7F00000000
7F80000000
7F80000000
7F80000000
3F80000000
3F80000000
3FC0000000
3FC0000000
1FC0000000
1FE0000000
1FE0000000
0FF0000000
0FF0000600
07F8001F00
07FC003F80
03FF00FF80
01FFFFFF80
00FFFFFF00
007FFFFE00
003FFFF800
000FFFE000
0003FF0000
ENDCHAR
STARTCHAR 0044
ENCODING 68
SWIDTH 559 0
DWIDTH 47 0
BBX 34 58 8 0
BITMAP
7FF8000000
FFFFF80000
FFFFFF0000
FFFFFF8000
FFFFFFE000
FFFFFFF000
FE03FFF800
FE001FFC00
FE0007FC00
FE0003FE00
FE0001FE00
FE0000FF00
FE0000FF00
FE00007F00
FE00007F80
FE00007F80
FE00003F80
FE00003F80
FE00003FC0
FE00003FC0
FE00003FC0
FE00003FC0
FE00001FC0
FE00001FC0
FE00001FC0
FE00001FC0
FE00001FC0
FE00001FC0
FE00001FC0
FE00001FC0
FE00001FC0
FE00001FC0
FE00001FC0
FE00001FC0
FE00001FC0
FE00003FC0
FE00003FC0
FE00003FC0
FE00003FC0
FE00003F80
FE00003F80
FE00007F80
FE00007F80
FE00007F80
FE00007F00
FE0000FF00
FE0000FF00
FE0001FE00
FE0003FE00
FE0007FC00
FE001FF800
FE007FF800
FFFFFFF000
FFFFFFC000
FFFFFF8000
FFFFFE0000
FFFFF80000
FFFF800000
ENDCHAR
STARTCHAR 0045
ENCODING 69
SWIDTH 464 0
DWIDTH 39 0
BBX 28 58 8 0
BITMAP
7FFFFFE0
FFFFFFF0
FFFFFFF0
FFFFFFE0
FFFFFFE0
FFFFFFE0
FE000000
FE000000
FE000000
FE000000
FE000000
FE000000
FE000000
FE000000
FE000000
FE000000
FE000000
FE000000
FE000000
FE000000
FE000000
FE000000
FE000000
FE000000
FE000000
FFFFFF00
FFFFFF00
FFFFFF00
FFFFFF00
FFFFFF00
FFFFFF00
FE000000
FE000000
FE000000
FE000000
FE000000
FE000000
FE000000
FE000000
FE000000
FE000000
FE000000
FE000000
FE000000
FE000000
FE000000
FE000000
FE000000
FE000000
FE000000
FE000000
FE000000
FFFFFFF0
FFFFFFF0
FFFFFFF0
FFFFFFF0
FFFFFFF0
FFFFFFF0
ENDCHAR
STARTCHAR 0046
ENCODING 70
SWIDTH 428 0
DWIDTH 36 0
BBX 28 58 8 0
BITMAP
7FFFFFE0
FFFFFFF0
FFFFFFF0
FFFFFFE0
FFFFFFE0
FFFFFFE0
FE000000
FE000000
FE000000
FE000000
FE000000
FE000000
FE000000
FE000000
FE000000
FE000000
FE000000
FE000000
FE000000
FE000000
FE000000
FE000000
FE000000
FE000000
FE000000
FFFFFF00
FFFFFF00
FFFFFF00
FFFFFF00
FFFFFF00
FFFFFF00
FE000000
FE000000
FE000000
FE000000
FE000000
FE000000
FE000000
FE000000
FE000000
FE000000
FE000000
FE000000
FE000000
FE000000
FE000000
FE000000
FE000000
FE000000
FE000000
FE000000
FE000000
FE000000
FE000000
FE000000
FE000000
FE000000
FE000000
ENDCHAR
STARTCHAR 0047
ENCODING 71
SWIDTH 535 0
DWIDTH 45 0
BBX 35 60 4 -2
BITMAP
00003F0000
0003FFF000
001FFFFE00
003FFFFF80
007FFFFFC0
00FFFFFFE0
01FF807FC0
03FE000FC0
07FC000780
07F8000180
0FF0000000
0FE0000000
1FE0000000
1FC0000000
3FC0000000
3FC0000000
3F80000000
3F80000000
7F80000000
7F80000000
7F00000000
7F00000000
7F00000000
7F00000000
7F00000000
FF00000000
FF00000000
FF00000000
FF00000000
FF00000000
FF0007FFE0
FF0007FFE0
FF0007FFE0
FF0007FFE0
7F0007FFE0
7F00000FE0
7F00000FE0
7F00000FE0
7F00000FE0
7F80000FE0
7F80000FE0
7F80000FE0
3F80000FE0
3F80000FE0
3FC0000FE0
3FC0000FE0
1FC0000FE0
1FE0000FE0
1FE0000FE0
0FF0000FE0
0FF8000FE0
07F8000FE0
03FE000FE0
03FF001FE0
01FFF3FFE0
00FFFFFFE0
007FFFFFE0
003FFFFF80
000FFFFE00
0001FFF000
ENDCHAR
STARTCHAR 0048
ENCODING 72
SWIDTH 607 0
DWIDTH 51 0
BBX 35 58 8 0
BITMAP
7C000007C0
FE00000FE0
FE00000FE0
FE00000FE0
FE00000FE0
FE00000FE0
FE00000FE0
FE00000FE0
FE00000FE0
FE00000FE0
FE00000FE0
FE00000FE0
FE00000FE0
FE00000FE0
FE00000FE0
FE00000FE0
FE00000FE0
FE00000FE0
FE00000FE0
FE00000FE0
FE00000FE0
FE00000FE0
FE00000FE0
FE00000FE0
FE00000FE0
FFFFFFFFE0
FFFFFFFFE0
FFFFFFFFE0
FFFFFFFFE0
FFFFFFFFE0
FFFFFFFFE0
FE00000FE0
FE00000FE0
FE00000FE0
FE00000FE0
FE00000FE0
FE00000FE0
FE00000FE0
FE00000FE0
FE00000FE0
FE00000FE0
FE00000FE0
FE00000FE0
FE00000FE0
FE00000FE0
FE00000FE0
FE00000FE0
FE00000FE0
FE00000FE0
FE00000FE0
FE00000FE0
FE00000FE0
FE00000FE0
FE00000FE0
FE00000FE0
FE00000FE0
FE00000FE0
FE000007E0
ENDCHAR
STARTCHAR 0049
ENCODING 73
SWIDTH 369 0
DWIDTH 31 0
BBX 25 58 3 0
BITMAP
7FFFFF00
FFFFFF80
FFFFFF80
FFFFFF80
FFFFFF80
7FFFFF00
007F0000
007F0000
007F0000
007F0000
007F0000
007F0000
007F0000
007F0000
007F0000
007F0000
007F0000
007F0000
007F0000
007F0000
007F0000
007F0000
007F0000
007F0000
007F0000
007F0000
007F0000
007F0000
007F0000
007F0000
007F0000
007F0000
007F0000
007F0000
007F0000
007F0000
007F0000
007F0000
007F0000
007F0000
007F0000
007F0000
007F0000
007F0000
007F0000
007F0000
007F0000
007F0000
007F0000
007F0000
007F0000
007F0000
007F0000
FFFFFF80
FFFFFF80
FFFFFF80
FFFFFF80
7FFFFF80
ENDCHAR
STARTCHAR 004A
ENCODING 74
SWIDTH 440 0
DWIDTH 37 0
BBX 30 59 0 -2
BITMAP
007FFFF8
00FFFFFC
00FFFFFC
00FFFFFC
00FFFFFC
00FFFFFC
000001FC
000001FC
000001FC
000001FC
000001FC
000001FC
000001FC
000001FC
000001FC
000001FC
000001FC
000001FC
000001FC
000001FC
000001FC
000001FC
000001FC
000001FC
000001FC
000001FC
000001FC
000001FC
000001FC
000001FC
000001FC
000001FC
000001FC
000001FC
000001FC
000001FC
000001FC
000001FC
000001FC
000001FC
000001FC
000001FC
FC0001FC
FC0001FC
FC0001FC
FE0001FC
FE0001FC
FE0001FC
7E0001FC
7F0003FC
7F0003F8
3F8007F8
3FC01FF0
1FFCFFF0
1FFFFFE0
0FFFFFC0
07FFFF80
01FFFE00
003FF800
ENDCHAR
STARTCHAR 004B
ENCODING 75
SWIDTH 523 0
DWIDTH 44 0
BBX 34 60 8 -2
BITMAP
0000000400
7C00000E00
FE00001F80
FE00001FC0
FE00003F80
FE00007F80
FE0000FF00
FE0000FE00
FE0001FC00
FE0003FC00
FE0007F800
FE0007F000
FE000FE000
FE001FE000
FE003FC000
FE003F8000
FE007F0000
FE00FF0000
FE00FE0000
FE01FC0000
FE03F80000
FE07F80000
FE07F00000
FE0FE00000
FE1FC00000
FE3FC00000
FE3F800000
FE7F000000
FEFE000000
FFFE000000
FFFC000000
FFFE000000
FEFE000000
FEFF000000
FE7F800000
FE3FC00000
FE1FE00000
FE0FE00000
FE0FF00000
FE07F80000
FE03FC0000
FE01FE0000
FE01FE0000
FE00FF0000
FE007F8000
FE003FC000
FE003FE000
FE001FE000
FE000FF000
FE0007F800
FE0007FC00
FE0003FE00
FE0001FE00
FE0000FF00
FE0000FF80
FE00007FC0
FE00003FC0
FE00001F80
FE00001F00
0000000C00
ENDCHAR
STARTCHAR 004C
ENCODING 76
SWIDTH 440 0
DWIDTH 37 0
BBX 29 58 8 0
BITMAP
7C000000
FE000000
FE000000
FE000000
FE000000
FE000000
FE000000
FE000000
FE000000
FE000000
FE000000
FE000000
FE000000
FE000000
FE000000
FE000000
FE000000
FE000000
FE000000
FE000000
FE000000
FE000000
FE000000
FE000000
FE000000
FE000000
FE000000
FE000000
FE000000
FE000000
FE000000
FE000000
FE000000
FE000000
FE000000
FE000000
FE000000
FE000000
FE000000
FE000000
FE000000
FE000000
FE000000
FE000000
FE000000
FE000000
FE000000
FE000000
FE000000
FE000000
FE000000
FE000000
FFFFFFF8
FFFFFFF8
FFFFFFF0
FFFFFFF0
FFFFFFF0
FFFFFFE0
ENDCHAR
STARTCHAR 004D
ENCODING 77
SWIDTH 666 0
DWIDTH 56 0
BBX 44 58 6 0
BITMAP
0FC000003F00
1FE000007F00
1FE000007F80
1FF00000FF80
1FF00000FF80
1FF00000FF80
1FF80001FF80
1FF80001FF80
1FF80001FF80
1FFC0003EF80
1F7C0003FF80
1F7C0003FF80
1F7E0007FF80
1F7E0007FF80
1F7E0007CF80
1F3F000FCF80
1F3F000FCF80
3F3F001F8F80
3F1F801F8F80
3F1F801F8FC0
3F1F803F0FC0
3F0FC03F0FC0
3F0FC03F0FC0
3F0FC07E0FC0
3F07E07E0FC0
3F07E07E0FC0
3F07E0FC0FC0
3F03F0FC0FC0
3F03F0FC0FC0
3F03F1F80FC0
3F01F9F80FC0
3F01F9F00FC0
3F01F9F00FC0
3F00FBF00FC0
7F00FFE00FC0
7F00FFE00FC0
7F007FE00FE0
7F007FC00FE0
7F007FC00FE0
7F003FC00FE0
7F003F800FE0
7F003F800FE0
7F001F800FE0
7F001F000FE0
7E000E000FE0
7E00000007E0
7E00000007E0
7E00000007E0
7E00000007E0
7E00000007E0
7E00000007E0
7E00000007E0
FE00000007E0
FE00000007F0
FE00000007F0
FE00000007F0
FE00000007F0
FE00000007F0
ENDCHAR
STARTCHAR 004E
ENCODING 78
SWIDTH 571 0
DWIDTH 48 0
BBX 34 58 7 0
BITMAP
7E00000780
FF00000FC0
FF80000FC0
FF80000FC0
FFC0000FC0
FFC0000FC0
FFC0000FC0
FFE0000FC0
FFE0000FC0
FFF0000FC0
FFF0000FC0
FFF8000FC0
FDF8000FC0
FDFC000FC0
FDFC000FC0
FCFE000FC0
FCFE000FC0
FC7F000FC0
FC7F000FC0
FC3F800FC0
FC3F800FC0
FC1FC00FC0
FC1FC00FC0
FC0FE00FC0
FC0FE00FC0
FC07E00FC0
FC07F00FC0
FC07F00FC0
FC03F80FC0
FC03F80FC0
FC01FC0FC0
FC01FC0FC0
FC00FE0FC0
FC00FE0FC0
FC007F0FC0
FC007F0FC0
FC003F8FC0
FC003F8FC0
FC001FCFC0
FC001FCFC0
FC000FEFC0
FC000FEFC0
FC000FEFC0
FC0007FFC0
FC0007FFC0
FC0003F7C0
FC0003F7C0
FC0001FFC0
FC0001FFC0
FC0000FFC0
FC0000FFC0
FC00007FC0
FC00007FC0
FC00003FC0
FC00003FC0
FC00001FC0
FC00001FC0
FC00000FC0
ENDCHAR
STARTCHAR 004F
ENCODING 79
SWIDTH 559 0
DWIDTH 47 0
BBX 38 60 4 -2
BITMAP
00007C0000
0007FFC000
001FFFF000
007FFFFC00
00FFFFFE00
01FFFFFF00
03FF01FF80
07FC007F80
07F8003FC0
0FF0001FC0
0FE0000FE0
1FE0000FE0
1FC00007F0
1FC00007F0
3F800007F0
3F800007F8
3F800003F8
3F800003F8
7F800003F8
7F800003FC
7F000003FC
7F000003FC
7F000001FC
7F000001FC
7F000001FC
FF000001FC
FF000001FC
FF000001FC
FF000001FC
FF000001FC
FF000001FC
FF000001FC
FF000001FC
FF000001FC
FF000001FC
7F000001FC
7F000001FC
7F000001FC
7F000003FC
7F000003FC
7F000003FC
7F800003F8
7F800003F8
3F800003F8
3F800003F8
3F800007F8
3FC00007F0
1FC00007F0
1FC0000FE0
0FE0000FE0
0FE0001FE0
07F0003FC0
07F8007FC0
03FE00FF80
01FFEFFF00
01FFFFFE00
007FFFFC00
003FFFF800
000FFFE000
0003FF0000
ENDCHAR
STARTCHAR 0050
ENCODING 80
SWIDTH 500 0
DWIDTH 42 0
BBX 31 58 8 0
BITMAP
7FFE0000
FFFFFE00
FFFFFF80
FFFFFFC0
FFFFFFF0
FFFFFFF0
FE007FF8
FE000FFC
FE0003FC
FE0001FC
FE0001FE
FE0000FE
FE0000FE
FE0000FE
FE0000FE
FE0000FE
FE0000FE
FE0000FE
FE0000FE
FE0000FE
FE0000FE
FE0001FE
FE0001FC
FE0001FC
FE0003FC
FE0007F8
FE001FF8
FE00FFF0
FFFFFFE0
FFFFFFC0
FFFFFF80
FFFFFE00
FFFFF800
FFFF8000
FE000000
FE000000
FE000000
FE000000
FE000000
FE000000
FE000000
FE000000
FE000000
FE000000
FE000000
FE000000
FE000000
FE000000
FE000000
FE000000
FE000000
FE000000
FE000000
FE000000
FE000000
FE000000
FE000000
FE000000
ENDCHAR
STARTCHAR 0051
ENCODING 81
SWIDTH 559 0
DWIDTH 47 0
BBX 42 65 4 -6
BITMAP
00007E000000
0007FFC00000
001FFFF00000
007FFFFC0000
00FFFFFE0000
01FFFFFF0000
03FF01FF8000
03FC007F8000
07F8003FC000
0FF0001FE000
0FE0001FE000
1FE0000FE000
1FC0000FF000
1FC00007F000
3FC00007F000
3F800007F800
3F800007F800
3F800003F800
7F800003F800
7F800003F800
7F000003FC00
7F000003FC00
7F000003FC00
7F000003FC00
7F000003FC00
7F000001FC00
FF000001FC00
FF000001FC00
FF000001FC00
FF000001FC00
FF000001FC00
FF000001FC00
FF000001FC00
FF000001FC00
FF000001FC00
7F000001FC00
7F000003FC00
7F000003FC00
7F000003FC00
7F000003FC00
7F800003FC00
7F800003F800
7F800003F800
3F800003F800
3F800007F800
3F800007F000
3FC00007F000
1FC00007F000
1FE0000FE000
1FE0000FE000
0FF0001FC000
0FF0003FC000
07F8007F8000
03FE00FF8000
03FFEFFF8000
01FFFFFFE000
00FFFFFFF000
003FFFFFF800
001FFFEFFE00
0003FF07FF00
00000003FFC0
00000001FFC0
00000000FF00
000000003E00
000000001800
ENDCHAR
STARTCHAR 0052
ENCODING 82
SWIDTH 523 0
DWIDTH 44 0
BBX 35 59 7 -1
BITMAP
7FFE000000
FFFFFE0000
FFFFFF8000
FFFFFFE000
FFFFFFF000
FFFFFFF800
FE007FF800
FE0007FC00
FE0003FC00
FE0001FE00
FE0001FE00
FE0000FE00
FE0000FE00
FE0000FE00
FE0000FE00
FE0000FE00
FE0000FE00
FE0000FE00
FE0000FE00
FE0000FE00
FE0000FE00
FE0001FC00
FE0001FC00
FE0003FC00
FE0007F800
FE001FF000
FFFFFFE000
FFFFFFC000
FFFFFF8000
FFFFFF0000
FFFFFC0000
FFFFF00000
FE03F80000
FE03FC0000
FE01FC0000
FE01FE0000
FE00FE0000
FE00FF0000
FE007F0000
FE007F8000
FE003F8000
FE003FC000
FE001FC000
FE001FE000
FE000FF000
FE000FF000
FE0007F800
FE0007F800
FE0003FC00
FE0003FC00
FE0001FE00
FE0001FE00
FE0000FF00
FE00007F80
FE00007F80
FE00003FC0
FE00003FC0
FE00001FE0
0000001F00
ENDCHAR
STARTCHAR 0053
ENCODING 83
SWIDTH 464 0
DWIDTH 39 0
BBX 34 60 2 -2
BITMAP
0001F80000
001FFFC000
007FFFF800
00FFFFFE00
03FFFFFF00
07FFFFFF00
0FFF0FFF00
0FF8007E00
1FE0001E00
1FE0000400
3FC0000000
3FC0000000
3F80000000
3F80000000
3F80000000
3F80000000
3F80000000
3FC0000000
3FC0000000
3FE0000000
1FE0000000
1FF0000000
1FFC000000
0FFE000000
07FF800000
03FFE00000
01FFF80000
00FFFC0000
007FFF0000
001FFFC000
0007FFE000
0003FFF000
0000FFF800
00003FFC00
00000FFE00
000007FE00
000003FF00
000001FF00
000000FF80
0000007F80
0000007F80
0000003FC0
0000003FC0
0000003FC0
0000003FC0
0000003FC0
0000003FC0
0000003F80
0000003F80
0000007F80
2000007F80
7C0000FF00
7F0001FF00
7FE007FE00
FFFFFFFC00
FFFFFFF800
3FFFFFF000
0FFFFFC000
03FFFF8000
003FFC0000
ENDCHAR
STARTCHAR 0054
ENCODING 84
SWIDTH 440 0
DWIDTH 37 0
BBX 35 58 2 0
BITMAP
7FFFFFFFC0
FFFFFFFFE0
FFFFFFFFE0
FFFFFFFFC0
FFFFFFFFC0
FFFFFFFFC0
0007F00000
0007F00000
0007F00000
0007F00000
0007F00000
0007F00000
0007F00000
0007F00000
0007F00000
0007F00000
0007F00000
0007F00000
0007F00000
0007F00000
0007F00000
0007F00000
0007F00000
0007F00000
0007F00000
0007F00000
0007F00000
0007F00000
0007F00000
0007F00000
0007F00000
0007F00000
0007F00000
0007F00000
0007F00000
0007F00000
0007F00000
0007F00000
0007F00000
0007F00000
0007F00000
0007F00000
0007F00000
0007F00000
0007F00000
0007F00000
0007F00000
0007F00000
0007F00000
0007F00000
0007F00000
0007F00000
0007F00000
0007F00000
0007F00000
0007F00000
0007F00000
0003F00000
ENDCHAR
STARTCHAR 0055
ENCODING 85
SWIDTH 595 0
DWIDTH 50 0
BBX 36 59 7 -1
BITMAP
7C000003E0
FE000007F0
FE000007F0
FE000007F0
FE000007F0
FE000007F0
FE000007F0
FE000007F0
FE000007F0
FE000007F0
FE000007F0
FE000007F0
FE000007F0
FE000007F0
FE000007F0
FE000007F0
FE000007F0
FE000007F0
FE000007F0
FE000007F0
FE000007F0
FE000007F0
FE000007F0
FE000007F0
FE000007F0
FE000007F0
FE000007F0
FE000007F0
FE000007F0
FE000007F0
FE000007F0
FE000007F0
FE000007F0
FE000007F0
FE000007F0
FE000007F0
FE000007F0
FE000007F0
FE000007F0
FE000007F0
FE000007F0
FE000007F0
FE000007F0
FE000007F0
FE000007F0
FE000007F0
FE00000FF0
FF00000FE0
7F00000FE0
7F00001FE0
7F80003FC0
3FC0007FC0
3FF001FF80
1FFFBFFF00
0FFFFFFF00
07FFFFFC00
03FFFFF800
00FFFFE000
001FFF0000
ENDCHAR
STARTCHAR 0056
ENCODING 86
SWIDTH 500 0
DWIDTH 42 0
BBX 38 59 2 0
BITMAP
1E000001E0
FE000001FC
FE000001FC
FF000003FC
7F000003F8
7F000003F8
7F000003F8
7F800007F8
3F800007F0
3F800007F0
3F800007F0
1FC0000FF0
1FC0000FE0
1FC0000FE0
1FC0000FE0
0FE0001FC0
0FE0001FC0
0FE0001FC0
0FE0001FC0
07E0003F80
07F0003F80
07F0003F80
07F0003F80
03F0003F00
03F8007F00
03F8007F00
03F8007E00
01F8007E00
01FC00FE00
01FC00FE00
00FC00FC00
00FC00FC00
00FE01FC00
00FE01FC00
007E01F800
007E01F800
007F03F800
007F03F800
003F03F000
003F03F000
003F87F000
003F87E000
001F87E000
001F87E000
001FCFE000
000FCFC000
000FCFC000
000FCFC000
000FCFC000
0007DF8000
0007FF8000
0007FF8000
0007FF8000
0003FF0000
0003FF0000
0003FF0000
0003FE0000
0001FE0000
0000FC0000
ENDCHAR
STARTCHAR 0057
ENCODING 87
SWIDTH 702 0
DWIDTH 59 0
BBX 53 59 3 0
BITMAP
1C0000FC0001C0
FE0000FC0001F8
FE0001FE0003F8
FE0001FE0003F8
FE0001FE0003F8
FE0001FE0003F8
7E0001FE0003F8
7F0003FE0007F0
7F0003FF0007F0
7F0003FF0007F0
7F0003FF0007F0
3F0003FF0007E0
3F0007DF0007E0
3F8007DF000FE0
3F8007DF800FE0
3F8007DF800FE0
3F8007CF800FC0
1F800F8F800FC0
1F800F8F801FC0
1FC00F8F801FC0
1FC00F8FC01FC0
1FC00F8FC01F80
0FC01F0FC01F80
0FC01F07C01F80
0FE01F07C03F80
0FE01F07C03F80
0FE01F07E03F00
07E03F07E03F00
07E03E07E03F00
07E03E03E07F00
07F03E03E07E00
07F03E03E07E00
07F07E03F07E00
03F07C03F07E00
03F07C03F07E00
03F07C03F0FC00
03F87C01F0FC00
03F8FC01F8FC00
01F8F801F8FC00
01F8F801F8FC00
01F8F801F9F800
01F8F801F9F800
01FDF800F9F800
00FDF000FDF800
00FDF000FDF800
00FDF000FDF000
00FDF000FDF000
00FDF000FDF000
00FDF000FDF000
007DE0007FE000
007DE0007FE000
007FE0007FE000
007FE0007FE000
007FE0007FE000
003FC0007FC000
003FC0007FC000
003FC0003FC000
003FC0003FC000
001F80003F8000
ENDCHAR
STARTCHAR 0058
ENCODING 88
SWIDTH 476 0
DWIDTH 40 0
BBX 38 58 1 0
BITMAP
0700000180
3F000003E0
7F800003F8
3F800007F8
3FC0000FF0
1FC0000FF0
1FE0001FE0
0FE0001FC0
0FF0003FC0
07F8003F80
03F8007F80
03FC007F00
01FC00FF00
01FE00FE00
00FE01FC00
00FF01FC00
007F03F800
007F87F800
003F87F000
003FCFF000
001FCFE000
000FEFC000
000FFFC000
0007FF8000
0007FF8000
0003FF0000
0003FF0000
0001FE0000
0001FE0000
0003FF0000
0003FF0000
0007FF8000
0007FFC000
000FFFC000
000FEFE000
001FCFE000
001FCFF000
003F87F000
007F83F800
007F03F800
00FF01FC00
00FE01FE00
01FE00FE00
01FC00FF00
03FC007F00
03F8007F80
07F8003F80
07F0003FC0
0FF0001FE0
1FE0000FE0
1FE0000FF0
3FC00007F0
3FC00007F8
7F800003F8
7F000003FC
FF000001FC
FE000001FC
1E000000F0
ENDCHAR
STARTCHAR 0059
ENCODING 89
SWIDTH 476 0
DWIDTH 40 0
BBX 40 58 0 0
BITMAP
0F00000078
FF0000007F
FF800000FF
7F800000FF
7F800001FE
3FC00001FE
3FC00003FC
1FE00003FC
1FE00007F8
0FF00007F8
0FF0000FF0
07F8000FF0
03F8001FE0
03FC001FE0
01FC003FC0
01FE003F80
00FE007F80
00FF007F00
007F007F00
007F80FE00
003F80FE00
003FC1FC00
001FC1FC00
001FE3F800
000FE3F800
000FF7F000
0007F7E000
0007FFE000
0003FFC000
0001FFC000
0001FF8000
0000FF8000
0000FF0000
00007F0000
00007F0000
00007F0000
00007F0000
00007F0000
00007F0000
00007F0000
00007F0000
00007F0000
00007F0000
00007F0000
00007F0000
00007F0000
00007F0000
00007F0000
00007F0000
00007F0000
00007F0000
00007F0000
00007F0000
00007F0000
00007F0000
00007F0000
00007F0000
00007F0000
ENDCHAR
STARTCHAR 005A
ENCODING 90
SWIDTH 440 0
DWIDTH 37 0
BBX 34 58 2 0
BITMAP
0FFFFFFF00
1FFFFFFF80
3FFFFFFF80
3FFFFFFF80
3FFFFFFF80
7FFFFFFF80
0000007F80
000000FF00
000000FE00
000001FE00
000001FC00
000003FC00
000003F800
000007F800
00000FF000
00000FF000
00001FE000
00001FE000
00003FC000
00003FC000
00007F8000
00007F0000
0000FF0000
0000FE0000
0001FE0000
0001FC0000
0003FC0000
0003F80000
0007F80000
000FF00000
000FF00000
001FE00000
001FE00000
003FC00000
003FC00000
007F800000
007F000000
00FF000000
00FE000000
01FE000000
01FC000000
03FC000000
07F8000000
07F8000000
0FF0000000
0FF0000000
1FE0000000
1FE0000000
3FC0000000
3FC0000000
7F80000000
7F00000000
FFFFFFFF80
FFFFFFFFC0
FFFFFFFFC0
FFFFFFFFC0
FFFFFFFFC0
FFFFFFFFC0
ENDCHAR
STARTCHAR 005B
ENCODING 91
SWIDTH 369 0
DWIDTH 31 0
BBX 16 77 10 -16
BITMAP
FFFF
FFFF
FFFF
FFFF
FFFF
FC00
FC00
FC00
FC00
FC00
FC00
FC00
FC00
FC00
FC00
FC00
FC00
FC00
FC00
FC00
FC00
FC00
FC00
FC00
FC00
FC00
FC00
FC00
FC00
FC00
FC00
FC00
FC00
FC00
FC00
FC00
FC00
FC00
FC00
FC00
FC00
FC00
FC00
FC00
FC00
FC00
FC00
FC00
FC00
FC00
FC00
FC00
FC00
FC00
FC00
FC00
FC00
FC00
FC00
FC00
FC00
FC00
FC00
FC00
FC00
FC00
FC00
FC00
FC00
FC00
FC00
FC00
FFFF
FFFF
FFFF
FFFF
FFFF
ENDCHAR
STARTCHAR 005C
ENCODING 92
SWIDTH 440 0
DWIDTH 37 0
BBX 38 78 5 -17
BITMAP
F800000000
FC00000000
7C00000000
7E00000000
7E00000000
3F00000000
3F00000000
1F00000000
1F80000000
0F80000000
0FC0000000
0FC0000000
07E0000000
07E0000000
03E0000000
03F0000000
01F0000000
01F8000000
01F8000000
00FC000000
00FC000000
007C000000
007E000000
003E000000
003F000000
003F000000
001F800000
001F800000
000F800000
000FC00000
0007C00000
0007E00000
0007E00000
0003F00000
0003F00000
0001F00000
0001F80000
0000F80000
0000FC0000
0000FC0000
00007E0000
00007E0000
00003E0000
00003F0000
00001F0000
00001F8000
00001F8000
00000FC000
00000FC000
000007C000
000007E000
000003E000
000003F000
000003F000
000001F800
000001F800
000000F800
000000FC00
0000007C00
0000007E00
0000007E00
0000003F00
0000003F00
0000001F00
0000001F80
0000000F80
0000000FC0
0000000FC0
00000007E0
00000007E0
00000003E0
00000003F0
00000001F0
00000001F8
00000001F8
00000000FC
00000000FC
000000007C
ENDCHAR
STARTCHAR 005D
ENCODING 93
SWIDTH 369 0
DWIDTH 31 0
BBX 16 77 5 -16
BITMAP
FFFF
FFFF
FFFF
FFFF
FFFF
003F
003F
003F
003F
003F
003F
003F
003F
003F
003F
003F
003F
003F
003F
003F
003F
003F
003F
003F
003F
003F
003F
003F
003F
003F
003F
003F
003F
003F
003F
003F
003F
003F
003F
003F
003F
003F
003F
003F
003F
003F
003F
003F
003F
003F
003F
003F
003F
003F
003F
003F
003F
003F
003F
003F
003F
003F
003F
003F
003F
003F
003F
003F
003F
003F
003F
003F
FFFF
FFFF
FFFF
FFFF
FFFF
ENDCHAR
STARTCHAR 005E
ENCODING 94
SWIDTH 500 0
DWIDTH 42 0
BBX 32 31 5 27
BITMAP
0003C000
000FF000
000FF000
000FF000
001FF800
001FF800
003FFC00
003FFC00
007FFE00
007FFE00
00FE7F00
00FE7F00
00FC3F80
01FC3F80
01F81F80
03F81FC0
03F80FC0
07F00FE0
07F00FE0
0FE007F0
0FE007F0
1FC003F8
1FC003F8
1F8001F8
3F8001FC
3F8000FC
7F0000FE
7F0000FE
FE00007F
7E00007F
0C000030
ENDCHAR
STARTCHAR 005F
ENCODING 95
SWIDTH 500 0
DWIDTH 42 0
BBX 42 5 0 -11
BITMAP
FFFFFFFFFFC0
FFFFFFFFFFC0
FFFFFFFFFFC0
FFFFFFFFFFC0
FFFFFFFFFFC0
ENDCHAR
STARTCHAR 0060
ENCODING 96
SWIDTH 309 0
DWIDTH 26 0
BBX 17 13 4 47
BITMAP
180000
3E0000
7F0000
7F8000
FFE000
7FF000
1FF800
07FC00
01FF00
007F80
001F80
000780
000100
ENDCHAR
STARTCHAR 0061
ENCODING 97
SWIDTH 464 0
DWIDTH 39 0
BBX 31 42 4 -1
BITMAP
00FFFC00
07FFFF00
1FFFFF80
3FFFFFC0
3FFFFFE0
1FE07FE0
1E001FF0
08000FF0
000007F0
000007F0
000003F0
000003F0
000003F0
000003F0
000003F0
000003F0
0007FFF0
003FFFF0
01FFFFF0
07FFFFF0
0FFFFFF0
1FFE03F0
3FF003F0
3FC003F0
7F0003F0
7E0003F0
FE0003F0
FC0003F0
FC0003F0
FC0003F0
FC0003F0
FC0003F0
FE0007F0
FE000FF8
FF001FF8
7F007FF8
7FC1FFF8
7FFFFDFC
3FFFF8FE
1FFFE0FE
0FFFC0F8
03FE0060
ENDCHAR
STARTCHAR 0062
ENCODING 98
SWIDTH 500 0
DWIDTH 42 0
BBX 33 62 5 -2
BITMAP
0300000000
3F00000000
3F00000000
3F00000000
3F00000000
3F00000000
3F00000000
3F00000000
3F00000000
3F00000000
3F00000000
3F00000000
3F00000000
3F00000000
3F00000000
3F00000000
3F00000000
3F00000000
3F00000000
3F00000000
3F07FF0000
3F1FFFC000
3F3FFFF000
3F7FFFF800
3FFFFFF800
3FFE07FC00
3FF801FC00
3FE000FE00
3FC000FE00
3F00007F00
3F00007F00
3F00007F00
3F00007F00
3F00003F00
3F00003F80
3F00003F80
3F00003F80
3F00003F80
3F00003F80
3F00003F80
3F00003F80
3F00003F80
3F00003F80
3F00003F80
3F00003F00
3F00007F00
3F00007F00
3F00007F00
3F00007F00
3F00007F00
3F0000FE00
3F0000FE00
3F0000FE00
3F8001FC00
3FC003FC00
7FF007F800
7FFFFFF800
FFFFFFF000
FFFFFFE000
FCFFFFC000
7C3FFF8000
1807FE0000
ENDCHAR
STARTCHAR 0063
ENCODING 99
SWIDTH 428 0
DWIDTH 36 0
BBX 29 42 5 -1
BITMAP
001FFC00
007FFF80
01FFFFC0
03FFFFF0
07FFFFF8
0FFC0FF0
0FF003F0
1FC000E0
3F800060
3F800000
7F000000
7F000000
7E000000
7E000000
FE000000
FE000000
FE000000
FE000000
FE000000
FE000000
FE000000
FE000000
FE000000
FE000000
FE000000
FE000000
FE000000
FE000000
FE000000
FE000000
7F000000
7F000000
7F800000
3F800020
3FC000E0
1FF003F0
0FFF7FF0
0FFFFFF8
07FFFFF0
03FFFFC0
00FFFF00
001FF800
ENDCHAR
STARTCHAR 0064
ENCODING 100
SWIDTH 500 0
DWIDTH 42 0
BBX 33 62 4 -2
BITMAP
0000000600
0000007E00
0000007E00
0000007E00
0000007E00
0000007E00
0000007E00
0000007E00
0000007E00
0000007E00
0000007E00
0000007E00
0000007E00
0000007E00
0000007E00
0000007E00
0000007E00
0000007E00
0000007E00
0000007E00
007FF87E00
00FFFE7E00
03FFFFFE00
07FFFFFE00
07FFFFFE00
0FF81FFE00
1FE003FE00
1FC000FE00
3F80007E00
3F80007E00
3F00007E00
7F00007E00
7F00007E00
7F00007E00
7F00007E00
7E00007E00
7E00007E00
FE00007E00
FE00007E00
FE00007E00
FE00007E00
FE00007E00
FE00007E00
FE00007E00
FE00007E00
FE00007E00
7E00007E00
7E00007E00
7F00007E00
7F00007E00
7F00007E00
3F00007E00
3F8001FE00
3F8003FE00
1FC007FE00
1FE01FFF00
0FFDFFFF00
07FFFFBF80
07FFFF3F80
03FFFC1F80
00FFF81F00
007FC00C00
ENDCHAR
STARTCHAR 0065
ENCODING 101
SWIDTH 464 0
DWIDTH 39 0
BBX 31 42 4 -1
BITMAP
003FFC00
00FFFF00
01FFFF80
03FFFFC0
07FFFFE0
0FF01FF0
1FC007F8
1F8003F8
3F8001FC
3F0001FC
7F0001FC
7E0000FE
7E0000FE
FE0000FE
FE0000FE
FC0000FE
FC00007E
FFFFFFFE
FFFFFFFE
FFFFFFFE
FFFFFFFE
FFFFFFFE
FC000000
FC000000
FE000000
FE000000
FE000000
FE000000
FE000000
7F000000
7F000000
7F800000
3F800000
3FC00018
1FE00038
0FF801FC
0FFFDFFC
07FFFFFC
03FFFFFC
00FFFFF0
007FFFC0
000FFE00
ENDCHAR
STARTCHAR 0066
ENCODING 102
SWIDTH 309 0
DWIDTH 26 0
BBX 27 61 2 0
BITMAP
0001FC00
000FFF80
003FFFE0
007FFFE0
007FFFE0
00FFFFE0
00FE03C0
01FC0000
01FC0000
01F80000
01F80000
01F80000
01F80000
01F80000
01F80000
01F80000
01F80000
01F80000
01F80000
01F80000
01F80000
FFFFFFC0
FFFFFFC0
FFFFFF80
FFFFFF80
FFFFFF80
01F80000
01F80000
01F80000
01F80000
01F80000
01F80000
01F80000
01F80000
01F80000
01F80000
01F80000
01F80000
01F80000
01F80000
01F80000
01F80000
01F80000
01F80000
01F80000
01F80000
01F80000
01F80000
01F80000
01F80000
01F80000
01F80000
01F80000
01F80000
01F80000
01F80000
01F80000
01F80000
01F80000
01F80000
01F80000
ENDCHAR
STARTCHAR 0067
ENCODING 103
SWIDTH 500 0
DWIDTH 42 0
BBX 33 59 4 -17
BITMAP
003FF81E00
00FFFF1F00
01FFFFBF80
03FFFFFF80
07FFFFFF00
0FFC0FFF00
1FF003FF00
1FE000FE00
3FC000FE00
3F8000FE00
3F8000FE00
7F0000FE00
7F0000FE00
7F0000FE00
7F0000FE00
7E0000FE00
7E0000FE00
FE0000FE00
FE0000FE00
FE0000FE00
FE0000FE00
FE0000FE00
FE0000FE00
FE0000FE00
FE0000FE00
FE0000FE00
7F0000FE00
7F0000FE00
7F0000FE00
7F0000FE00
7F8000FE00
3F8003FE00
3FC007FE00
3FE03FFE00
1FFFFFFE00
0FFFFF7E00
0FFFFE7E00
03FFFC7E00
01FFF07E00
003F807E00
0000007E00
0000007E00
0000007E00
0000007E00
0000007E00
0000007E00
0000007E00
0000007E00
000000FE00
000000FE00
0E0001FC00
1F8003FC00
1FF00FF800
1FFFFFF800
3FFFFFF000
1FFFFFE000
03FFFF8000
007FFE0000
0001C00000
ENDCHAR
STARTCHAR 0068
ENCODING 104
SWIDTH 523 0
DWIDTH 44 0
BBX 30 61 7 0
BITMAP
0C000000
FC000000
FC000000
FC000000
FC000000
FC000000
FC000000
FC000000
FC000000
FC000000
FC000000
FC000000
FC000000
FC000000
FC000000
FC000000
FC000000
FC000000
FC000000
FC000000
FC03FF80
FC0FFFC0
FC3FFFE0
FC7FFFF0
FDFFFFF8
FFFE0FF8
FFF003F8
FFC003F8
FF8001F8
FE0001FC
FC0001FC
FC0001FC
FC0001FC
FC0001FC
FC0001FC
FC0001FC
FC0001FC
FC0001FC
FC0001FC
FC0001FC
FC0001FC
FC0001FC
FC0001FC
FC0001FC
FC0001FC
FC0001FC
FC0001FC
FC0001FC
FC0001FC
FC0001FC
FC0001FC
FC0001FC
FC0001FC
FC0001FC
FC0001FC
FC0001FC
FC0001FC
FC0001FC
FC0001FC
FC0001FC
FC0001FC
ENDCHAR
STARTCHAR 0069
ENCODING 105
SWIDTH 273 0
DWIDTH 23 0
BBX 15 60 2 1
BITMAP
01F8
03FE
03FE
07FE
07FE
07FE
07FE
03FE
03FC
00F8
0000
0000
0000
0000
0000
0000
0000
0000
0000
0000
FFFC
FFFC
FFFC
FFFC
FFFC
00FC
00FC
00FC
00FC
00FC
00FC
00FC
00FC
00FC
00FC
00FC
00FC
00FC
00FC
00FC
00FC
00FC
00FC
00FC
00FC
00FC
00FC
00FC
00FC
00FC
00FC
00FC
00FC
00FC
00FC
00FC
00FC
00FC
00FC
00FC
ENDCHAR
STARTCHAR 006A
ENCODING 106
SWIDTH 273 0
DWIDTH 23 0
BBX 24 78 -6 -17
BITMAP
0000FC
0001FE
0003FE
0003FF
0003FF
0003FF
0003FF
0003FE
0001FE
0000F8
000000
000000
000000
000000
000000
000000
000000
000000
000000
000000
00FFFC
00FFFC
00FFFC
00FFFC
007FFC
0000FC
0000FC
0000FC
0000FC
0000FC
0000FC
0000FC
0000FC
0000FC
0000FC
0000FC
0000FC
0000FC
0000FC
0000FC
0000FC
0000FC
0000FC
0000FC
0000FC
0000FC
0000FC
0000FC
0000FC
0000FC
0000FC
0000FC
0000FC
0000FC
0000FC
0000FC
0000FC
0000FC
0000FC
0000FC
0000FC
0000FC
0000FC
0000FC
0000FC
0000FC
0000FC
0000FC
0000FC
0001FC
7001FC
7E07F8
7FFFF8
FFFFF0
FFFFE0
7FFFC0
1FFF00
00F000
ENDCHAR
STARTCHAR 006B
ENCODING 107
SWIDTH 440 0
DWIDTH 37 0
BBX 28 62 7 -2
BITMAP
0C000000
FC000000
FC000000
FC000000
FC000000
FC000000
FC000000
FC000000
FC000000
FC000000
FC000000
FC000000
FC000000
FC000000
FC000000
FC000000
FC000000
FC000000
FC000000
FC000000
FC000380
FC0003E0
FC0007F0
FC000FF0
FC001FE0
FC003FC0
FC007F80
FC00FF00
FC01FE00
FC01FC00
FC03F800
FC07F000
FC0FF000
FC1FE000
FC3FC000
FC7F8000
FCFF0000
FDFE0000
FDFC0000
FFF80000
FFFC0000
FDFE0000
FCFF0000
FC7F8000
FC3F8000
FC3FC000
FC1FE000
FC0FF000
FC07F800
FC03F800
FC03FC00
FC01FE00
FC00FF00
FC007F80
FC003F80
FC003FC0
FC001FE0
FC000FF0
FC0007F0
FC0003F0
FC0001E0
000001C0
ENDCHAR
STARTCHAR 006C
ENCODING 108
SWIDTH 261 0
DWIDTH 22 0
BBX 16 62 6 -2
BITMAP
0C00
7E00
FE00
FE00
FE00
FE00
FE00
FE00
FE00
FE00
FE00
FE00
FE00
FE00
FE00
FE00
FE00
FE00
FE00
FE00
FE00
FE00
FE00
FE00
FE00
FE00
FE00
FE00
FE00
FE00
FE00
FE00
FE00
FE00
FE00
FE00
FE00
FE00
FE00
FE00
FE00
FE00
FE00
FE00
FE00
FE00
FE00
FE00
FE00
FE00
FE00
FE00
FE00
7E00
7E00
7F00
7F86
7FFF
3FFF
3FFF
1FFF
07FC
ENDCHAR
STARTCHAR 006D
ENCODING 109
SWIDTH 726 0
DWIDTH 61 0
BBX 48 41 6 1
BITMAP
3807FE007FE0
7C1FFF01FFF0
FC7FFF83FFF8
FCFFFFCFFFFC
FFFFFFDFFFFE
7FF83FFF83FE
7FE00FFE00FE
7F800FF800FE
7F0007F0007E
7F0007F0007F
7F0007F0007F
7F0007F0007F
7F0007F0007F
7F0007F0007F
7F0007F0007F
7F0007F0007F
7F0007F0007F
7F0007F0007F
7F0007F0007F
7F0007F0007F
7F0007F0007F
7F0007F0007F
7F0007F0007F
7F0007F0007F
7F0007F0007F
7F0007F0007F
7F0007F0007F
7F0007F0007F
7F0007F0007F
7F0007F0007F
7F0007F0007F
7F0007F0007F
7F0007F0007F
7F0007F0007F
7F0007F0007F
7F0007F0007F
7F0007F0007F
7F0007F0007F
7F0007F0007F
7F0007F0007F
7F0007F0007E
ENDCHAR
STARTCHAR 006E
ENCODING 110
SWIDTH 523 0
DWIDTH 44 0
BBX 31 42 6 0
BITMAP
08000000
1C01FFC0
7C07FFE0
FC1FFFF0
FE7FFFF8
FEFFFFFC
7FFF07FC
7FF801FC
7FE001FC
7FC000FC
7F8000FE
7F0000FE
7F0000FE
7F0000FE
7F0000FE
7F0000FE
7F0000FE
7F0000FE
7F0000FE
7F0000FE
7F0000FE
7F0000FE
7F0000FE
7F0000FE
7F0000FE
7F0000FE
7F0000FE
7F0000FE
7F0000FE
7F0000FE
7F0000FE
7F0000FE
7F0000FE
7F0000FE
7F0000FE
7F0000FE
7F0000FE
7F0000FE
7F0000FE
7F0000FE
7F0000FE
7F0000FE
ENDCHAR
STARTCHAR 006F
ENCODING 111
SWIDTH 500 0
DWIDTH 42 0
BBX 34 42 4 -1
BITMAP
001FFE0000
007FFF8000
01FFFFE000
03FFFFF000
07FFFFF800
0FF807FC00
0FF003FC00
1FE001FE00
1FC000FE00
3F80007F00
3F80007F00
3F00003F80
7F00003F80
7F00003F80
7F00003F80
7E00003F80
7E00001F80
FE00001FC0
FE00001FC0
FE00001FC0
FE00001FC0
FE00001FC0
FE00001FC0
FE00001FC0
FE00001FC0
7E00001F80
7F00003F80
7F00003F80
7F00003F80
7F00003F80
7F80007F00
3F80007F00
3F80007F00
1FC000FE00
1FE001FE00
0FF003FC00
0FFC0FF800
07FFFFF000
03FFFFE000
01FFFFC000
007FFF0000
000FFC0000
ENDCHAR
STARTCHAR 0070
ENCODING 112
SWIDTH 500 0
DWIDTH 42 0
BBX 33 59 5 -17
BITMAP
1C01FF8000
7E0FFFC000
FE1FFFF000
FE7FFFF000
7FFFFFF800
3FFF07FC00
3FF801FC00
3FE000FE00
3FC000FE00
3F80007F00
1F80007F00
1F80003F00
1F80003F00
1F80003F80
1F80003F80
1F80003F80
1F80003F80
1F80003F80
1F80003F80
1F80003F80
1F80003F80
1F80003F80
1F80003F80
1F80003F80
1F80003F80
1F80003F80
1F80003F80
1F80003F80
1F80003F00
1F80003F00
1F80007F00
1F80007F00
1F80007E00
1F8000FE00
1FC001FC00
1FF803FC00
1FFFDFF800
1FFFFFF800
1FFFFFF000
1FFFFFE000
1F9FFF8000
1F83FE0000
1F80000000
1F80000000
1F80000000
1F80000000
1F80000000
1F80000000
1F80000000
1F80000000
1F80000000
1F80000000
1F80000000
1F80000000
1F80000000
1F80000000
1F80000000
1F00000000
1000000000
ENDCHAR
STARTCHAR 0071
ENCODING 113
SWIDTH 476 0
DWIDTH 40 0
BBX 33 59 4 -17
BITMAP
003FF81C00
00FFFE1F00
01FFFF3F80
03FFFFFF00
07FFFFFF00
0FFC1FFF00
0FE007FE00
1FC001FE00
3FC000FE00
3F8000FE00
3F8000FE00
7F0000FE00
7F0000FE00
7F0000FE00
7E0000FE00
FE0000FE00
FE0000FE00
FE0000FE00
FE0000FE00
FE0000FE00
FE0000FE00
FE0000FE00
FE0000FE00
FE0000FE00
FE0000FE00
FE0000FE00
7E0000FE00
7F0000FE00
7F0000FE00
7F0000FE00
7F0000FE00
3F8000FE00
3F8001FE00
3FC003FE00
1FC007FE00
1FF01FFE00
0FFFFFFE00
07FFFFFE00
07FFFEFE00
03FFF8FE00
00FFF0FE00
003FC0FE00
000000FE00
000000FE00
000000FE00
000000FE00
000000FE00
000000FE00
000000FE00
000000FE00
000000FE00
000000FE00
000000FE00
000000FE00
000000FE00
000000FE00
000000FE00
000000FC00
0000004000
ENDCHAR
STARTCHAR 0072
ENCODING 114
SWIDTH 309 0
DWIDTH 26 0
BBX 22 41 5 1
BITMAP
1C03FC
7C0FFC
FC1FF8
FE3FF8
7E7FF0
7EFFF0
7FFC00
3FF800
3FF000
3FE000
3FC000
3F8000
3F8000
3F8000
3F8000
3F8000
3F8000
3F8000
3F8000
3F8000
3F8000
3F8000
3F8000
3F8000
3F8000
3F8000
3F8000
3F8000
3F8000
3F8000
3F8000
3F8000
3F8000
3F8000
3F8000
3F8000
3F8000
3F8000
3F8000
3F8000
3F0000
ENDCHAR
STARTCHAR 0073
ENCODING 115
SWIDTH 392 0
DWIDTH 33 0
BBX 26 42 3 -1
BITMAP
00FFF000
03FFFE00
07FFFF00
0FFFFF00
1FFFFF00
1FE03F00
3F800E00
3F000000
7F000000
7F000000
7F000000
7F000000
7F000000
7F000000
3F800000
3FC00000
1FF00000
1FFC0000
0FFF0000
07FFC000
01FFF000
007FF800
001FFE00
0007FF00
0001FF00
0000FF80
00003F80
00001FC0
00001FC0
00000FC0
00000FC0
00000FC0
00000FC0
00001FC0
70001F80
7C003F80
7FE1FF00
FFFFFF00
FFFFFE00
7FFFFC00
0FFFF000
00FFC000
ENDCHAR
STARTCHAR 0074
ENCODING 116
SWIDTH 357 0
DWIDTH 30 0
BBX 28 55 1 -1
BITMAP
001C0000
00FC0000
01FC0000
01FC0000
01FC0000
01FC0000
01FC0000
01FC0000
01FC0000
01FC0000
01FC0000
01FC0000
01FC0000
01FC0000
FFFFFFE0
FFFFFFE0
FFFFFFC0
FFFFFFC0
7FFFFFC0
01FC0000
01FC0000
01FC0000
01FC0000
01FC0000
01FC0000
01FC0000
01FC0000
01FC0000
01FC0000
01FC0000
01FC0000
01FC0000
01FC0000
01FC0000
01FC0000
01FC0000
01FC0000
01FC0000
01FC0000
01FC0000
01FC0000
01FC0000
01FC0000
01FC0000
01FC0000
01FC0000
01FC0000
00FC0020
00FE00F0
00FFDFF0
007FFFF0
007FFFF0
003FFFF0
001FFFC0
0007FE00
ENDCHAR
STARTCHAR 0075
ENCODING 117
SWIDTH 500 0
DWIDTH 42 0
BBX 32 43 6 -2
BITMAP
00000008
7E0000F8
FE0001F8
FE0001F8
FE0001F8
FE0001F8
FE0001F8
FE0001F8
FE0001F8
FE0001F8
FE0001F8
FE0001F8
FE0001F8
FE0001F8
FE0001F8
FE0001F8
FE0001F8
FE0001F8
FE0001F8
FE0001F8
FE0001F8
FE0001F8
FE0001F8
FE0001F8
FE0001F8
FE0001F8
FE0001F8
FE0001F8
FE0001F8
FE0001F8
FE0001F8
FE0001F8
FE0001F8
FE0001F8
FE0007FC
7F000FFC
7F807FFC
7FFBFFFE
3FFFFFFE
3FFFFC7F
1FFFF87F
07FFE03C
01FF8038
ENDCHAR
STARTCHAR 0076
ENCODING 118
SWIDTH 440 0
DWIDTH 37 0
BBX 35 42 2 -1
BITMAP
0C00000600
FC00000FC0
FE00000FE0
FE00001FC0
7E00001FC0
7F00001F80
7F00003F80
3F00003F80
3F80003F00
3F80007F00
1F80007E00
1FC0007E00
0FC000FE00
0FC000FC00
0FE001FC00
07E001F800
07E001F800
07F003F800
03F003F000
03F003F000
03F807E000
01F807E000
01F807E000
00FC0FC000
00FC0FC000
00FC1F8000
007E1F8000
007E1F8000
007E3F0000
003F3F0000
003F3E0000
001F7E0000
001FFE0000
001FFC0000
000FFC0000
000FF80000
000FF80000
0007F80000
0007F00000
0007F00000
0003E00000
0001E00000
ENDCHAR
STARTCHAR 0077
ENCODING 119
SWIDTH 630 0
DWIDTH 53 0
BBX 48 42 3 -1
BITMAP
0C0000000038
FC0003E0003F
FC0007E0003F
FC0007F0003F
7E0007F0007E
7E000FF0007E
7E000FF0007E
7E000FF8007E
3E000FF800FC
3F001FF800FC
3F001FF800FC
3F001FFC00F8
1F003E7C01F8
1F003E7C01F8
1F803E7C01F8
1F803E7C01F0
0F807C7E03F0
0F807C3E03F0
0FC07C3E03E0
0FC0F83E03E0
07C0F83F07E0
07C0F81F07E0
07C1F01F07C0
07E1F01F07C0
03E1F01F8FC0
03E1F00F8F80
03E3E00F8F80
03F3E00F8F80
01F3E007DF80
01F7C007DF00
01F7C007DF00
01F7C007DF00
00FF8003DE00
00FF8003FE00
00FF8003FE00
00FF0003FE00
007F0001FC00
007F0001FC00
007F0001FC00
007E0001F800
003E0000F800
003C00007000
ENDCHAR
STARTCHAR 0078
ENCODING 120
SWIDTH 440 0
DWIDTH 37 0
BBX 34 42 1 -1
BITMAP
0300000C00
1F80001F00
3F80001FC0
3FC0003F80
1FE0007F80
0FE000FF00
07F000FE00
07F001FC00
03F803FC00
01FC03F800
01FC07F000
00FE0FE000
007F0FE000
007F1FC000
003FBF8000
001FFF0000
000FFF0000
000FFE0000
0007FC0000
0003F80000
0003FC0000
0003FC0000
0007FE0000
000FFF0000
001FFF0000
003FBF8000
003F9FC000
007F1FC000
00FE0FE000
01FC07F000
01FC07F800
03F803F800
07F001FC00
0FF001FE00
1FE000FE00
1FC0007F00
3F80007F80
7F80003F80
FF00001FC0
FE00001FC0
3E00000F00
0400000400
ENDCHAR
STARTCHAR 0079
ENCODING 121
SWIDTH 440 0
DWIDTH 37 0
BBX 36 59 0 -18
BITMAP
0600000300
1F000003C0
7F000007F0
7F800007F0
3F800007F0
3F80000FE0
1FC0000FE0
1FC0000FE0
1FC0000FC0
0FE0001FC0
0FE0001FC0
0FE0001FC0
07F0001F80
07F0003F80
07F0003F80
03F8003F00
03F8003F00
03F8007F00
01FC007E00
01FC007E00
00FC007E00
00FE00FE00
00FE00FC00
007E00FC00
007F01FC00
007F01F800
003F01F800
003F81F800
003F83F000
001F83F000
001FC3F000
001FC3F000
000FC7E000
000FE7E000
000FE7E000
0007E7C000
0007EFC000
0003FFC000
0003FF8000
0003FF8000
0001FF8000
00003F8000
00003F0000
00003F0000
00007F0000
00007E0000
00007E0000
0000FE0000
0000FC0000
0000FC0000
2001F80000
7803F80000
7E07F80000
FFFFF00000
FFFFE00000
7FFFE00000
3FFF800000
07FF000000
0070000000
ENDCHAR
STARTCHAR 007A
ENCODING 122
SWIDTH 404 0
DWIDTH 34 0
BBX 30 40 3 1
BITMAP
7FFFFFF8
7FFFFFF8
7FFFFFF8
7FFFFFF8
3FFFFFF8
000007F0
00000FE0
00001FE0
00001FC0
00003F80
00007F00
0000FF00
0000FE00
0001FC00
0003FC00
0003F800
0007F000
000FF000
000FE000
001FC000
003FC000
003F8000
007F0000
00FF0000
01FE0000
01FC0000
03F80000
07F80000
07F00000
0FE00000
1FE00000
1FC00000
3F800000
7F800000
7F000000
FFFFFFFC
FFFFFFF8
FFFFFFF8
FFFFFFF0
FFFFFFF0
ENDCHAR
STARTCHAR 007B
ENCODING 123
SWIDTH 428 0
DWIDTH 36 0
BBX 27 77 5 -16
BITMAP
00003FE0
0000FFE0
0003FFE0
0007FFE0
000FFFE0
000FF800
001FE000
001FC000
001FC000
001F8000
001F8000
003F8000
003F8000
003F8000
003F8000
003F8000
003F8000
003F8000
003F8000
003F8000
003F8000
003F8000
003F8000
003F8000
003F8000
003F8000
003F8000
003F8000
003F8000
003F8000
003F8000
003F0000
007F0000
00FF0000
01FE0000
FFFC0000
FFF80000
FFE00000
FFF00000
FFFC0000
0FFE0000
00FF0000
007F0000
007F0000
003F8000
003F8000
003F8000
003F8000
003F8000
003F8000
003F8000
003F8000
003F8000
003F8000
003F8000
003F8000
003F8000
003F8000
003F8000
003F8000
003F8000
003F8000
003F8000
003F8000
003F8000
003F8000
001F8000
001F8000
001FC000
001FC000
001FE000
000FFC00
0007FFE0
0007FFE0
0001FFE0
0000FFE0
00001FE0
ENDCHAR
STARTCHAR 007C
ENCODING 124
SWIDTH 309 0
DWIDTH 26 0
BBX 6 84 10 -21
BITMAP
FC
FC
FC
FC
FC
FC
FC
FC
FC
FC
FC
FC
FC
FC
FC
FC
FC
FC
FC
FC
FC
FC
FC
FC
FC
FC
FC
FC
FC
FC
FC
FC
FC
FC
FC
FC
FC
FC
FC
FC
FC
FC
FC
FC
FC
FC
FC
FC
FC
FC
FC
FC
FC
FC
FC
FC
FC
FC
FC
FC
FC
FC
FC
FC
FC
FC
FC
FC
FC
FC
FC
FC
FC
FC
FC
FC
FC
FC
FC
FC
FC
FC
FC
FC
ENDCHAR
STARTCHAR 007D
ENCODING 125
SWIDTH 428 0
DWIDTH 36 0
BBX 27 77 4 -16
BITMAP
FF000000
FFE00000
FFF80000
FFFC0000
FFFC0000
03FE0000
00FE0000
007F0000
007F0000
003F0000
003F0000
003F0000
003F0000
003F0000
003F0000
003F0000
003F0000
003F0000
003F0000
003F0000
003F0000
003F0000
003F0000
003F0000
003F0000
003F0000
003F0000
003F0000
003F0000
003F0000
003F0000
003F8000
003F8000
003F8000
001FC000
001FE000
000FFFC0
0007FFE0
0001FFE0
0001FFE0
0007FFE0
000FFFC0
001FF000
001FC000
001F8000
003F8000
003F8000
003F0000
003F0000
003F0000
003F0000
003F0000
003F0000
003F0000
003F0000
003F0000
003F0000
003F0000
003F0000
003F0000
003F0000
003F0000
003F0000
003F0000
003F0000
003F0000
003F0000
007F0000
007F0000
00FF0000
01FE0000
0FFE0000
FFFC0000
FFF80000
FFF00000
FFE00000
FE000000
ENDCHAR
STARTCHAR 007E
ENCODING 126
SWIDTH 500 0
DWIDTH 42 0
BBX 44 15 -1 14
BITMAP
00FE00000000
03FF800000F0
07FFE00000F0
0FFFF80001E0
1FFFFE0001E0
3FFFFF8001E0
3F07FFC003E0
3E00FFF007E0
7C003FFE0FC0
78001FFFFFC0
780007FFFF80
780001FFFF00
F00000FFFE00
F000003FFC00
00000007F000
ENDCHAR
STARTCHAR 00A0
ENCODING 160
SWIDTH 297 0
DWIDTH 25 0
BBX 0 0 0 0
BITMAP
ENDCHAR
STARTCHAR 00A1
ENCODING 161
SWIDTH 333 0
DWIDTH 28 0
BBX 12 58 8 -16
BITMAP
3FC0
7FE0
7FE0
FFF0
FFF0
FFF0
FFF0
FFF0
7FE0
7FE0
1FC0
0000
0000
0000
0000
0000
0000
0000
0000
0000
0000
0000
0000
0F00
0F00
1F00
1F00
1F00
1F80
1F80
1F80
1F80
1F80
1F80
1F80
1F80
1F80
1F80
1F80
1F80
1F80
1F80
3F80
3F80
3F80
3F80
3FC0
3FC0
3FC0
3FC0
3FC0
3FC0
3FC0
3FC0
3FC0
3FC0
3FC0
3FC0
ENDCHAR
STARTCHAR 00A2
ENCODING 162
SWIDTH 500 0
DWIDTH 42 0
BBX 29 53 7 0
BITMAP
0001E000
0001E000
0001E000
0001E000
0001E000
0007F800
003FFF80
007FFFE0
01FFFFF8
03FFFFF8
07FFFFF8
0FF9E3F0
0FE1E0F0
1FC1E020
1F81E000
3F81E000
3F01E000
7F01E000
7E01E000
7E01E000
7E01E000
FE01E000
FE01E000
FE01E000
FC01E000
FC01E000
FC01E000
FC01E000
FC01E000
FE01E000
FE01E000
FE01E000
FE01E000
7E01E000
7E01E000
7F01E000
7F01E000
3F81E000
3F81E000
3FC1E070
1FF1E1F0
0FFDEFF0
0FFFFFF8
07FFFFF8
03FFFFF0
00FFFFC0
003FFE00
0003E000
0001E000
0001E000
0001E000
0001E000
0001E000
ENDCHAR
STARTCHAR 00A3
ENCODING 163
SWIDTH 500 0
DWIDTH 42 0
BBX 39 55 2 1
BITMAP
00003FFC00
0001FFFF80
0007FFFFE0
000FFFFFF0
001FFFFFF0
003FFEFFF0
007FC003E0
00FF0000E0
00FE000000
01FC000000
01FC000000
01F8000000
01F8000000
01F8000000
03F8000000
03F8000000
01F8000000
01F8000000
01F8000000
01F8000000
01F8000000
01FC000000
00FC000000
00FC000000
FFFFFFE000
FFFFFFE000
FFFFFFE000
FFFFFFE000
FFFFFFE000
007E000000
007F000000
003F000000
003F000000
003F000000
003F000000
003F800000
003F800000
003F800000
003F800000
003F800000
003F800000
003F800000
003F800000
003F800000
003F800000
003F000000
003F000000
003F000000
007F000000
007F000000
7FFFFFFFFE
7FFFFFFFFE
7FFFFFFFFE
7FFFFFFFFC
7FFFFFFFFC
ENDCHAR
STARTCHAR 00A4
ENCODING 164
SWIDTH 500 0
DWIDTH 42 0
BBX 40 39 1 10
BITMAP
300000000C
78007E001E
FC07FFE03E
7E1FFFF87C
3F7FFFFCF8
1FFE007FF0
0FF8001FE0
07E0000FC0
07C00003E0
07800001E0
0F000000F0
0F000000F0
1E00000078
1E00000078
3C00000038
3C0000003C
3C0000003C
380000003C
380000001C
380000001C
380000001C
380000003C
3C0000003C
3C0000003C
3C00000038
1E00000078
1E00000078
1F000000F0
0F000001F0
07800001E0
07C00003C0
07F0000FE0
0FF8001FF0
1FFF00FFF8
3E3FFFFC7C
7C1FFFF83E
F803FFC01F
700000000E
2000000004
ENDCHAR
STARTCHAR 00A5
ENCODING 165
SWIDTH 500 0
DWIDTH 42 0
BBX 40 58 1 1
BITMAP
0F000000F0
3F000001FC
3F800001FC
3F800001FC
1FC00003F8
1FC00003F8
0FE00007F0
0FE00007F0
07F0000FE0
07F0000FE0
03F8000FC0
03F8001FC0
01FC001F80
01FC003F80
00FE003F80
00FE003F00
007E007F00
007F007E00
007F00FE00
003F80FC00
003F81FC00
001FC1F800
001FC1F800
000FE3F000
7FFFE3FFFE
FFFFF7FFFF
FFFFF7FFFF
FFFFFFFFFF
0003FFC000
0001FFC000
0001FF8000
0000FF8000
0000FF0000
00007F0000
FFFFFFFFFF
FFFFFFFFFF
FFFFFFFFFF
00007F0000
00007F0000
00007F0000
00007F0000
00007F0000
00007F0000
00007F0000
00007F0000
00007F0000
00007F0000
00007F0000
00007F0000
00007F0000
00007F0000
00007F0000
00007F0000
00007F0000
00007F0000
00007F0000
00007F0000
00007F0000
ENDCHAR
STARTCHAR 00A6
ENCODING 166
SWIDTH 309 0
DWIDTH 26 0
BBX 6 72 10 -15
BITMAP
F8
FC
FC
FC
FC
FC
FC
FC
FC
FC
FC
FC
FC
FC
FC
FC
FC
FC
FC
FC
FC
FC
FC
FC
FC
FC
FC
FC
FC
FC
00
00
00
00
00
00
00
00
00
00
00
00
FC
FC
FC
FC
FC
FC
FC
FC
FC
FC
FC
FC
FC
FC
FC
FC
FC
FC
FC
FC
FC
FC
FC
FC
FC
FC
FC
FC
FC
F8
ENDCHAR
STARTCHAR 00A7
ENCODING 167
SWIDTH 500 0
DWIDTH 42 0
BBX 28 68 7 -9
BITMAP
000F8000
007FFC00
01FFFF00
07FFFF80
0FFFFFC0
1FFFFF80
1FE03F80
3FC00700
3F800300
3F000000
3F000000
3F000000
3F000000
3F800000
3FC00000
3FE00000
1FF00000
0FFC0000
07FF0000
03FFC000
00FFF000
007FFC00
01FFFE00
03FFFF00
0FF1FF80
1FE07FC0
3FC03FE0
3F001FE0
7F000FF0
7E0007F0
FE0003F0
FC0003F0
FC0003F0
FC0003F0
FC0003F0
FC0007F0
FE0007E0
FE000FE0
FF001FC0
7F803F80
7FE07F80
3FF9FE00
1FFFFC00
07FFF800
03FFE000
00FFF000
003FF800
000FFE00
0003FF00
0001FF80
00007F80
00003FC0
00001FC0
00001FE0
00000FE0
00000FE0
00000FE0
00000FE0
70001FC0
78001FC0
FE003FC0
FFC0FF80
FFFFFF00
FFFFFE00
3FFFFC00
0FFFF800
01FFE000
000C0000
ENDCHAR
STARTCHAR 00A8
ENCODING 168
SWIDTH 309 0
DWIDTH 26 0
BBX 25 9 0 49
BITMAP
7E003F00
FF007F80
FF807F80
FF80FF80
FF80FF80
FF80FF80
FF007F80
7F007F00
18000C00
ENDCHAR
STARTCHAR 00A9
ENCODING 169
SWIDTH 559 0
DWIDTH 47 0
BBX 39 40 4 19
BITMAP
00007C0000
000FFFC000
003FFFF000
007F03FC00
01F8003E00
03E0000F80
07800007C0
0F000003E0
1E000801E0
1C01FF80F0
3C03FFE078
780FFFF038
700F81F03C
701E00601C
E03C00001C
E03C00000E
E07800000E
E07800000E
E07800000E
E07000000E
E07000000E
E07800000E
E07800000E
E07800000E
E03C00000E
E03E00401C
701F00E01C
700FFFF03C
7807FFE038
3801FFC078
1C007F00F0
1E000000E0
0F000001E0
07800007C0
03E0000F80
01F8003F00
00FF01FC00
003FFFF800
000FFFC000
0000FC0000
ENDCHAR
STARTCHAR 00AA
ENCODING 170
SWIDTH 428 0
DWIDTH 36 0
BBX 23 28 6 27
BITMAP
03FF80
1FFFE0
3FFFF0
3FFFF0
3FFFF8
1803F8
0001F8
0001F8
0000F8
0000F8
0007F8
01FFF8
07FFF8
0FFFF8
3FF8F8
3F80F8
7F00F8
7E00F8
7C00F8
FC00F8
FC00F8
FC01F8
7C03F8
7E1FFC
7FFFFC
3FFE7E
3FFC7C
0FF030
ENDCHAR
STARTCHAR 00AB
ENCODING 171
SWIDTH 476 0
DWIDTH 40 0
BBX 35 38 2 2
BITMAP
0003800300
0007E007C0
0007E00FC0
000FC01FC0
001FC01F80
003F803F00
007F007F00
007F00FE00
00FE01FC00
01FC01FC00
03FC03F800
07F807F000
07F00FF000
0FF01FE000
1FE01FC000
3FC03FC000
7F807F8000
7F80FF0000
FF01FF0000
FF00FF0000
7F80FF0000
3FC07F8000
1FC03FC000
1FE01FC000
0FF00FE000
07F00FF000
03F807F800
03FC03F800
01FC01FC00
00FE00FE00
007F00FE00
003F007F00
003F803F80
001FC01F80
000FC00FC0
0007E00FE0
0003C007C0
0003000300
ENDCHAR
STARTCHAR 00AC
ENCODING 172
SWIDTH 500 0
DWIDTH 42 0
BBX 38 17 2 13
BITMAP
FFFFFFFFFC
FFFFFFFFFC
FFFFFFFFFC
FFFFFFFFFC
FFFFFFFFFC
FFFFFFFFFC
00000000FC
00000000FC
00000000FC
00000000FC
00000000FC
00000000FC
00000000FC
00000000FC
00000000FC
00000000FC
00000000FC
ENDCHAR
STARTCHAR 00AD
ENCODING 173
SWIDTH 357 0
DWIDTH 30 0
BBX 21 7 4 18
BITMAP
7FFFF0
FFFFF8
FFFFF8
FFFFF8
FFFFF8
FFFFF8
7FFFF8
ENDCHAR
STARTCHAR 00AE
ENCODING 174
SWIDTH 559 0
DWIDTH 47 0
BBX 39 40 4 19
BITMAP
00007C0000
000FFFC000
003FFFF000
007F03FC00
01F8003E00
03E0000F80
07800007C0
0F000003E0
1E000001E0
1C0FFE00F0
3C0FFF8078
780FFFC038
700FFFE03C
700F01E01C
E00F01E01C
E00F01E00E
E00F01E00E
E00F01E00E
E00FFFE00E
E00FFFC00E
E00FFF800E
E00FFF000E
E00F07000E
E00F07800E
E00F07800E
E00F03C01C
700F03C01C
700F03E03C
780F01E038
380F01E078
1C000000F0
1E000000E0
0F000001E0
07800007C0
03E0000F80
01F8003F00
00FF01FC00
003FFFF800
000FFFC000
0000FC0000
ENDCHAR
STARTCHAR 00AF
ENCODING 175
SWIDTH 309 0
DWIDTH 26 0
BBX 20 5 3 51
BITMAP
FFFFF0
FFFFF0
FFFFF0
FFFFF0
FFFFF0
ENDCHAR
STARTCHAR 00B0
ENCODING 176
SWIDTH 500 0
DWIDTH 42 0
BBX 26 26 8 31
BITMAP
00080000
00FFC000
03FFF000
07FFF800
0FFFFC00
1FFFFE00
3FC0FF00
7F003F80
7E001F80
7C000F80
FC000FC0
F8000FC0
F80007C0
F80007C0
F80007C0
FC000FC0
FC000FC0
7C001F80
7E001F80
7F003F00
3FC0FF00
1FFFFE00
0FFFFC00
07FFF800
03FFF000
00FFC000
ENDCHAR
STARTCHAR 00B1
ENCODING 177
SWIDTH 500 0
DWIDTH 42 0
BBX 38 44 2 -4
BITMAP
0000FC0000
0000FC0000
0000FC0000
0000FC0000
0000FC0000
0000FC0000
0000FC0000
0000FC0000
0000FC0000
0000FC0000
0000FC0000
0000FC0000
0000FC0000
0000FC0000
0000FC0000
0000FC0000
FFFFFFFFFC
FFFFFFFFFC
FFFFFFFFFC
FFFFFFFFFC
FFFFFFFFFC
FFFFFFFFF8
0000FC0000
0000FC0000
0000FC0000
0000FC0000
0000FC0000
0000FC0000
0000FC0000
0000FC0000
0000FC0000
0000FC0000
0000FC0000
0000FC0000
0000FC0000
0000000000
0000000000
0000000000
FFFFFFFFFC
FFFFFFFFFC
FFFFFFFFFC
FFFFFFFFFC
FFFFFFFFFC
FFFFFFFFFC
ENDCHAR
STARTCHAR 00B2
ENCODING 178
SWIDTH 357 0
DWIDTH 30 0
BBX 20 34 5 21
BITMAP
00F800
07FF00
1FFFC0
3FFFC0
7FFFE0
7F07E0
FC03F0
FC03F0
F803F0
F803F0
0003F0
0003F0
0007E0
000FE0
001FC0
007FC0
00FF80
03FF00
07FC00
0FF800
1FE000
3FC000
3F8000
7F0000
7E0000
FC0000
FC0000
FC0000
FFFFE0
FFFFF0
FFFFF0
FFFFF0
FFFFF0
7FFFE0
ENDCHAR
STARTCHAR 00B3
ENCODING 179
SWIDTH 357 0
DWIDTH 30 0
BBX 22 34 3 20
BITMAP
007800
07FF00
1FFFC0
3FFFE0
7FFFE0
7F03F0
3C01F0
1801F8
0001F8
0001F8
0001F8
0001F0
0003F0
000FE0
03FFC0
03FF80
03FF80
03FFE0
03FFF0
0003F8
0001F8
0000F8
0000FC
0000FC
0000FC
0000FC
0000FC
0001F8
6003F8
7E1FF8
FFFFF0
FFFFE0
7FFFC0
1FFE00
ENDCHAR
STARTCHAR 00B4
ENCODING 180
SWIDTH 309 0
DWIDTH 26 0
BBX 18 13 4 47
BITMAP
000E00
001F00
003F00
007F80
01FFC0
03FF80
07FE00
1FF800
3FE000
7F8000
FE0000
780000
200000
ENDCHAR
STARTCHAR 00B5
ENCODING 181
SWIDTH 559 0
DWIDTH 47 0
BBX 32 58 6 -17
BITMAP
3C000078
FE0001F8
FE0001F8
FE0001F8
FE0001F8
FE0001F8
FE0001F8
FE0001F8
FE0001F8
FE0001F8
FE0001F8
FE0001F8
FE0001F8
FE0001F8
FE0001F8
FE0001F8
FE0001F8
FE0001F8
FE0001F8
FE0001F8
FE0001F8
FE0001F8
FE0001F8
FE0001F8
FE0001F8
FE0001F8
FE0001F8
FE0001F8
FE0001F8
FE0001F8
FE0001F8
FE0001F8
FE0007FC
FF000FFC
FF807FFC
FFFBFFFE
FFFFFFFE
FFFFFC7F
FFFFF87F
FFFFE03C
FE7F8038
FE000000
FE000000
FE000000
FE000000
FE000000
FE000000
FE000000
FE000000
FE000000
FE000000
FE000000
FE000000
FE000000
FE000000
FE000000
FC000000
40000000
ENDCHAR
STARTCHAR 00B6
ENCODING 182
SWIDTH 607 0
DWIDTH 51 0
BBX 46 74 3 -16
BITMAP
00001FFFFFF8
000FFFFFFFFC
007FFFFFFFFC
01FFFFFFFFFC
03FFFFFFFFFC
07FFFFFFFFFC
0FFE03F07E00
0FF003F07E00
1FE003F07E00
1FC003F07E00
3F8003F07E00
3F8003F07E00
7F8003F07E00
7F0003F07E00
7F0003F07E00
7F0003F07E00
7F0003F07E00
FF0003F07E00
FF0003F07E00
FF0003F07E00
FF0003F07E00
FF0003F07E00
FF0003F07E00
FF0003F07E00
FF0003F07E00
FF0003F07E00
FF0003F07E00
7F0003F07E00
7F0003F07E00
7F0003F07E00
7F0003F07E00
7F8003F07E00
7F8003F07E00
3F8003F07E00
3FC003F07E00
1FE003F07E00
1FF003F07E00
0FF803F07E00
0FFFFFF07E00
07FFFFF07E00
03FFFFF07E00
01FFFFF07E00
007FFFF07E00
000FFBF07E00
000003F07E00
000003F07E00
000003F07E00
000003F07E00
000003F07E00
000003F07E00
000003F07E00
000003F07E00
000003F07E00
000003F07E00
000003F07E00
000003F07E00
000003F07E00
000003F07E00
000003F07E00
000003F07E00
000003F07E00
000003F07E00
000003F07E00
000003F07E00
000003F07E00
000003F07E00
000003F07E00
000003F07E00
000003F07E00
000003F07E00
000003F07E00
000003F07E00
000003F07E00
000001E03C00
ENDCHAR
STARTCHAR 00B7
ENCODING 183
SWIDTH 500 0
DWIDTH 42 0
BBX 10 10 16 17
BITMAP
7F80
7F80
FFC0
FFC0
FFC0
FFC0
FFC0
FFC0
7F80
1E00
ENDCHAR
STARTCHAR 00B8
ENCODING 184
SWIDTH 309 0
DWIDTH 26 0
BBX 14 17 6 -16
BITMAP
1F00
1F00
1F00
1E00
3E00
3FE0
3FF8
3FF8
01FC
007C
007C
00FC
FFF8
FFF8
FFF0
FFC0
0C00
ENDCHAR
STARTCHAR 00B9
ENCODING 185
SWIDTH 357 0
DWIDTH 30 0
BBX 21 33 4 22
BITMAP
003E00
00FE00
01FE00
07FE00
0FFE00
3FFE00
FF3E00
FC3E00
783E00
003E00
003E00
003E00
003E00
003E00
003E00
003E00
003E00
003E00
003E00
003E00
003E00
003E00
003E00
003E00
003E00
003E00
003E00
003E00
0FFFF0
1FFFF8
1FFFF8
1FFFF8
0FFFF0
ENDCHAR
STARTCHAR 00BA
ENCODING 186
SWIDTH 404 0
DWIDTH 34 0
BBX 22 28 6 27
BITMAP
01FE00
07FF80
0FFFE0
1FFFF0
3F87F0
3F03F8
7E01F8
7C00FC
FC00FC
FC00FC
FC007C
FC007C
F8007C
F8007C
F8007C
F8007C
FC007C
FC007C
FC00FC
FC00FC
7C00F8
7E01F8
7F01F8
3F87F0
1FFFE0
1FFFC0
07FF80
01FE00
ENDCHAR
STARTCHAR 00BB
ENCODING 187
SWIDTH 476 0
DWIDTH 40 0
BBX 34 38 4 2
BITMAP
3800300000
F800F80000
FC00FC0000
7E00FE0000
7F007E0000
3F803F0000
1F803F8000
1FC01FC000
0FE00FE000
07F00FE000
07F807F000
03F803F800
01FC03FC00
01FE01FC00
00FF00FE00
007F80FF00
007F807F80
003FC03FC0
001FE03FC0
001FE03FC0
003FC07FC0
007F807F80
007F00FF00
00FF01FE00
01FE01FC00
01FC03FC00
03F807F800
07F007F000
0FF00FE000
0FE01FC000
1FC01FC000
3F803F8000
3F007F0000
7F007E0000
FE00FC0000
FC01FC0000
7800F80000
1000300000
ENDCHAR
STARTCHAR 00BC
ENCODING 188
SWIDTH 833 0
DWIDTH 70 0
BBX 60 56 5 -1
BITMAP
000000001F800000
003C00001F800000
00FE00003F000000
03FE00003F000000
07FE00003F000000
1FFE00003E000000
7FFE00007E000000
FF7E00007E000000
FC7E00007C000000
F07E0000FC000000
407E0000FC000000
007E0000FC000000
007E0001F8000000
007E0001F8000000
007E0001F8000000
007E0003F0000000
007E0003F0000000
007E0003F0000000
007E0003E0000000
007E0007E0000000
007E0007E0000000
007E0007C0000000
007E000FC0000000
007E000FC0007C00
007E000FC000FC00
007E001F8001F800
007E001F8001F800
007E001F8003F000
007E003F0007E000
1FFFF03F0007E000
1FFFF03F000FC000
1FFFF03E001F8000
1FFFF07E001F0000
0FFFE07E003F0000
0000007C007E0000
000000FC00FC0000
000000FC00FC3C00
000000FC01F83C00
000001F803F03C00
000001F803F07C00
000001F807E07C00
000003F00FC07C00
000003F00FC07C00
000003F01F807C00
000003E03FFFFFE0
000007E03FFFFFF0
000007E03FFFFFF0
000007C03FFFFFF0
00000FC01FFFFFE0
00000FC000007C00
00000FC000007C00
00001F8000007C00
00001F8000007C00
00001F8000007C00
00003F0000007C00
00003F0000007C00
ENDCHAR
STARTCHAR 00BD
ENCODING 189
SWIDTH 833 0
DWIDTH 70 0
BBX 59 56 5 -1
BITMAP
000000001F800000
003E00001F800000
00FE00001F800000
01FE00001F000000
07FE00003F000000
1FFE00003F000000
3FFE00003E000000
FF3E00007E000000
FC3E00007E000000
703E00007E000000
003E0000FC000000
003E0000FC000000
003E0000FC000000
003E0001F8000000
003E0001F8000000
003E0001F8000000
003E0001F0000000
003E0003F0000000
003E0003F0000000
003E0003E0000000
003E0007E0000000
003E0007E0000000
003E0007C007FC00
003E000FC01FFF00
003E000FC03FFF80
003E000FC0FFFFC0
003E001F80FF3FC0
003E001F81FC0FE0
003E001F81F807E0
1FFFF01F01F007E0
1FFFF03F01F007E0
1FFFF03F007007E0
1FFFF03E000007E0
0FFFE07E00000FC0
0000007E00001FC0
0000007C00003FC0
000000FC00007F80
000000FC0001FF00
000000FC0003FE00
000001F80007FC00
000001F8001FF000
000001F8003FE000
000001F0003F8000
000003F0007F0000
000003F000FE0000
000003E000FC0000
000007E001F80000
000007E001F80000
000007C001F80000
00000FC001F00000
00000FC001FFFFE0
00000FC003FFFFE0
00001F8003FFFFE0
00001F8003FFFFE0
00001F8001FFFFE0
00001F0000000000
ENDCHAR
STARTCHAR 00BE
ENCODING 190
SWIDTH 833 0
DWIDTH 70 0
BBX 62 56 4 -1
BITMAP
0078000007E00000
03FF800007E00000
0FFFC00007E00000
3FFFE00007C00000
7FFFF0000FC00000
7F03F0000FC00000
3C01F8000F800000
0800F8001F800000
0000F8001F800000
0000F8001F800000
0000F8003F000000
0001F8003F000000
0003F0003F000000
0007F0007E000000
03FFE0007E000000
03FF80007E000000
03FFC0007C000000
03FFE000FC000000
03FFF000FC000000
0003F800F8000000
0001FC01F8000000
0000FC01F8000000
0000FC01F8000000
00007C03F0001F00
00007C03F0003F00
0000FC03F0003F00
0000FC07E0007E00
0000FC07E000FC00
3001FC07E000FC00
7E0FF807C001F800
7FFFF00FC003F000
FFFFF00FC003F000
7FFFC00F8007E000
0FFF001F800FC000
0000001F801F8000
0000001F001F8000
0000003F003F0F80
0000003F007E0F80
0000003F007E0F80
0000007E00FC0F80
0000007E01F80F80
0000007E01F80F80
0000007C03F00F80
000000FC07E01F80
000000FC07FFFFF8
000000F807FFFFFC
000001F807FFFFFC
000001F807FFFFFC
000001F003FFFFF8
000003F000001F80
000003F000001F80
000003F000001F80
000007E000001F80
000007E000001F80
000007E000001F80
000007C000000F80
ENDCHAR
STARTCHAR 00BF
ENCODING 191
SWIDTH 428 0
DWIDTH 36 0
BBX 28 59 4 -17
BITMAP
000FF000
001FF800
003FF800
003FF800
003FFC00
003FFC00
003FFC00
003FF800
003FF800
001FF000
000FE000
00000000
00000000
00000000
00000000
00000000
00000000
00000000
00000000
00000000
00000000
00000000
0007C000
0007E000
0007E000
0007E000
0007E000
0007E000
0007E000
0007E000
0007E000
001FE000
00FFE000
01FFE000
07FFE000
0FFF8000
1FFC0000
3FE00000
3FC00000
7F800000
7F000000
7F000000
FE000000
FE000000
FE000000
FE000000
FE000000
FE000000
FF000000
7F000000
7F800000
7FC001C0
3FF01FE0
1FFFFFE0
1FFFFFF0
07FFFFE0
03FFFFC0
00FFFE00
000F8000
ENDCHAR
STARTCHAR 00C0
ENCODING 192
SWIDTH 559 0
DWIDTH 47 0
BBX 42 77 2 0
BITMAP
000080000000
0001C0000000
0003E0000000
0003F8000000
0007FC000000
0007FE000000
0003FF800000
0000FFC00000
00003FE00000
00000FF00000
000003FC0000
000000FC0000
000000380000
000000000000
000000000000
000000000000
000000000000
000000000000
000000000000
00001F000000
00003F800000
00007F800000
00007FC00000
00007FC00000
0000FFC00000
0000FFE00000
0000FFE00000
0001FFE00000
0001FFF00000
0001FBF00000
0003F3F00000
0003F3F00000
0003F3F80000
0003F1F80000
0007E1F80000
0007E1FC0000
0007E1FC0000
000FE0FC0000
000FC0FE0000
000FC0FE0000
001FC07E0000
001FC07F0000
001F807F0000
003F807F0000
003F803F0000
003F003F8000
003F003F8000
007F003F8000
007F001FC000
007E001FC000
00FE001FC000
00FE001FE000
00FE000FE000
01FC000FE000
01FFFFFFF000
01FFFFFFF000
03FFFFFFF000
03FFFFFFF800
03FFFFFFF800
03FFFFFFF800
07F00003F800
07F00003FC00
07F00001FC00
0FF00001FC00
0FE00001FE00
0FE00001FE00
1FE00000FE00
1FE00000FF00
1FC00000FF00
3FC000007F00
3FC000007F80
3F8000007F80
3F8000007F80
7F8000003F80
7F8000003FC0
7F0000003FC0
FF0000001FC0
ENDCHAR
STARTCHAR 00C1
ENCODING 193
SWIDTH 559 0
DWIDTH 47 0
BBX 42 77 2 0
BITMAP
000000200000
000000700000
000001F00000
000003F80000
000007FC0000
00001FFC0000
00003FF80000
00007FE00000
0001FF800000
0003FE000000
0007F8000000
0007E0000000
000380000000
000200000000
000000000000
000000000000
000000000000
000000000000
000000000000
00001F000000
00003F800000
00007F800000
00007FC00000
00007FC00000
0000FFC00000
0000FFE00000
0000FFE00000
0001FFE00000
0001FFF00000
0001FBF00000
0003F3F00000
0003F3F00000
0003F3F80000
0003F1F80000
0007E1F80000
0007E1FC0000
0007E1FC0000
000FE0FC0000
000FC0FE0000
000FC0FE0000
001FC07E0000
001FC07F0000
001F807F0000
003F807F0000
003F803F0000
003F003F8000
003F003F8000
007F003F8000
007F001FC000
007E001FC000
00FE001FC000
00FE001FE000
00FE000FE000
01FC000FE000
01FFFFFFF000
01FFFFFFF000
03FFFFFFF000
03FFFFFFF800
03FFFFFFF800
03FFFFFFF800
07F00003F800
07F00003FC00
07F00001FC00
0FF00001FC00
0FE00001FE00
0FE00001FE00
1FE00000FE00
1FE00000FF00
1FC00000FF00
3FC000007F00
3FC000007F80
3F8000007F80
3F8000007F80
7F8000003F80
7F8000003FC0
7F0000003FC0
FF0000001FC0
ENDCHAR
STARTCHAR 00C2
ENCODING 194
SWIDTH 559 0
DWIDTH 47 0
BBX 42 76 2 0
BITMAP
000004000000
00001E000000
00003F000000
00007FC00000
0000FFE00000
0001FFF00000
0007FBF80000
000FF1FE0000
001FC07F0000
001F003F0000
000E000E0000
000000000000
000000000000
000000000000
000000000000
000000000000
000000000000
000000000000
00001F000000
00003F800000
00007F800000
00007FC00000
00007FC00000
0000FFC00000
0000FFE00000
0000FFE00000
0001FFE00000
0001FFF00000
0001FBF00000
0003F3F00000
0003F3F00000
0003F3F80000
0003F1F80000
0007E1F80000
0007E1FC0000
0007E1FC0000
000FE0FC0000
000FC0FE0000
000FC0FE0000
001FC07E0000
001FC07F0000
001F807F0000
003F807F0000
003F803F0000
003F003F8000
003F003F8000
007F003F8000
007F001FC000
007E001FC000
00FE001FC000
00FE001FE000
00FE000FE000
01FC000FE000
01FFFFFFF000
01FFFFFFF000
03FFFFFFF000
03FFFFFFF800
03FFFFFFF800
03FFFFFFF800
07F00003F800
07F00003FC00
07F00001FC00
0FF00001FC00
0FE00001FE00
0FE00001FE00
1FE00000FE00
1FE00000FF00
1FC00000FF00
3FC000007F00
3FC000007F80
3F8000007F80
3F8000007F80
7F8000003F80
7F8000003FC0
7F0000003FC0
FF0000001FC0
ENDCHAR
STARTCHAR 00C3
ENCODING 195
SWIDTH 559 0
DWIDTH 47 0
BBX 42 74 2 1
BITMAP
0007F0030000
000FFC07C000
001FFF0FC000
003FFFFF8000
007FFFFF0000
007E1FFF0000
007C07FE0000
001801F80000
000000000000
000000000000
000000000000
000000000000
000000000000
000000000000
000000000000
000000000000
00001F000000
00003F800000
00007F800000
00007FC00000
00007FC00000
0000FFC00000
0000FFE00000
0000FFE00000
0001FFE00000
0001FFF00000
0001FBF00000
0003F3F00000
0003F3F00000
0003F3F80000
0003F1F80000
0007E1F80000
0007E1FC0000
0007E1FC0000
000FE0FC0000
000FC0FE0000
000FC0FE0000
001FC07E0000
001FC07F0000
001F807F0000
003F807F0000
003F803F0000
003F003F8000
003F003F8000
007F003F8000
007F001FC000
007E001FC000
00FE001FC000
00FE001FE000
00FE000FE000
01FC000FE000
01FFFFFFF000
01FFFFFFF000
03FFFFFFF000
03FFFFFFF800
03FFFFFFF800
03FFFFFFF800
07F00003F800
07F00003FC00
07F00001FC00
0FF00001FC00
0FE00001FE00
0FE00001FE00
1FE00000FE00
1FE00000FF00
1FC00000FF00
3FC000007F00
3FC000007F80
3F8000007F80
3F8000007F80
7F8000003F80
7F8000003FC0
7F0000003FC0
FF0000001FC0
ENDCHAR
STARTCHAR 00C4
ENCODING 196
SWIDTH 559 0
DWIDTH 47 0
BBX 42 74 2 1
BITMAP
007F003F0000
007F807F8000
00FF807FC000
00FF807FC000
00FF807FC000
00FF807FC000
007F807F8000
003F003F0000
000000000000
000000000000
000000000000
000000000000
000000000000
000000000000
000000000000
000000000000
00001F000000
00003F800000
00007F800000
00007FC00000
00007FC00000
0000FFC00000
0000FFE00000
0000FFE00000
0001FFE00000
0001FFF00000
0001FBF00000
0003F3F00000
0003F3F00000
0003F3F80000
0003F1F80000
0007E1F80000
0007E1FC0000
0007E1FC0000
000FE0FC0000
000FC0FE0000
000FC0FE0000
001FC07E0000
001FC07F0000
001F807F0000
003F807F0000
003F803F0000
003F003F8000
003F003F8000
007F003F8000
007F001FC000
007E001FC000
00FE001FC000
00FE001FE000
00FE000FE000
01FC000FE000
01FFFFFFF000
01FFFFFFF000
03FFFFFFF000
03FFFFFFF800
03FFFFFFF800
03FFFFFFF800
07F00003F800
07F00003FC00
07F00001FC00
0FF00001FC00
0FE00001FE00
0FE00001FE00
1FE00000FE00
1FE00000FF00
1FC00000FF00
3FC000007F00
3FC000007F80
3F8000007F80
3F8000007F80
7F8000003F80
7F8000003FC0
7F0000003FC0
FF0000001FC0
ENDCHAR
STARTCHAR 00C5
ENCODING 197
SWIDTH 559 0
DWIDTH 47 0
BBX 42 78 2 0
BITMAP
000004000000
00003F800000
0000FFC00000
0001FFE00000
0001F3F00000
0003E0F00000
0003C0780000
0003C0780000
0003C0780000
0003C0780000
0003E0F00000
0001FBF00000
0001FFE00000
0000FFC00000
00003F800000
000000000000
000000000000
000000000000
000000000000
000000000000
00001F000000
00003F800000
00007F800000
00007FC00000
00007FC00000
0000FFC00000
0000FFE00000
0000FFE00000
0001FFE00000
0001FFF00000
0001FBF00000
0003F3F00000
0003F3F00000
0003F3F80000
0003F1F80000
0007E1F80000
0007E1FC0000
0007E1FC0000
000FE0FC0000
000FC0FE0000
000FC0FE0000
001FC07E0000
001FC07F0000
001F807F0000
003F807F0000
003F803F0000
003F003F8000
003F003F8000
007F003F8000
007F001FC000
007E001FC000
00FE001FC000
00FE001FE000
00FE000FE000
01FC000FE000
01FFFFFFF000
01FFFFFFF000
03FFFFFFF000
03FFFFFFF800
03FFFFFFF800
03FFFFFFF800
07F00003F800
07F00003FC00
07F00001FC00
0FF00001FC00
0FE00001FE00
0FE00001FE00
1FE00000FE00
1FE00000FF00
1FC00000FF00
3FC000007F00
3FC000007F80
3F8000007F80
3F8000007F80
7F8000003F80
7F8000003FC0
7F0000003FC0
FF0000001FC0
ENDCHAR
STARTCHAR 00C6
ENCODING 198
SWIDTH 738 0
DWIDTH 62 0
BBX 59 58 1 0
BITMAP
0000000FFFFFFFC0
0000001FFFFFFFE0
0000003FFFFFFFC0
0000003FFFFFFFC0
0000007FFFFFFFC0
0000007FFFFFFF80
000000FFF8000000
000000FBF8000000
000001FBF8000000
000001FBF8000000
000003F3F8000000
000003F3F8000000
000007E3F8000000
000007E3F8000000
00000FE3F8000000
00000FC3F8000000
00001FC3F8000000
00001F83F8000000
00003F83F8000000
00003F03F8000000
00007F03F8000000
00007E03F8000000
0000FE03F8000000
0000FE03F8000000
0000FC03F8000000
0001FC03FFFFFE00
0001F803FFFFFE00
0003F803FFFFFE00
0003F003FFFFFE00
0007F003FFFFFE00
0007E003FFFFFE00
000FE003F8000000
000FC003F8000000
001FC003F8000000
001FC003F8000000
003FFFFFF8000000
003FFFFFF8000000
007FFFFFF8000000
007FFFFFF8000000
00FFFFFFF8000000
00FFFFFFF8000000
01FE0003F8000000
01FC0003F8000000
03FC0003F8000000
03F80003F8000000
07F80003F8000000
07F00003F8000000
07F00003F8000000
0FE00003F8000000
0FE00003F8000000
1FE00003F8000000
1FC00003F8000000
3FC00003FFFFFFC0
3F800003FFFFFFC0
7F800003FFFFFFC0
7F000003FFFFFFC0
FF000003FFFFFFC0
FE000003FFFFFFC0
ENDCHAR
STARTCHAR 00C7
ENCODING 199
SWIDTH 464 0
DWIDTH 39 0
BBX 33 76 4 -18
BITMAP
0000FC0000
000FFF8000
003FFFF000
007FFFF800
00FFFFFE00
01FFFFFF00
03FF03FF80
07FC007F00
07F8003F00
0FF0001E00
1FE0000400
1FC0000000
1FC0000000
3FC0000000
3F80000000
3F80000000
3F80000000
7F80000000
7F80000000
7F00000000
7F00000000
7F00000000
7F00000000
7F00000000
7F00000000
FF00000000
FF00000000
FF00000000
FF00000000
FF00000000
FF00000000
FF00000000
FF00000000
FF00000000
FF00000000
7F00000000
7F00000000
7F00000000
7F00000000
7F80000000
7F80000000
7F80000000
3F80000000
3F80000000
3FC0000000
3FC0000000
1FC0000000
1FE0000000
1FE0000000
0FF0000000
0FF0000600
07F8001F00
07FC003F80
03FF00FF80
01FFFFFF80
00FFFFFF00
007FFFFE00
003FFFF800
000FFFE000
0001FF0000
0000F80000
0000F80000
0000F80000
0000F00000
0001FF0000
0001FFC000
0001FFC000
0000FFE000
000007E000
000003E000
000007E000
0003FFE000
0007FFC000
0007FF8000
0007FF0000
0001FC0000
ENDCHAR
STARTCHAR 00C8
ENCODING 200
SWIDTH 464 0
DWIDTH 39 0
BBX 28 77 8 0
BITMAP
00800000
01C00000
03E00000
03F80000
07FC0000
07FE0000
03FF0000
00FFC000
003FE000
000FF000
0003FC00
0000FC00
00007800
00000000
00000000
00000000
00000000
00000000
00000000
7FFFFFE0
FFFFFFF0
FFFFFFF0
FFFFFFE0
FFFFFFE0
FFFFFFE0
FE000000
FE000000
FE000000
FE000000
FE000000
FE000000
FE000000
FE000000
FE000000
FE000000
FE000000
FE000000
FE000000
FE000000
FE000000
FE000000
FE000000
FE000000
FE000000
FFFFFF00
FFFFFF00
FFFFFF00
FFFFFF00
FFFFFF00
FFFFFF00
FE000000
FE000000
FE000000
FE000000
FE000000
FE000000
FE000000
FE000000
FE000000
FE000000
FE000000
FE000000
FE000000
FE000000
FE000000
FE000000
FE000000
FE000000
FE000000
FE000000
FE000000
FFFFFFF0
FFFFFFF0
FFFFFFF0
FFFFFFF0
FFFFFFF0
FFFFFFF0
ENDCHAR
STARTCHAR 00C9
ENCODING 201
SWIDTH 464 0
DWIDTH 39 0
BBX 28 77 8 0
BITMAP
00002000
00007000
0000F000
0003F800
0007FC00
000FFC00
003FF800
007FE000
00FF8000
03FE0000
07F80000
07E00000
03800000
00000000
00000000
00000000
00000000
00000000
00000000
7FFFFFE0
FFFFFFF0
FFFFFFF0
FFFFFFE0
FFFFFFE0
FFFFFFE0
FE000000
FE000000
FE000000
FE000000
FE000000
FE000000
FE000000
FE000000
FE000000
FE000000
FE000000
FE000000
FE000000
FE000000
FE000000
FE000000
FE000000
FE000000
FE000000
FFFFFF00
FFFFFF00
FFFFFF00
FFFFFF00
FFFFFF00
FFFFFF00
FE000000
FE000000
FE000000
FE000000
FE000000
FE000000
FE000000
FE000000
FE000000
FE000000
FE000000
FE000000
FE000000
FE000000
FE000000
FE000000
FE000000
FE000000
FE000000
FE000000
FE000000
FFFFFFF0
FFFFFFF0
FFFFFFF0
FFFFFFF0
FFFFFFF0
FFFFFFF0
ENDCHAR
STARTCHAR 00CA
ENCODING 202
SWIDTH 464 0
DWIDTH 39 0
BBX 28 76 8 0
BITMAP
00040000
000E0000
003F8000
007FC000
00FFE000
01FFF000
03FBFC00
0FF1FE00
1FC07F00
1F801F00
0E000E00
04000000
00000000
00000000
00000000
00000000
00000000
00000000
7FFFFFE0
FFFFFFF0
FFFFFFF0
FFFFFFE0
FFFFFFE0
FFFFFFE0
FE000000
FE000000
FE000000
FE000000
FE000000
FE000000
FE000000
FE000000
FE000000
FE000000
FE000000
FE000000
FE000000
FE000000
FE000000
FE000000
FE000000
FE000000
FE000000
FFFFFF00
FFFFFF00
FFFFFF00
FFFFFF00
FFFFFF00
FFFFFF00
FE000000
FE000000
FE000000
FE000000
FE000000
FE000000
FE000000
FE000000
FE000000
FE000000
FE000000
FE000000
FE000000
FE000000
FE000000
FE000000
FE000000
FE000000
FE000000
FE000000
FE000000
FFFFFFF0
FFFFFFF0
FFFFFFF0
FFFFFFF0
FFFFFFF0
FFFFFFF0
ENDCHAR
STARTCHAR 00CB
ENCODING 203
SWIDTH 464 0
DWIDTH 39 0
BBX 28 75 8 0
BITMAP
08000000
7F003F00
7F007F80
FF807F80
FF807F80
FF807F80
FF807F80
7F007F80
7F003F00
00000000
00000000
00000000
00000000
00000000
00000000
00000000
00000000
7FFFFFE0
FFFFFFF0
FFFFFFF0
FFFFFFE0
FFFFFFE0
FFFFFFE0
FE000000
FE000000
FE000000
FE000000
FE000000
FE000000
FE000000
FE000000
FE000000
FE000000
FE000000
FE000000
FE000000
FE000000
FE000000
FE000000
FE000000
FE000000
FE000000
FFFFFF00
FFFFFF00
FFFFFF00
FFFFFF00
FFFFFF00
FFFFFF00
FE000000
FE000000
FE000000
FE000000
FE000000
FE000000
FE000000
FE000000
FE000000
FE000000
FE000000
FE000000
FE000000
FE000000
FE000000
FE000000
FE000000
FE000000
FE000000
FE000000
FE000000
FFFFFFF0
FFFFFFF0
FFFFFFF0
FFFFFFF0
FFFFFFF0
FFFFFFF0
ENDCHAR
STARTCHAR 00CC
ENCODING 204
SWIDTH 369 0
DWIDTH 31 0
BBX 25 77 3 0
BITMAP
01000000
03800000
03E00000
07F00000
0FF80000
0FFC0000
07FF0000
01FF8000
007FC000
001FF000
0007F800
0001F800
00007000
00000000
00000000
00000000
00000000
00000000
00000000
7FFFFF00
FFFFFF80
FFFFFF80
FFFFFF80
FFFFFF80
7FFFFF00
007F0000
007F0000
007F0000
007F0000
007F0000
007F0000
007F0000
007F0000
007F0000
007F0000
007F0000
007F0000
007F0000
007F0000
007F0000
007F0000
007F0000
007F0000
007F0000
007F0000
007F0000
007F0000
007F0000
007F0000
007F0000
007F0000
007F0000
007F0000
007F0000
007F0000
007F0000
007F0000
007F0000
007F0000
007F0000
007F0000
007F0000
007F0000
007F0000
007F0000
007F0000
007F0000
007F0000
007F0000
007F0000
007F0000
007F0000
FFFFFF80
FFFFFF80
FFFFFF80
FFFFFF80
7FFFFF80
ENDCHAR
STARTCHAR 00CD
ENCODING 205
SWIDTH 369 0
DWIDTH 31 0
BBX 25 77 3 0
BITMAP
00004000
0000E000
0003E000
0007F000
000FF800
001FF800
007FF000
00FFC000
01FF0000
07FC0000
0FF00000
0FC00000
07000000
00000000
00000000
00000000
00000000
00000000
00000000
7FFFFF00
FFFFFF80
FFFFFF80
FFFFFF80
FFFFFF80
7FFFFF00
007F0000
007F0000
007F0000
007F0000
007F0000
007F0000
007F0000
007F0000
007F0000
007F0000
007F0000
007F0000
007F0000
007F0000
007F0000
007F0000
007F0000
007F0000
007F0000
007F0000
007F0000
007F0000
007F0000
007F0000
007F0000
007F0000
007F0000
007F0000
007F0000
007F0000
007F0000
007F0000
007F0000
007F0000
007F0000
007F0000
007F0000
007F0000
007F0000
007F0000
007F0000
007F0000
007F0000
007F0000
007F0000
007F0000
007F0000
FFFFFF80
FFFFFF80
FFFFFF80
FFFFFF80
7FFFFF80
ENDCHAR
STARTCHAR 00CE
ENCODING 206
SWIDTH 369 0
DWIDTH 31 0
BBX 25 76 3 0
BITMAP
00080000
001C0000
007F0000
00FF8000
01FFC000
03FFE000
07F7F800
1FE3FC00
3F80FE00
3F007E00
1C001C00
08000000
00000000
00000000
00000000
00000000
00000000
00000000
7FFFFF00
FFFFFF80
FFFFFF80
FFFFFF80
FFFFFF80
7FFFFF00
007F0000
007F0000
007F0000
007F0000
007F0000
007F0000
007F0000
007F0000
007F0000
007F0000
007F0000
007F0000
007F0000
007F0000
007F0000
007F0000
007F0000
007F0000
007F0000
007F0000
007F0000
007F0000
007F0000
007F0000
007F0000
007F0000
007F0000
007F0000
007F0000
007F0000
007F0000
007F0000
007F0000
007F0000
007F0000
007F0000
007F0000
007F0000
007F0000
007F0000
007F0000
007F0000
007F0000
007F0000
007F0000
007F0000
007F0000
FFFFFF80
FFFFFF80
FFFFFF80
FFFFFF80
7FFFFF80
ENDCHAR
STARTCHAR 00CF
ENCODING 207
SWIDTH 369 0
DWIDTH 31 0
BBX 26 75 2 0
BITMAP
00000400
3F003F80
7F807F80
7F807FC0
FF807FC0
FF807FC0
7F807FC0
7F807F80
3F003F80
00000000
00000000
00000000
00000000
00000000
00000000
00000000
00000000
3FFFFF80
7FFFFFC0
7FFFFFC0
7FFFFFC0
7FFFFFC0
3FFFFF80
003F8000
003F8000
003F8000
003F8000
003F8000
003F8000
003F8000
003F8000
003F8000
003F8000
003F8000
003F8000
003F8000
003F8000
003F8000
003F8000
003F8000
003F8000
003F8000
003F8000
003F8000
003F8000
003F8000
003F8000
003F8000
003F8000
003F8000
003F8000
003F8000
003F8000
003F8000
003F8000
003F8000
003F8000
003F8000
003F8000
003F8000
003F8000
003F8000
003F8000
003F8000
003F8000
003F8000
003F8000
003F8000
003F8000
003F8000
7FFFFFC0
7FFFFFC0
7FFFFFC0
7FFFFFC0
3FFFFFC0
ENDCHAR
STARTCHAR 00D0
ENCODING 208
SWIDTH 559 0
DWIDTH 47 0
BBX 40 58 2 0
BITMAP
01FFE00000
03FFFFE000
03FFFFF800
03FFFFFE00
03FFFFFF80
03FFFFFFC0
03F80FFFE0
03F8007FE0
03F8001FF0
03F8000FF8
03F80007F8
03F80003FC
03F80003FC
03F80001FC
03F80001FE
03F80001FE
03F80001FE
03F80000FE
03F80000FF
03F80000FF
03F80000FF
03F80000FF
03F80000FF
03F800007F
03F800007F
FFFFFF007F
FFFFFF007F
FFFFFF007F
FFFFFF007F
FFFFFF007F
FFFFFF007F
03F800007F
03F800007F
03F800007F
03F80000FF
03F80000FF
03F80000FF
03F80000FF
03F80000FF
03F80000FE
03F80000FE
03F80001FE
03F80001FE
03F80001FC
03F80003FC
03F80003FC
03F80007F8
03F80007F8
03F8000FF0
03F8001FF0
03F8007FE0
03F801FFC0
03FFFFFF80
03FFFFFF00
03FFFFFE00
03FFFFF800
03FFFFE000
03FFFE0000
ENDCHAR
STARTCHAR 00D1
ENCODING 209
SWIDTH 571 0
DWIDTH 48 0
BBX 34 74 7 1
BITMAP
007F007000
00FFC07C00
01FFF0F800
03FFFFF800
07FFFFF000
07C1FFE000
07807FC000
01801F8000
0000000000
0000000000
0000000000
0000000000
0000000000
0000000000
0000000000
0000000000
7E00000780
FF00000FC0
FF80000FC0
FF80000FC0
FFC0000FC0
FFC0000FC0
FFC0000FC0
FFE0000FC0
FFE0000FC0
FFF0000FC0
FFF0000FC0
FFF8000FC0
FDF8000FC0
FDFC000FC0
FDFC000FC0
FCFE000FC0
FCFE000FC0
FC7F000FC0
FC7F000FC0
FC3F800FC0
FC3F800FC0
FC1FC00FC0
FC1FC00FC0
FC0FE00FC0
FC0FE00FC0
FC07E00FC0
FC07F00FC0
FC07F00FC0
FC03F80FC0
FC03F80FC0
FC01FC0FC0
FC01FC0FC0
FC00FE0FC0
FC00FE0FC0
FC007F0FC0
FC007F0FC0
FC003F8FC0
FC003F8FC0
FC001FCFC0
FC001FCFC0
FC000FEFC0
FC000FEFC0
FC000FEFC0
FC0007FFC0
FC0007FFC0
FC0003F7C0
FC0003F7C0
FC0001FFC0
FC0001FFC0
FC0000FFC0
FC0000FFC0
FC00007FC0
FC00007FC0
FC00003FC0
FC00003FC0
FC00001FC0
FC00001FC0
FC00000FC0
ENDCHAR
STARTCHAR 00D2
ENCODING 210
SWIDTH 559 0
DWIDTH 47 0
BBX 38 78 4 -2
BITMAP
0002000000
0007000000
000F800000
000FE00000
001FF00000
001FF80000
000FFE0000
0003FF0000
0000FF8000
00003FC000
00000FF000
000003F000
000000E000
0000000000
0000000000
0000000000
0000000000
0000000000
00007C0000
0007FFC000
001FFFF000
007FFFFC00
00FFFFFE00
01FFFFFF00
03FF01FF80
07FC007F80
07F8003FC0
0FF0001FC0
0FE0000FE0
1FE0000FE0
1FC00007F0
1FC00007F0
3F800007F0
3F800007F8
3F800003F8
3F800003F8
7F800003F8
7F800003FC
7F000003FC
7F000003FC
7F000001FC
7F000001FC
7F000001FC
FF000001FC
FF000001FC
FF000001FC
FF000001FC
FF000001FC
FF000001FC
FF000001FC
FF000001FC
FF000001FC
FF000001FC
7F000001FC
7F000001FC
7F000001FC
7F000003FC
7F000003FC
7F000003FC
7F800003F8
7F800003F8
3F800003F8
3F800003F8
3F800007F8
3FC00007F0
1FC00007F0
1FC0000FE0
0FE0000FE0
0FE0001FE0
07F0003FC0
07F8007FC0
03FE00FF80
01FFEFFF00
01FFFFFE00
007FFFFC00
003FFFF800
000FFFE000
0003FF0000
ENDCHAR
STARTCHAR 00D3
ENCODING 211
SWIDTH 559 0
DWIDTH 47 0
BBX 38 78 4 -2
BITMAP
0000008000
000001C000
000003E000
00000FE000
00001FF000
00003FF000
00007FE000
0001FF8000
0003FE0000
0007F80000
001FE00000
001F800000
000F000000
0000000000
0000000000
0000000000
0000000000
0000000000
00007C0000
0007FFC000
001FFFF000
007FFFFC00
00FFFFFE00
01FFFFFF00
03FF01FF80
07FC007F80
07F8003FC0
0FF0001FC0
0FE0000FE0
1FE0000FE0
1FC00007F0
1FC00007F0
3F800007F0
3F800007F8
3F800003F8
3F800003F8
7F800003F8
7F800003FC
7F000003FC
7F000003FC
7F000001FC
7F000001FC
7F000001FC
FF000001FC
FF000001FC
FF000001FC
FF000001FC
FF000001FC
FF000001FC
FF000001FC
FF000001FC
FF000001FC
FF000001FC
7F000001FC
7F000001FC
7F000001FC
7F000003FC
7F000003FC
7F000003FC
7F800003F8
7F800003F8
3F800003F8
3F800003F8
3F800007F8
3FC00007F0
1FC00007F0
1FC0000FE0
0FE0000FE0
0FE0001FE0
07F0003FC0
07F8007FC0
03FE00FF80
01FFEFFF00
01FFFFFE00
007FFFFC00
003FFFF800
000FFFE000
0003FF0000
ENDCHAR
STARTCHAR 00D4
ENCODING 212
SWIDTH 559 0
DWIDTH 47 0
BBX 38 77 4 -2
BITMAP
0000100000
0000780000
0000FC0000
0001FF0000
0003FF8000
0007FFC000
001FEFE000
003FC7F800
007F01FC00
007C00FC00
0038003800
0000000000
0000000000
0000000000
0000000000
0000000000
0000000000
00007C0000
0007FFC000
001FFFF000
007FFFFC00
00FFFFFE00
01FFFFFF00
03FF01FF80
07FC007F80
07F8003FC0
0FF0001FC0
0FE0000FE0
1FE0000FE0
1FC00007F0
1FC00007F0
3F800007F0
3F800007F8
3F800003F8
3F800003F8
7F800003F8
7F800003FC
7F000003FC
7F000003FC
7F000001FC
7F000001FC
7F000001FC
FF000001FC
FF000001FC
FF000001FC
FF000001FC
FF000001FC
FF000001FC
FF000001FC
FF000001FC
FF000001FC
FF000001FC
7F000001FC
7F000001FC
7F000001FC
7F000003FC
7F000003FC
7F000003FC
7F800003F8
7F800003F8
3F800003F8
3F800003F8
3F800007F8
3FC00007F0
1FC00007F0
1FC0000FE0
0FE0000FE0
0FE0001FE0
07F0003FC0
07F8007FC0
03FE00FF80
01FFEFFF00
01FFFFFE00
007FFFFC00
003FFFF800
000FFFE000
0003FF0000
ENDCHAR
STARTCHAR 00D5
ENCODING 213
SWIDTH 559 0
DWIDTH 47 0
BBX 38 75 4 -1
BITMAP
001FC00C00
003FF01F00
007FFC3F00
00FFFFFE00
01FFFFFC00
01F87FFC00
01F01FF800
006007E000
0000000000
0000000000
0000000000
0000000000
0000000000
0000000000
0000000000
00007C0000
0007FFC000
001FFFF000
007FFFFC00
00FFFFFE00
01FFFFFF00
03FF01FF80
07FC007F80
07F8003FC0
0FF0001FC0
0FE0000FE0
1FE0000FE0
1FC00007F0
1FC00007F0
3F800007F0
3F800007F8
3F800003F8
3F800003F8
7F800003F8
7F800003FC
7F000003FC
7F000003FC
7F000001FC
7F000001FC
7F000001FC
FF000001FC
FF000001FC
FF000001FC
FF000001FC
FF000001FC
FF000001FC
FF000001FC
FF000001FC
FF000001FC
FF000001FC
7F000001FC
7F000001FC
7F000001FC
7F000003FC
7F000003FC
7F000003FC
7F800003F8
7F800003F8
3F800003F8
3F800003F8
3F800007F8
3FC00007F0
1FC00007F0
1FC0000FE0
0FE0000FE0
0FE0001FE0
07F0003FC0
07F8007FC0
03FE00FF80
01FFEFFF00
01FFFFFE00
007FFFFC00
003FFFF800
000FFFE000
0003FF0000
ENDCHAR
STARTCHAR 00D6
ENCODING 214
SWIDTH 559 0
DWIDTH 47 0
BBX 38 75 4 -1
BITMAP
01FC00FC00
01FE01FE00
03FE01FF00
03FE01FF00
03FE01FF00
03FE01FF00
01FE01FE00
00FC00FC00
0000000000
0000000000
0000000000
0000000000
0000000000
0000000000
0000000000
00007C0000
0007FFC000
001FFFF000
007FFFFC00
00FFFFFE00
01FFFFFF00
03FF01FF80
07FC007F80
07F8003FC0
0FF0001FC0
0FE0000FE0
1FE0000FE0
1FC00007F0
1FC00007F0
3F800007F0
3F800007F8
3F800003F8
3F800003F8
7F800003F8
7F800003FC
7F000003FC
7F000003FC
7F000001FC
7F000001FC
7F000001FC
FF000001FC
FF000001FC
FF000001FC
FF000001FC
FF000001FC
FF000001FC
FF000001FC
FF000001FC
FF000001FC
FF000001FC
7F000001FC
7F000001FC
7F000001FC
7F000003FC
7F000003FC
7F000003FC
7F800003F8
7F800003F8
3F800003F8
3F800003F8
3F800007F8
3FC00007F0
1FC00007F0
1FC0000FE0
0FE0000FE0
0FE0001FE0
07F0003FC0
07F8007FC0
03FE00FF80
01FFEFFF00
01FFFFFE00
007FFFFC00
003FFFF800
000FFFE000
0003FF0000
ENDCHAR
STARTCHAR 00D7
ENCODING 215
SWIDTH 500 0
DWIDTH 42 0
BBX 30 31 6 5
BITMAP
10000020
38000070
7C0000F8
FE0001FC
FF0003FC
FF8007F8
7FC00FF0
3FE01FE0
1FF03FE0
0FF87FC0
07FCFF80
03FFFF00
00FFFE00
007FFC00
003FF800
001FF000
003FF000
007FF800
00FFFC00
01FFFE00
03FCFF00
07F87F80
0FF03FC0
1FE03FE0
3FC01FF0
7F800FF8
FF0007FC
FE0003FC
7C0001F8
380000F0
10000060
ENDCHAR
STARTCHAR 00D8
ENCODING 216
SWIDTH 559 0
DWIDTH 47 0
BBX 38 65 4 -4
BITMAP
0000000040
00000000F8
00000000F8
00007C01F8
0007FFC1F0
001FFFF3F0
007FFFFFE0
00FFFFFFE0
01FFFFFFC0
03FF00FFC0
03FC003F80
07F0001FC0
0FE0003FC0
0FE0003FE0
1FC0007FE0
1FC0007FF0
1F8000FFF0
3F8000FFF0
3F8001FBF8
3F0001F9F8
3F0003F1F8
7F0003F1F8
7F0007E1F8
7F0007E1FC
7F000FC1FC
7F000FC1FC
7E001F81FC
7E001F01FC
7E003F01FC
FE003E01FC
FE007E01FC
FE007C01FC
FE00FC01FC
FE00F801FC
FE01F801FC
FE01F001FC
FE03F001FC
FE07E001FC
7E07E001FC
7E0FC001FC
7E0FC001FC
7E1F8001FC
7F1F8001FC
7F3F0001F8
7F3F0001F8
7F7E0003F8
3F7E0003F8
3FFC0003F8
3FFC0003F0
3FF80003F0
1FF80007F0
1FF00007E0
1FF0000FE0
0FE0000FC0
0FF0001FC0
0FF8003F80
0FFC00FF80
1FFFEFFF00
1FFFFFFE00
3FFFFFFC00
3F3FFFF800
7E1FFFE000
7C03FF0000
7C00000000
3800000000
ENDCHAR
STARTCHAR 00D9
ENCODING 217
SWIDTH 595 0
DWIDTH 50 0
BBX 36 77 7 -1
BITMAP
000E000000
001F000000
003F800000
003FE00000
007FF00000
001FF80000
0007FC0000
0001FF0000
0000FF8000
00003FC000
00000FC000
000003C000
0000008000
0000000000
0000000000
0000000000
0000000000
0000000000
7C000003E0
FE000007F0
FE000007F0
FE000007F0
FE000007F0
FE000007F0
FE000007F0
FE000007F0
FE000007F0
FE000007F0
FE000007F0
FE000007F0
FE000007F0
FE000007F0
FE000007F0
FE000007F0
FE000007F0
FE000007F0
FE000007F0
FE000007F0
FE000007F0
FE000007F0
FE000007F0
FE000007F0
FE000007F0
FE000007F0
FE000007F0
FE000007F0
FE000007F0
FE000007F0
FE000007F0
FE000007F0
FE000007F0
FE000007F0
FE000007F0
FE000007F0
FE000007F0
FE000007F0
FE000007F0
FE000007F0
FE000007F0
FE000007F0
FE000007F0
FE000007F0
FE000007F0
FE000007F0
FE00000FF0
FF00000FE0
7F00000FE0
7F00001FE0
7F80003FC0
3FC0007FC0
3FF001FF80
1FFFBFFF00
0FFFFFFF00
07FFFFFC00
03FFFFF800
00FFFFE000
001FFF0000
ENDCHAR
STARTCHAR 00DA
ENCODING 218
SWIDTH 595 0
DWIDTH 50 0
BBX 36 78 7 -2
BITMAP
0000010000
0000038000
000007C000
00001FC000
00003FE000
00007FE000
0000FFC000
0003FF0000
0007FC0000
000FF00000
003FC00000
003F000000
001E000000
0000000000
0000000000
0000000000
0000000000
0000000000
0000000000
7C000003E0
FE000007F0
FE000007F0
FE000007F0
FE000007F0
FE000007F0
FE000007F0
FE000007F0
FE000007F0
FE000007F0
FE000007F0
FE000007F0
FE000007F0
FE000007F0
FE000007F0
FE000007F0
FE000007F0
FE000007F0
FE000007F0
FE000007F0
FE000007F0
FE000007F0
FE000007F0
FE000007F0
FE000007F0
FE000007F0
FE000007F0
FE000007F0
FE000007F0
FE000007F0
FE000007F0
FE000007F0
FE000007F0
FE000007F0
FE000007F0
FE000007F0
FE000007F0
FE000007F0
FE000007F0
FE000007F0
FE000007F0
FE000007F0
FE000007F0
FE000007F0
FE000007F0
FE000007F0
FE00000FF0
FF00000FE0
7F00000FE0
7F00001FE0
7F80003FC0
3FC0007FC0
3FF001FF80
1FFFBFFF00
0FFFFFFF00
07FFFFFC00
03FFFFF800
00FFFFE000
001FFF0000
ENDCHAR
STARTCHAR 00DB
ENCODING 219
SWIDTH 595 0
DWIDTH 50 0
BBX 36 77 7 -2
BITMAP
0000600000
0000F00000
0001F80000
0003FC0000
000FFF0000
001FFF8000
003FFFC000
007F0FE000
01FE07F800
00F801F000
00F000F000
0040002000
0000000000
0000000000
0000000000
0000000000
0000000000
0000000000
7C000003E0
FE000007F0
FE000007F0
FE000007F0
FE000007F0
FE000007F0
FE000007F0
FE000007F0
FE000007F0
FE000007F0
FE000007F0
FE000007F0
FE000007F0
FE000007F0
FE000007F0
FE000007F0
FE000007F0
FE000007F0
FE000007F0
FE000007F0
FE000007F0
FE000007F0
FE000007F0
FE000007F0
FE000007F0
FE000007F0
FE000007F0
FE000007F0
FE000007F0
FE000007F0
FE000007F0
FE000007F0
FE000007F0
FE000007F0
FE000007F0
FE000007F0
FE000007F0
FE000007F0
FE000007F0
FE000007F0
FE000007F0
FE000007F0
FE000007F0
FE000007F0
FE000007F0
FE000007F0
FE00000FF0
FF00000FE0
7F00000FE0
7F00001FE0
7F80003FC0
3FC0007FC0
3FF001FF80
1FFFBFFF00
0FFFFFFF00
07FFFFFC00
03FFFFF800
00FFFFE000
001FFF0000
ENDCHAR
STARTCHAR 00DC
ENCODING 220
SWIDTH 595 0
DWIDTH 50 0
BBX 36 75 7 -1
BITMAP
03F001F800
07F803FC00
07FC03FC00
07FC07FC00
07FC07FC00
07FC03FC00
07F803FC00
03F001F800
0000000000
0000000000
0000000000
0000000000
0000000000
0000000000
0000000000
0000000000
7C000003E0
FE000007F0
FE000007F0
FE000007F0
FE000007F0
FE000007F0
FE000007F0
FE000007F0
FE000007F0
FE000007F0
FE000007F0
FE000007F0
FE000007F0
FE000007F0
FE000007F0
FE000007F0
FE000007F0
FE000007F0
FE000007F0
FE000007F0
FE000007F0
FE000007F0
FE000007F0
FE000007F0
FE000007F0
FE000007F0
FE000007F0
FE000007F0
FE000007F0
FE000007F0
FE000007F0
FE000007F0
FE000007F0
FE000007F0
FE000007F0
FE000007F0
FE000007F0
FE000007F0
FE000007F0
FE000007F0
FE000007F0
FE000007F0
FE000007F0
FE000007F0
FE000007F0
FE000007F0
FE00000FF0
FF00000FE0
7F00000FE0
7F00001FE0
7F80003FC0
3FC0007FC0
3FF001FF80
1FFFBFFF00
0FFFFFFF00
07FFFFFC00
03FFFFF800
00FFFFE000
001FFF0000
ENDCHAR
STARTCHAR 00DD
ENCODING 221
SWIDTH 476 0
DWIDTH 40 0
BBX 40 77 0 0
BITMAP
0000002000
0000007000
000000F800
000001F800
000007FC00
00000FFE00
00001FF800
00007FE000
0000FF8000
0001FE0000
0003FC0000
0003F00000
0003C00000
0000000000
0000000000
0000000000
0000000000
0000000000
0000000000
0F00000078
FF0000007F
FF800000FF
7F800000FF
7F800001FE
3FC00001FE
3FC00003FC
1FE00003FC
1FE00007F8
0FF00007F8
0FF0000FF0
07F8000FF0
03F8001FE0
03FC001FE0
01FC003FC0
01FE003F80
00FE007F80
00FF007F00
007F007F00
007F80FE00
003F80FE00
003FC1FC00
001FC1FC00
001FE3F800
000FE3F800
000FF7F000
0007F7E000
0007FFE000
0003FFC000
0001FFC000
0001FF8000
0000FF8000
0000FF0000
00007F0000
00007F0000
00007F0000
00007F0000
00007F0000
00007F0000
00007F0000
00007F0000
00007F0000
00007F0000
00007F0000
00007F0000
00007F0000
00007F0000
00007F0000
00007F0000
00007F0000
00007F0000
00007F0000
00007F0000
00007F0000
00007F0000
00007F0000
00007F0000
00007F0000
ENDCHAR
STARTCHAR 00DE
ENCODING 222
SWIDTH 500 0
DWIDTH 42 0
BBX 31 58 8 0
BITMAP
7C000000
FE000000
FE000000
FE000000
FE000000
FE000000
FE000000
FE000000
FE000000
FE000000
FFFFF000
FFFFFE00
FFFFFF80
FFFFFFE0
FFFFFFF0
FFFFFFF0
FE001FF8
FE0007FC
FE0003FC
FE0001FC
FE0001FE
FE0000FE
FE0000FE
FE0000FE
FE0000FE
FE0000FE
FE0000FE
FE0000FE
FE0000FE
FE0000FE
FE0001FC
FE0001FC
FE0003FC
FE0003F8
FE0007F8
FE001FF0
FE007FF0
FFFFFFE0
FFFFFFC0
FFFFFF80
FFFFFE00
FFFFF800
FFFF8000
FE000000
FE000000
FE000000
FE000000
FE000000
FE000000
FE000000
FE000000
FE000000
FE000000
FE000000
FE000000
FE000000
FE000000
FE000000
ENDCHAR
STARTCHAR 00DF
ENCODING 223
SWIDTH 559 0
DWIDTH 47 0
BBX 37 62 6 -2
BITMAP
001FF00000
00FFFE0000
03FFFF8000
0FFFFFC000
1FFFFFE000
3FFCFFF000
3FC00FF800
7F8003F800
7F0003F800
FE0001FC00
FE0001FC00
FE0001FC00
FC0001FC00
FC0001F800
FC0001F800
FC0003F800
FC0003F000
FC0007F000
FC000FE000
FC001FC000
FC003F8000
FC007F0000
FC00FE0000
FC01FC0000
FC01F80000
FC03F80000
FC03F80000
FC03F00000
FC03F80000
FC03F80000
FC03FC0000
FC01FE0000
FC01FF8000
FC00FFC000
FC007FE000
FC003FF800
FC001FFC00
FC000FFE00
FC0003FF00
FC0001FF80
FC00007FC0
FC00003FE0
FC00001FF0
FC00000FF0
FC000007F8
FC000003F8
FC000003F8
FC000001F8
FC000001F8
FC000001F8
FC000001F8
FC000001F8
FC000001F8
FC000003F8
FC000003F0
FC018007F0
FC03F01FE0
FC03FFFFE0
FC03FFFFC0
FC07FFFF80
FC03FFFE00
00007FF800
ENDCHAR
STARTCHAR 00E0
ENCODING 224
SWIDTH 464 0
DWIDTH 39 0
BBX 31 60 4 -1
BITMAP
00700000
00780000
00FE0000
01FF0000
01FF8000
00FFC000
003FF000
000FF800
0003FC00
0000FF00
00007F00
00001E00
00000600
00000000
00000000
00000000
00000000
00000000
00FFFC00
07FFFF00
1FFFFF80
3FFFFFC0
3FFFFFE0
1FE07FE0
1E001FF0
08000FF0
000007F0
000007F0
000003F0
000003F0
000003F0
000003F0
000003F0
000003F0
0007FFF0
003FFFF0
01FFFFF0
07FFFFF0
0FFFFFF0
1FFE03F0
3FF003F0
3FC003F0
7F0003F0
7E0003F0
FE0003F0
FC0003F0
FC0003F0
FC0003F0
FC0003F0
FC0003F0
FE0007F0
FE000FF8
FF001FF8
7F007FF8
7FC1FFF8
7FFFFDFC
3FFFF8FE
1FFFE0FE
0FFFC0F8
03FE0060
ENDCHAR
STARTCHAR 00E1
ENCODING 225
SWIDTH 464 0
DWIDTH 39 0
BBX 31 60 4 -1
BITMAP
00001C00
00003C00
0000FE00
0001FF00
0003FF00
0007FE00
001FF800
003FE000
007F8000
01FF0000
01FC0000
00F00000
00C00000
00000000
00000000
00000000
00000000
00000000
00FFFC00
07FFFF00
1FFFFF80
3FFFFFC0
3FFFFFE0
1FE07FE0
1E001FF0
08000FF0
000007F0
000007F0
000003F0
000003F0
000003F0
000003F0
000003F0
000003F0
0007FFF0
003FFFF0
01FFFFF0
07FFFFF0
0FFFFFF0
1FFE03F0
3FF003F0
3FC003F0
7F0003F0
7E0003F0
FE0003F0
FC0003F0
FC0003F0
FC0003F0
FC0003F0
FC0003F0
FE0007F0
FE000FF8
FF001FF8
7F007FF8
7FC1FFF8
7FFFFDFC
3FFFF8FE
1FFFE0FE
0FFFC0F8
03FE0060
ENDCHAR
STARTCHAR 00E2
ENCODING 226
SWIDTH 464 0
DWIDTH 39 0
BBX 31 60 4 -2
BITMAP
00010000
00038000
0007C000
001FF000
003FF800
007FFC00
00FFFE00
03FC7F80
07F01FC0
07E00FC0
03800380
01000100
00000000
00000000
00000000
00000000
00000000
00000000
00FFFC00
07FFFF00
1FFFFF80
3FFFFFC0
3FFFFFE0
1FE07FE0
1E001FF0
08000FF0
000007F0
000007F0
000003F0
000003F0
000003F0
000003F0
000003F0
000003F0
0007FFF0
003FFFF0
01FFFFF0
07FFFFF0
0FFFFFF0
1FFE03F0
3FF003F0
3FC003F0
7F0003F0
7E0003F0
FE0003F0
FC0003F0
FC0003F0
FC0003F0
FC0003F0
FC0003F0
FE0007F0
FE000FF8
FF001FF8
7F007FF8
7FC1FFF8
7FFFFDFC
3FFFF8FE
1FFFE0FE
0FFFC0F8
03FE0060
ENDCHAR
STARTCHAR 00E3
ENCODING 227
SWIDTH 464 0
DWIDTH 39 0
BBX 31 58 4 -1
BITMAP
00FC00C0
03FF01F0
07FFC3F0
0FFFFFE0
0FFFFFE0
1F87FFC0
1F01FF80
0E007F00
00000000
00000000
00000000
00000000
00000000
00000000
00000000
00000000
00FFFC00
07FFFF00
1FFFFF80
3FFFFFC0
3FFFFFE0
1FE07FE0
1E001FF0
08000FF0
000007F0
000007F0
000003F0
000003F0
000003F0
000003F0
000003F0
000003F0
0007FFF0
003FFFF0
01FFFFF0
07FFFFF0
0FFFFFF0
1FFE03F0
3FF003F0
3FC003F0
7F0003F0
7E0003F0
FE0003F0
FC0003F0
FC0003F0
FC0003F0
FC0003F0
FC0003F0
FE0007F0
FE000FF8
FF001FF8
7F007FF8
7FC1FFF8
7FFFFDFC
3FFFF8FE
1FFFE0FE
0FFFC0F8
03FE0060
ENDCHAR
STARTCHAR 00E4
ENCODING 228
SWIDTH 464 0
DWIDTH 39 0
BBX 31 58 4 -1
BITMAP
0FC00FC0
1FE00FE0
1FE01FF0
3FE01FF0
3FE01FF0
3FE01FF0
1FE01FE0
1FC00FE0
03000100
00000000
00000000
00000000
00000000
00000000
00000000
00000000
00FFFC00
07FFFF00
1FFFFF80
3FFFFFC0
3FFFFFE0
1FE07FE0
1E001FF0
08000FF0
000007F0
000007F0
000003F0
000003F0
000003F0
000003F0
000003F0
000003F0
0007FFF0
003FFFF0
01FFFFF0
07FFFFF0
0FFFFFF0
1FFE03F0
3FF003F0
3FC003F0
7F0003F0
7E0003F0
FE0003F0
FC0003F0
FC0003F0
FC0003F0
FC0003F0
FC0003F0
FE0007F0
FE000FF8
FF001FF8
7F007FF8
7FC1FFF8
7FFFFDFC
3FFFF8FE
1FFFE0FE
0FFFC0F8
03FE0060
ENDCHAR
STARTCHAR 00E5
ENCODING 229
SWIDTH 464 0
DWIDTH 39 0
BBX 31 61 4 -1
BITMAP
000FE000
001FF000
003FF800
007FFC00
00783C00
00F01E00
00F01E00
00F01E00
00F01E00
00F83E00
007C7C00
007FFC00
003FF800
000FF000
00038000
00000000
00000000
00000000
00000000
00FFFC00
07FFFF00
1FFFFF80
3FFFFFC0
3FFFFFE0
1FE07FE0
1E001FF0
08000FF0
000007F0
000007F0
000003F0
000003F0
000003F0
000003F0
000003F0
000003F0
0007FFF0
003FFFF0
01FFFFF0
07FFFFF0
0FFFFFF0
1FFE03F0
3FF003F0
3FC003F0
7F0003F0
7E0003F0
FE0003F0
FC0003F0
FC0003F0
FC0003F0
FC0003F0
FC0003F0
FE0007F0
FE000FF8
FF001FF8
7F007FF8
7FC1FFF8
7FFFFDFC
3FFFF8FE
1FFFE0FE
0FFFC0F8
03FE0060
ENDCHAR
STARTCHAR 00E6
ENCODING 230
SWIDTH 702 0
DWIDTH 59 0
BBX 53 42 3 -1
BITMAP
007FF800FFF000
07FFFF03FFFC00
1FFFFF87FFFE00
3FFFFFDFFFFF00
1FFFFFDFFFFF80
1FE07FFFC07FC0
1F000FFF003FC0
080007FE001FE0
000003FC000FE0
000003FC0007F0
000003F80007F0
000003F80007F0
000003F80003F0
000003F00003F8
000003F00003F8
000003F00003F8
00000FFFFFFFF8
000FFFFFFFFFF8
007FFFFFFFFFF8
01FFFFFFFFFFF8
07FFFFFFFFFFF8
0FFFFFFFFFFFF8
1FFC03F0000000
3FE003F0000000
7F8003F0000000
7F0003F8000000
FE0003F8000000
FE0003F8000000
FC0003F8000000
FC0003FC000000
FC0003FC000000
FC0003FE000000
FE0003FE000000
FE0007FF000060
FF001FFF8001E0
7F803FFFE007E0
7FC1FFFFFEFFF0
7FFFFF3FFFFFF0
3FFFFC0FFFFFF0
1FFFF807FFFFC0
0FFFE001FFFF00
01FF00003FF000
ENDCHAR
STARTCHAR 00E7
ENCODING 231
SWIDTH 428 0
DWIDTH 36 0
BBX 29 58 5 -16
BITMAP
001FFC00
007FFF80
01FFFFC0
03FFFFF0
07FFFFF8
0FFC0FF0
0FF003F0
1FC000E0
3F800060
3F800000
7F000000
7F000000
7E000000
7E000000
FE000000
FE000000
FE000000
FE000000
FE000000
FE000000
FE000000
FE000000
FE000000
FE000000
FE000000
FE000000
FE000000
FE000000
FE000000
FE000000
7F000000
7F000000
7F800000
7F800020
3FC000E0
3FF003F0
1FFF7FF0
0FFFFFF8
07FFFFF0
03FFFFC0
00FFFF00
003FF800
000F8000
000F8000
000F8000
000F8000
000FF800
000FFC00
000FFE00
0000FE00
00003E00
00003E00
00207E00
003FFE00
003FFC00
003FF800
003FF000
00030000
ENDCHAR
STARTCHAR 00E8
ENCODING 232
SWIDTH 464 0
DWIDTH 39 0
BBX 31 60 4 -1
BITMAP
00700000
00780000
00FE0000
01FF0000
01FF8000
00FFC000
003FF000
000FF800
0003FC00
0000FF00
00007F00
00001E00
00000600
00000000
00000000
00000000
00000000
00000000
003FFC00
00FFFF00
01FFFF80
03FFFFC0
07FFFFE0
0FF01FF0
1FC007F8
1F8003F8
3F8001FC
3F0001FC
7F0001FC
7E0000FE
7E0000FE
FE0000FE
FE0000FE
FC0000FE
FC00007E
FFFFFFFE
FFFFFFFE
FFFFFFFE
FFFFFFFE
FFFFFFFE
FC000000
FC000000
FE000000
FE000000
FE000000
FE000000
FE000000
7F000000
7F000000
7F800000
3F800000
3FC00018
1FE00038
0FF801FC
0FFFDFFC
07FFFFFC
03FFFFFC
00FFFFF0
007FFFC0
000FFE00
ENDCHAR
STARTCHAR 00E9
ENCODING 233
SWIDTH 464 0
DWIDTH 39 0
BBX 31 60 4 -1
BITMAP
00001C00
00003C00
0000FE00
0001FF00
0003FF00
0007FE00
001FF800
003FE000
007F8000
01FF0000
01FC0000
00F00000
00C00000
00000000
00000000
00000000
00000000
00000000
003FFC00
00FFFF00
01FFFF80
03FFFFC0
07FFFFE0
0FF01FF0
1FC007F8
1F8003F8
3F8001FC
3F0001FC
7F0001FC
7E0000FE
7E0000FE
FE0000FE
FE0000FE
FC0000FE
FC00007E
FFFFFFFE
FFFFFFFE
FFFFFFFE
FFFFFFFE
FFFFFFFE
FC000000
FC000000
FE000000
FE000000
FE000000
FE000000
FE000000
7F000000
7F000000
7F800000
3F800000
3FC00018
1FE00038
0FF801FC
0FFFDFFC
07FFFFFC
03FFFFFC
00FFFFF0
007FFFC0
000FFE00
ENDCHAR
STARTCHAR 00EA
ENCODING 234
SWIDTH 464 0
DWIDTH 39 0
BBX 31 60 4 -2
BITMAP
00010000
00038000
0007C000
001FF000
003FF800
007FFC00
00FFFE00
03FC7F80
07F01FC0
07E00FC0
03800380
01000100
00000000
00000000
00000000
00000000
00000000
00000000
003FFC00
00FFFF00
01FFFF80
03FFFFC0
07FFFFE0
0FF01FF0
1FC007F8
1F8003F8
3F8001FC
3F0001FC
7F0001FC
7E0000FE
7E0000FE
FE0000FE
FE0000FE
FC0000FE
FC00007E
FFFFFFFE
FFFFFFFE
FFFFFFFE
FFFFFFFE
FFFFFFFE
FC000000
FC000000
FE000000
FE000000
FE000000
FE000000
FE000000
7F000000
7F000000
7F800000
3F800000
3FC00018
1FE00038
0FF801FC
0FFFDFFC
07FFFFFC
03FFFFFC
00FFFFF0
007FFFC0
000FFE00
ENDCHAR
STARTCHAR 00EB
ENCODING 235
SWIDTH 464 0
DWIDTH 39 0
BBX 31 58 4 -1
BITMAP
0FC00FC0
1FE00FE0
1FE01FF0
3FE01FF0
3FE01FF0
3FE01FF0
1FE01FE0
1FC00FE0
03000100
00000000
00000000
00000000
00000000
00000000
00000000
00000000
003FFC00
00FFFF00
01FFFF80
03FFFFC0
07FFFFE0
0FF01FF0
1FC007F8
1F8003F8
3F8001FC
3F0001FC
7F0001FC
7E0000FE
7E0000FE
FE0000FE
FE0000FE
FC0000FE
FC00007E
FFFFFFFE
FFFFFFFE
FFFFFFFE
FFFFFFFE
FFFFFFFE
FC000000
FC000000
FE000000
FE000000
FE000000
FE000000
FE000000
7F000000
7F000000
7F800000
3F800000
3FC00018
1FE00038
0FF801FC
0FFFDFFC
07FFFFFC
03FFFFFC
00FFFFF0
007FFFC0
000FFE00
ENDCHAR
STARTCHAR 00EC
ENCODING 236
SWIDTH 273 0
DWIDTH 23 0
BBX 18 59 2 1
BITMAP
0C0000
1E0000
3F8000
3FC000
7FE000
3FF800
0FFC00
03FE00
00FF80
003FC0
000FC0
0003C0
000180
000000
000000
000000
000000
000000
000000
FFFC00
FFFC00
FFFC00
FFFC00
FFFC00
00FC00
00FC00
00FC00
00FC00
00FC00
00FC00
00FC00
00FC00
00FC00
00FC00
00FC00
00FC00
00FC00
00FC00
00FC00
00FC00
00FC00
00FC00
00FC00
00FC00
00FC00
00FC00
00FC00
00FC00
00FC00
00FC00
00FC00
00FC00
00FC00
00FC00
00FC00
00FC00
00FC00
00FC00
00FC00
ENDCHAR
STARTCHAR 00ED
ENCODING 237
SWIDTH 273 0
DWIDTH 23 0
BBX 18 59 2 1
BITMAP
000700
000F00
001F80
007FC0
00FFC0
01FF80
07FE00
0FFC00
1FF000
3FC000
7F0000
3C0000
300000
000000
000000
000000
000000
000000
000000
FFFC00
FFFC00
FFFC00
FFFC00
FFFC00
00FC00
00FC00
00FC00
00FC00
00FC00
00FC00
00FC00
00FC00
00FC00
00FC00
00FC00
00FC00
00FC00
00FC00
00FC00
00FC00
00FC00
00FC00
00FC00
00FC00
00FC00
00FC00
00FC00
00FC00
00FC00
00FC00
00FC00
00FC00
00FC00
00FC00
00FC00
00FC00
00FC00
00FC00
00FC00
ENDCHAR
STARTCHAR 00EE
ENCODING 238
SWIDTH 273 0
DWIDTH 23 0
BBX 21 58 1 1
BITMAP
007000
00F800
01FE00
07FF00
0FFF80
1FFFE0
3F8FF0
FF03F8
FC01F8
780078
200030
000000
000000
000000
000000
000000
000000
000000
7FFE00
7FFE00
7FFE00
7FFE00
7FFE00
007E00
007E00
007E00
007E00
007E00
007E00
007E00
007E00
007E00
007E00
007E00
007E00
007E00
007E00
007E00
007E00
007E00
007E00
007E00
007E00
007E00
007E00
007E00
007E00
007E00
007E00
007E00
007E00
007E00
007E00
007E00
007E00
007E00
007E00
007E00
ENDCHAR
STARTCHAR 00EF
ENCODING 239
SWIDTH 273 0
DWIDTH 23 0
BBX 25 57 -1 1
BITMAP
7E003E00
FF007F00
FF00FF80
FF00FF80
FF00FF80
FF00FF80
FF007F80
7E007F00
18000800
00000000
00000000
00000000
00000000
00000000
00000000
00000000
00000000
1FFF8000
1FFF8000
1FFF8000
1FFF8000
1FFF8000
001F8000
001F8000
001F8000
001F8000
001F8000
001F8000
001F8000
001F8000
001F8000
001F8000
001F8000
001F8000
001F8000
001F8000
001F8000
001F8000
001F8000
001F8000
001F8000
001F8000
001F8000
001F8000
001F8000
001F8000
001F8000
001F8000
001F8000
001F8000
001F8000
001F8000
001F8000
001F8000
001F8000
001F8000
001F8000
ENDCHAR
STARTCHAR 00F0
ENCODING 240
SWIDTH 500 0
DWIDTH 42 0
BBX 34 62 4 -2
BITMAP
0000600000
0003F00C00
0003F83E00
0001FCFE00
0000FFFE00
0000FFF800
00007FE000
0000FF8000
0003FF8000
000FFF8000
003FFFC000
007F8FC000
003E0FE000
001807E000
000007F000
000003F000
000003F800
000001F800
000001FC00
000001FC00
001FF8FC00
007FFEFE00
01FFFF7E00
03FFFFFE00
07FFFFFF00
07F807FF00
0FF003FF00
1FE001FF00
1FC000FF80
3F80007F80
3F80007F80
3F00003F80
7F00003F80
7F00003F80
7F00003FC0
7E00003FC0
7E00001FC0
FE00001FC0
FE00001FC0
FE00001FC0
FE00001FC0
FE00001FC0
FE00001FC0
FE00001F80
FE00001F80
7E00001F80
7F00003F80
7F00003F80
7F00003F80
7F00003F00
7F80007F00
3F80007F00
3F80007E00
1FC000FE00
1FE001FC00
0FF003F800
0FFC0FF800
07FFFFF000
03FFFFE000
01FFFFC000
007FFF0000
000FF80000
ENDCHAR
STARTCHAR 00F1
ENCODING 241
SWIDTH 523 0
DWIDTH 44 0
BBX 31 57 6 1
BITMAP
01F80180
03FE01E0
07FF83E0
0FFFFFE0
1FFFFFC0
1F8FFF80
1F03FF80
0E00FE00
00000000
00000000
00000000
00000000
00000000
00000000
00000000
08000000
1C01FFC0
7C07FFE0
FC1FFFF0
FE7FFFF8
FEFFFFFC
7FFF07FC
7FF801FC
7FE001FC
7FC000FC
7F8000FE
7F0000FE
7F0000FE
7F0000FE
7F0000FE
7F0000FE
7F0000FE
7F0000FE
7F0000FE
7F0000FE
7F0000FE
7F0000FE
7F0000FE
7F0000FE
7F0000FE
7F0000FE
7F0000FE
7F0000FE
7F0000FE
7F0000FE
7F0000FE
7F0000FE
7F0000FE
7F0000FE
7F0000FE
7F0000FE
7F0000FE
7F0000FE
7F0000FE
7F0000FE
7F0000FE
7F0000FE
ENDCHAR
STARTCHAR 00F2
ENCODING 242
SWIDTH 500 0
DWIDTH 42 0
BBX 34 60 4 -1
BITMAP
0018000000
003E000000
003F000000
007F800000
00FFE00000
007FF00000
001FF80000
0007FE0000
0001FF0000
00007F8000
00001FC000
0000078000
0000010000
0000000000
0000000000
0000000000
0000000000
0000000000
001FFE0000
007FFF8000
01FFFFE000
03FFFFF000
07FFFFF800
0FF807FC00
0FF003FC00
1FE001FE00
1FC000FE00
3F80007F00
3F80007F00
3F00003F80
7F00003F80
7F00003F80
7F00003F80
7E00003F80
7E00001F80
FE00001FC0
FE00001FC0
FE00001FC0
FE00001FC0
FE00001FC0
FE00001FC0
FE00001FC0
FE00001FC0
7E00001F80
7F00003F80
7F00003F80
7F00003F80
7F00003F80
7F80007F00
3F80007F00
3F80007F00
1FC000FE00
1FE001FE00
0FF003FC00
0FFC0FF800
07FFFFF000
03FFFFE000
01FFFFC000
007FFF0000
000FFC0000
ENDCHAR
STARTCHAR 00F3
ENCODING 243
SWIDTH 500 0
DWIDTH 42 0
BBX 34 60 4 -1
BITMAP
0000060000
00001F0000
00003F0000
00007F8000
0001FFC000
0003FF8000
0007FE0000
001FF80000
003FE00000
007F800000
00FE000000
0078000000
0020000000
0000000000
0000000000
0000000000
0000000000
0000000000
001FFE0000
007FFF8000
01FFFFE000
03FFFFF000
07FFFFF800
0FF807FC00
0FF003FC00
1FE001FE00
1FC000FE00
3F80007F00
3F80007F00
3F00003F80
7F00003F80
7F00003F80
7F00003F80
7E00003F80
7E00001F80
FE00001FC0
FE00001FC0
FE00001FC0
FE00001FC0
FE00001FC0
FE00001FC0
FE00001FC0
FE00001FC0
7E00001F80
7F00003F80
7F00003F80
7F00003F80
7F00003F80
7F80007F00
3F80007F00
3F80007F00
1FC000FE00
1FE001FE00
0FF003FC00
0FFC0FF800
07FFFFF000
03FFFFE000
01FFFFC000
007FFF0000
000FFC0000
ENDCHAR
STARTCHAR 00F4
ENCODING 244
SWIDTH 500 0
DWIDTH 42 0
BBX 34 59 4 -1
BITMAP
0001E00000
0003F00000
0007F80000
000FFC0000
003FFF0000
007FFF8000
00FE1FC000
01FC0FE000
01F003F000
01E001E000
0080004000
0000000000
0000000000
0000000000
0000000000
0000000000
0000000000
001FFE0000
007FFF8000
01FFFFE000
03FFFFF000
07FFFFF800
0FF807FC00
0FF003FC00
1FE001FE00
1FC000FE00
3F80007F00
3F80007F00
3F00003F80
7F00003F80
7F00003F80
7F00003F80
7E00003F80
7E00001F80
FE00001FC0
FE00001FC0
FE00001FC0
FE00001FC0
FE00001FC0
FE00001FC0
FE00001FC0
FE00001FC0
7E00001F80
7F00003F80
7F00003F80
7F00003F80
7F00003F80
7F80007F00
3F80007F00
3F80007F00
1FC000FE00
1FE001FE00
0FF003FC00
0FFC0FF800
07FFFFF000
03FFFFE000
01FFFFC000
007FFF0000
000FFC0000
ENDCHAR
STARTCHAR 00F5
ENCODING 245
SWIDTH 500 0
DWIDTH 42 0
BBX 34 58 4 -1
BITMAP
007E006000
00FF807800
01FFE0F800
03FFFFF800
07FFFFF000
07E3FFE000
07C0FFE000
03803F8000
0000000000
0000000000
0000000000
0000000000
0000000000
0000000000
0000000000
0000000000
001FFE0000
007FFF8000
01FFFFE000
03FFFFF000
07FFFFF800
0FF807FC00
0FF003FC00
1FE001FE00
1FC000FE00
3F80007F00
3F80007F00
3F00003F80
7F00003F80
7F00003F80
7F00003F80
7E00003F80
7E00001F80
FE00001FC0
FE00001FC0
FE00001FC0
FE00001FC0
FE00001FC0
FE00001FC0
FE00001FC0
FE00001FC0
7E00001F80
7F00003F80
7F00003F80
7F00003F80
7F00003F80
7F80007F00
3F80007F00
3F80007F00
1FC000FE00
1FE001FE00
0FF003FC00
0FFC0FF800
07FFFFF000
03FFFFE000
01FFFFC000
007FFF0000
000FFC0000
ENDCHAR
STARTCHAR 00F6
ENCODING 246
SWIDTH 500 0
DWIDTH 42 0
BBX 34 58 4 -1
BITMAP
07E003F000
0FF007F800
0FF807F800
0FF80FF800
0FF80FF800
0FF807F800
0FF007F800
07F003F000
008000C000
0000000000
0000000000
0000000000
0000000000
0000000000
0000000000
0000000000
001FFE0000
007FFF8000
01FFFFE000
03FFFFF000
07FFFFF800
0FF807FC00
0FF003FC00
1FE001FE00
1FC000FE00
3F80007F00
3F80007F00
3F00003F80
7F00003F80
7F00003F80
7F00003F80
7E00003F80
7E00001F80
FE00001FC0
FE00001FC0
FE00001FC0
FE00001FC0
FE00001FC0
FE00001FC0
FE00001FC0
FE00001FC0
7E00001F80
7F00003F80
7F00003F80
7F00003F80
7F00003F80
7F80007F00
3F80007F00
3F80007F00
1FC000FE00
1FE001FE00
0FF003FC00
0FFC0FF800
07FFFFF000
03FFFFE000
01FFFFC000
007FFF0000
000FFC0000
ENDCHAR
STARTCHAR 00F7
ENCODING 247
SWIDTH 500 0
DWIDTH 42 0
BBX 38 39 2 2
BITMAP
0000200000
0001FC0000
0001FE0000
0003FE0000
0003FF0000
0003FF0000
0003FF0000
0001FE0000
0001FE0000
0000780000
0000000000
0000000000
0000000000
0000000000
0000000000
0000000000
0000000000
FFFFFFFFFC
FFFFFFFFFC
FFFFFFFFFC
FFFFFFFFFC
FFFFFFFFFC
FFFFFFFFF8
0000000000
0000000000
0000000000
0000000000
0000000000
0000000000
0000000000
0000FC0000
0001FE0000
0003FE0000
0003FF0000
0003FF0000
0003FF0000
0001FE0000
0001FE0000
0000780000
ENDCHAR
STARTCHAR 00F8
ENCODING 248
SWIDTH 500 0
DWIDTH 42 0
BBX 34 50 4 -5
BITMAP
0000000800
0000001C00
0000003F00
0000003F00
001FFE7E00
007FFFFC00
00FFFFFC00
03FFFFF800
07FFFFF800
07F807FC00
0FE003FC00
1FC007FE00
1F8007FE00
3F800FFF00
3F000FBF00
3F001F9F00
7E001F1F80
7E003F1F80
7E003E1F80
7E007E1F80
7E00FC1F80
FE00F81FC0
FE01F81FC0
FE01F01FC0
FE03F01FC0
FE03E01FC0
FE07E01FC0
FE07C01FC0
FE0FC01FC0
7E1F801F80
7E1F001F80
7E3F001F80
7E3E003F80
7E7E003F80
3E7C003F00
3FFC003F00
3FF8007F00
1FF800FE00
1FF000FE00
0FF003FC00
0FFC0FF800
07FFFFF000
0FFFFFE000
0FFFFFC000
1FFFFF0000
3F0FFC0000
3F00000000
3E00000000
1C00000000
0400000000
ENDCHAR
STARTCHAR 00F9
ENCODING 249
SWIDTH 500 0
DWIDTH 42 0
BBX 32 60 6 -1
BITMAP
00600000
00F80000
00FC0000
01FE0000
03FF8000
01FFC000
007FE000
001FF800
0007FC00
0001FE00
00007F00
00001E00
00000400
00000000
00000000
00000000
00000000
00000008
7E0000F8
FE0001F8
FE0001F8
FE0001F8
FE0001F8
FE0001F8
FE0001F8
FE0001F8
FE0001F8
FE0001F8
FE0001F8
FE0001F8
FE0001F8
FE0001F8
FE0001F8
FE0001F8
FE0001F8
FE0001F8
FE0001F8
FE0001F8
FE0001F8
FE0001F8
FE0001F8
FE0001F8
FE0001F8
FE0001F8
FE0001F8
FE0001F8
FE0001F8
FE0001F8
FE0001F8
FE0001F8
FE0001F8
FE0007FC
7F000FFC
7F807FFC
7FFBFFFE
3FFFFFFE
3FFFFC7F
1FFFF87F
07FFE03C
01FF8038
ENDCHAR
STARTCHAR 00FA
ENCODING 250
SWIDTH 500 0
DWIDTH 42 0
BBX 32 60 6 -1
BITMAP
00000C00
00003E00
00007F00
0000FF00
0001FF80
0007FF00
000FFC00
001FF000
007FC000
00FF0000
00FC0000
00F00000
00400000
00000000
00000000
00000000
00000000
00000008
7E0000F8
FE0001F8
FE0001F8
FE0001F8
FE0001F8
FE0001F8
FE0001F8
FE0001F8
FE0001F8
FE0001F8
FE0001F8
FE0001F8
FE0001F8
FE0001F8
FE0001F8
FE0001F8
FE0001F8
FE0001F8
FE0001F8
FE0001F8
FE0001F8
FE0001F8
FE0001F8
FE0001F8
FE0001F8
FE0001F8
FE0001F8
FE0001F8
FE0001F8
FE0001F8
FE0001F8
FE0001F8
FE0001F8
FE0007FC
7F000FFC
7F807FFC
7FFBFFFE
3FFFFFFE
3FFFFC7F
1FFFF87F
07FFE03C
01FF8038
ENDCHAR
STARTCHAR 00FB
ENCODING 251
SWIDTH 500 0
DWIDTH 42 0
BBX 32 59 6 -1
BITMAP
00078000
000FC000
001FE000
003FF000
00FFFC00
01FFFE00
03F87F00
07F03F80
07C00FC0
07800780
02000100
00000000
00000000
00000000
00000000
00000000
00000008
7E0000F8
FE0001F8
FE0001F8
FE0001F8
FE0001F8
FE0001F8
FE0001F8
FE0001F8
FE0001F8
FE0001F8
FE0001F8
FE0001F8
FE0001F8
FE0001F8
FE0001F8
FE0001F8
FE0001F8
FE0001F8
FE0001F8
FE0001F8
FE0001F8
FE0001F8
FE0001F8
FE0001F8
FE0001F8
FE0001F8
FE0001F8
FE0001F8
FE0001F8
FE0001F8
FE0001F8
FE0001F8
FE0001F8
FE0007FC
7F000FFC
7F807FFC
7FFBFFFE
3FFFFFFE
3FFFFC7F
1FFFF87F
07FFE03C
01FF8038
ENDCHAR
STARTCHAR 00FC
ENCODING 252
SWIDTH 500 0
DWIDTH 42 0
BBX 32 58 6 -1
BITMAP
1F800FC0
3FC01FE0
3FE01FE0
3FE03FE0
3FE03FE0
3FE01FE0
3FC01FE0
1FC00FC0
02000300
00000000
00000000
00000000
00000000
00000000
00000000
00000008
7E0000F8
FE0001F8
FE0001F8
FE0001F8
FE0001F8
FE0001F8
FE0001F8
FE0001F8
FE0001F8
FE0001F8
FE0001F8
FE0001F8
FE0001F8
FE0001F8
FE0001F8
FE0001F8
FE0001F8
FE0001F8
FE0001F8
FE0001F8
FE0001F8
FE0001F8
FE0001F8
FE0001F8
FE0001F8
FE0001F8
FE0001F8
FE0001F8
FE0001F8
FE0001F8
FE0001F8
FE0001F8
FE0001F8
FE0007FC
7F000FFC
7F807FFC
7FFBFFFE
3FFFFFFE
3FFFFC7F
1FFFF87F
07FFE03C
01FF8038
ENDCHAR
STARTCHAR 00FD
ENCODING 253
SWIDTH 440 0
DWIDTH 37 0
BBX 36 77 0 -17
BITMAP
000001C000
000003C000
00000FE000
00001FF000
00003FF000
00007FE000
0001FF8000
0003FE0000
0007F80000
001FF00000
001FC00000
000F000000
000C000000
0000000000
0000000000
0000000000
0000000000
0000000000
0600000300
1F000003C0
7F000007F0
7F800007F0
3F800007F0
3F80000FE0
1FC0000FE0
1FC0000FE0
1FC0000FC0
0FE0001FC0
0FE0001FC0
0FE0001FC0
07F0001F80
07F0003F80
07F0003F80
03F8003F00
03F8003F00
03F8007F00
01FC007E00
01FC007E00
00FC007E00
00FE00FE00
00FE00FC00
007E00FC00
007F01FC00
007F01F800
003F01F800
003F81F800
003F83F000
001F83F000
001FC3F000
001FC3F000
000FC7E000
000FE7E000
000FE7E000
0007E7C000
0007EFC000
0003FFC000
0003FF8000
0003FF8000
0001FF8000
00003F8000
00003F0000
00003F0000
00007F0000
00007E0000
00007E0000
0000FE0000
0000FC0000
0000FC0000
2001F80000
7803F80000
7E07F80000
FFFFF00000
FFFFE00000
7FFFE00000
3FFF800000
07FF000000
0070000000
ENDCHAR
STARTCHAR 00FE
ENCODING 254
SWIDTH 476 0
DWIDTH 40 0
BBX 30 79 7 -18
BITMAP
0C000000
FC000000
FC000000
FC000000
FC000000
FC000000
FC000000
FC000000
FC000000
FC000000
FC000000
FC000000
FC000000
FC000000
FC000000
FC000000
FC000000
FC000000
FC000000
FC000000
FC1FFC00
FC7FFF00
FDFFFF80
FFFFFFC0
FFFFFFE0
FFF83FE0
FFE00FF0
FF8007F0
FE0007F8
FC0003F8
FC0003F8
FC0003F8
FC0001FC
FC0001FC
FC0001FC
FC0001FC
FC0001FC
FC0001FC
FC0001FC
FC0001FC
FC0001FC
FC0001FC
FC0001FC
FC0001FC
FC0001FC
FC0001FC
FC0001FC
FC0001FC
FC0001F8
FC0003F8
FC0003F8
FC0003F8
FC0003F0
FE0007F0
FF800FE0
FFC01FE0
FFFEFFC0
FFFFFFC0
FFFFFF80
FCFFFF00
FC7FFC00
FC0FF000
FC000000
FC000000
FC000000
FC000000
FC000000
FC000000
FC000000
FC000000
FC000000
FC000000
FC000000
FC000000
FC000000
FC000000
FC000000
F8000000
80000000
ENDCHAR
STARTCHAR 00FF
ENCODING 255
SWIDTH 440 0
DWIDTH 37 0
BBX 36 75 0 -17
BITMAP
01F800F800
03FC01FC00
03FC03FE00
03FC03FE00
03FC03FE00
03FC03FE00
03FC03FE00
01F801FC00
0060002000
0000000000
0000000000
0000000000
0000000000
0000000000
0000000000
0000000000
0600000300
1F000003C0
7F000007F0
7F800007F0
3F800007F0
3F80000FE0
1FC0000FE0
1FC0000FE0
1FC0000FC0
0FE0001FC0
0FE0001FC0
0FE0001FC0
07F0001F80
07F0003F80
07F0003F80
03F8003F00
03F8003F00
03F8007F00
01FC007E00
01FC007E00
00FC007E00
00FE00FE00
00FE00FC00
007E00FC00
007F01FC00
007F01F800
003F01F800
003F81F800
003F83F000
001F83F000
001FC3F000
001FC3F000
000FC7E000
000FE7E000
000FE7E000
0007E7C000
0007EFC000
0003FFC000
0003FF8000
0003FF8000
0001FF8000
00003F8000
00003F0000
00003F0000
00007F0000
00007E0000
00007E0000
0000FE0000
0000FC0000
0000FC0000
2001F80000
7803F80000
7E07F80000
FFFFF00000
FFFFE00000
7FFFE00000
3FFF800000
07FF000000
0070000000
ENDCHAR
STARTCHAR 0131
ENCODING 305
SWIDTH 273 0
DWIDTH 23 0
BBX 14 40 2 1
BITMAP
FFFC
FFFC
FFFC
FFFC
FFFC
00FC
00FC
00FC
00FC
00FC
00FC
00FC
00FC
00FC
00FC
00FC
00FC
00FC
00FC
00FC
00FC
00FC
00FC
00FC
00FC
00FC
00FC
00FC
00FC
00FC
00FC
00FC
00FC
00FC
00FC
00FC
00FC
00FC
00FC
00FC
ENDCHAR
STARTCHAR 0141
ENCODING 321
SWIDTH 440 0
DWIDTH 37 0
BBX 36 58 1 0
BITMAP
00F8000000
01FC000000
01FC000000
01FC000000
01FC000000
01FC000000
01FC000000
01FC000000
01FC000000
01FC000000
01FC000000
01FC000000
01FC000000
01FC000000
01FC000000
01FC000000
01FC000000
01FC000000
01FC00C000
01FC01C000
01FC07C000
01FC1FC000
01FC3FC000
01FCFF8000
01FDFF0000
01FFFC0000
01FFF80000
01FFE00000
01FFC00000
03FF000000
0FFE000000
1FFC000000
7FFC000000
FFFC000000
FFFC000000
F9FC000000
F1FC000000
C1FC000000
01FC000000
01FC000000
01FC000000
01FC000000
01FC000000
01FC000000
01FC000000
01FC000000
01FC000000
01FC000000
01FC000000
01FC000000
01FC000000
01FC000000
01FFFFFFF0
01FFFFFFF0
01FFFFFFE0
01FFFFFFE0
01FFFFFFE0
01FFFFFFC0
ENDCHAR
STARTCHAR 0142
ENCODING 322
SWIDTH 273 0
DWIDTH 23 0
BBX 23 62 1 -2
BITMAP
001800
00FC00
01FC00
01FC00
01FC00
01FC00
01FC00
01FC00
01FC00
01FC00
01FC00
01FC00
01FC00
01FC00
01FC00
01FC00
01FC00
01FC00
01FC00
01FC00
01FC00
01FC04
01FC1C
01FC3C
01FC7C
01FCFC
01FDFC
01FFF8
01FFF0
01FFE0
01FF80
01FF00
01FE00
01FC00
03FC00
07FC00
0FFC00
1FFC00
3FFC00
7FFC00
FFFC00
F9FC00
F1FC00
E1FC00
C1FC00
81FC00
01FC00
01FC00
01FC00
01FC00
01FC00
01FC00
01FC00
01FC00
01FC00
00FC00
00FE0C
00FFFC
00FFFE
007FFE
003FFE
000FF8
ENDCHAR
STARTCHAR 0152
ENCODING 338
SWIDTH 761 0
DWIDTH 64 0
BBX 57 60 4 -2
BITMAP
0000780000000000
000FFF83FFFFFF80
003FFFE7FFFFFF80
007FFFF7FFFFFF80
00FFFFFFFFFFFF80
01FFFFFFFFFFFF00
03FF01FFFFFFFF00
07FC007FF0000000
07F8003FF0000000
0FF0001FF0000000
0FF0000FF0000000
1FE00007F0000000
1FE00007F0000000
3FC00007F0000000
3FC00007F0000000
3F800007F0000000
3F800007F0000000
7F800007F0000000
7F800007F0000000
7F800007F0000000
7F000007F0000000
7F000007F0000000
7F000007F0000000
7F000007F0000000
7F000007F0000000
FF000007F0000000
FF000007FFFFF800
FF000007FFFFF800
FF000007FFFFF800
FF000007FFFFF800
FF000007FFFFF800
FF000007FFFFF800
FF000007F0000000
FF000007F0000000
FF000007F0000000
7F000007F0000000
7F000007F0000000
7F000007F0000000
7F000007F0000000
7F000007F0000000
7F800007F0000000
7F800007F0000000
7F800007F0000000
3F800007F0000000
3F800007F0000000
3FC00007F0000000
3FC00007F0000000
1FC00007F0000000
1FE00007F0000000
0FE00007F0000000
0FF0000FF0000000
07F8001FF0000000
07F8007FF0000000
03FE00FFFFFFFF80
01FFEFFFFFFFFF80
01FFFFFFFFFFFF80
00FFFFF7FFFFFF80
003FFFE7FFFFFF80
001FFF87FFFFFF80
0003FE0000000000
ENDCHAR
STARTCHAR 0153
ENCODING 339
SWIDTH 773 0
DWIDTH 65 0
BBX 58 42 4 -1
BITMAP
001FFE0003FF8000
007FFF800FFFE000
01FFFFC03FFFF000
03FFFFE07FFFF800
07FFFFF0FFFFFC00
0FF807F9FE03FE00
0FE003FFF801FE00
1FC001FFF000FF00
3F8000FFE0007F00
3F80007FE0003F80
3F00007FC0003F80
7F00007FC0003F80
7F00003FC0001FC0
7E00003FC0001FC0
FE00003F80001FC0
FE00003F80001FC0
FE00001FFFFFFFC0
FE00001FFFFFFFC0
FE00001FFFFFFFC0
FE00001FFFFFFFC0
FE00001FFFFFFFC0
FE00001FFFFFFFC0
FE00001F80000000
FE00001F80000000
FE00001F80000000
FE00003FC0000000
FE00003FC0000000
FE00003FC0000000
7F00003FC0000000
7F00003FE0000000
7F00007FE0000000
7F80007FF0000000
3F80007FF0000000
3FC000FFF8000300
1FC001FFFC000700
1FF003F9FF003F00
0FFC0FF9FFF3FF80
07FFFFF0FFFFFF80
03FFFFE07FFFFF80
01FFFFC03FFFFE00
007FFF000FFFF800
001FF80001FF8000
ENDCHAR
STARTCHAR 0160
ENCODING 352
SWIDTH 464 0
DWIDTH 39 0
BBX 34 77 2 -2
BITMAP
0040004000
00E000E000
01F803F000
01FC07F000
00FF1FE000
003FBF8000
001FFF0000
000FFE0000
0007FC0000
0001F00000
0000E00000
0000400000
0000000000
0000000000
0000000000
0000000000
0000000000
0001F80000
001FFFC000
007FFFF800
00FFFFFE00
03FFFFFF00
07FFFFFF00
0FFF0FFF00
0FF8007E00
1FE0001E00
1FE0000400
3FC0000000
3FC0000000
3F80000000
3F80000000
3F80000000
3F80000000
3F80000000
3FC0000000
3FC0000000
3FE0000000
1FE0000000
1FF0000000
1FFC000000
0FFE000000
07FF800000
03FFE00000
01FFF80000
00FFFC0000
007FFF0000
001FFFC000
0007FFE000
0003FFF000
0000FFF800
00003FFC00
00000FFE00
000007FE00
000003FF00
000001FF00
000000FF80
0000007F80
0000007F80
0000003FC0
0000003FC0
0000003FC0
0000003FC0
0000003FC0
0000003FC0
0000003F80
0000003F80
0000007F80
2000007F80
7C0000FF00
7F0001FF00
7FE007FE00
FFFFFFFC00
FFFFFFF800
3FFFFFF000
0FFFFFC000
03FFFF8000
003FFC0000
ENDCHAR
STARTCHAR 0161
ENCODING 353
SWIDTH 392 0
DWIDTH 33 0
BBX 26 59 3 -1
BITMAP
0E000E00
1F003F00
1FC07F00
0FE1FE00
07FBFC00
03FFF000
00FFE000
007FC000
003F8000
001E0000
00040000
00000000
00000000
00000000
00000000
00000000
00000000
00FFF000
03FFFE00
07FFFF00
0FFFFF00
1FFFFF00
1FE03F00
3F800E00
3F000000
7F000000
7F000000
7F000000
7F000000
7F000000
7F000000
3F800000
3FC00000
1FF00000
1FFC0000
0FFF0000
07FFC000
01FFF000
007FF800
001FFE00
0007FF00
0001FF00
0000FF80
00003F80
00001FC0
00001FC0
00000FC0
00000FC0
00000FC0
00000FC0
00001FC0
70001F80
7C003F80
7FE1FF00
FFFFFF00
FFFFFE00
7FFFFC00
0FFFF000
00FFC000
ENDCHAR
STARTCHAR 0178
ENCODING 376
SWIDTH 476 0
DWIDTH 40 0
BBX 40 75 0 0
BITMAP
0010000000
00FE007E00
00FF00FF00
01FF00FF00
01FF00FF80
01FF00FF80
01FF00FF00
00FF00FF00
00FE007E00
0000000000
0000000000
0000000000
0000000000
0000000000
0000000000
0000000000
0000000000
0F00000078
FF0000007F
FF800000FF
7F800000FF
7F800001FE
3FC00001FE
3FC00003FC
1FE00003FC
1FE00007F8
0FF00007F8
0FF0000FF0
07F8000FF0
03F8001FE0
03FC001FE0
01FC003FC0
01FE003F80
00FE007F80
00FF007F00
007F007F00
007F80FE00
003F80FE00
003FC1FC00
001FC1FC00
001FE3F800
000FE3F800
000FF7F000
0007F7E000
0007FFE000
0003FFC000
0001FFC000
0001FF8000
0000FF8000
0000FF0000
00007F0000
00007F0000
00007F0000
00007F0000
00007F0000
00007F0000
00007F0000
00007F0000
00007F0000
00007F0000
00007F0000
00007F0000
00007F0000
00007F0000
00007F0000
00007F0000
00007F0000
00007F0000
00007F0000
00007F0000
00007F0000
00007F0000
00007F0000
00007F0000
00007F0000
ENDCHAR
STARTCHAR 017D
ENCODING 381
SWIDTH 440 0
DWIDTH 37 0
BBX 34 76 2 0
BITMAP
008000C000
01C001C000
03F007E000
03F80FE000
01FE3FC000
007F7F8000
003FFE0000
001FFC0000
000FF80000
0003F00000
0001C00000
0000800000
0000000000
0000000000
0000000000
0000000000
0000000000
0000000000
0FFFFFFF00
1FFFFFFF80
3FFFFFFF80
3FFFFFFF80
3FFFFFFF80
7FFFFFFF80
0000007F80
000000FF00
000000FE00
000001FE00
000001FC00
000003FC00
000003F800
000007F800
00000FF000
00000FF000
00001FE000
00001FE000
00003FC000
00003FC000
00007F8000
00007F0000
0000FF0000
0000FE0000
0001FE0000
0001FC0000
0003FC0000
0003F80000
0007F80000
000FF00000
000FF00000
001FE00000
001FE00000
003FC00000
003FC00000
007F800000
007F000000
00FF000000
00FE000000
01FE000000
01FC000000
03FC000000
07F8000000
07F8000000
0FF0000000
0FF0000000
1FE0000000
1FE0000000
3FC0000000
3FC0000000
7F80000000
7F00000000
FFFFFFFF80
FFFFFFFFC0
FFFFFFFFC0
FFFFFFFFC0
FFFFFFFFC0
FFFFFFFFC0
ENDCHAR
STARTCHAR 017E
ENCODING 382
SWIDTH 404 0
DWIDTH 34 0
BBX 30 59 3 0
BITMAP
00000200
07000700
0F801F00
0FE03F80
07F0FF00
03FDFC00
01FFF800
00FFF000
003FE000
001F8000
000F0000
00060000
00000000
00000000
00000000
00000000
00000000
00000000
00000000
7FFFFFF8
7FFFFFF8
7FFFFFF8
7FFFFFF8
3FFFFFF8
000007F0
00000FE0
00001FE0
00001FC0
00003F80
00007F00
0000FF00
0000FE00
0001FC00
0003FC00
0003F800
0007F000
000FF000
000FE000
001FC000
003FC000
003F8000
007F0000
00FF0000
01FE0000
01FC0000
03F80000
07F80000
07F00000
0FE00000
1FE00000
1FC00000
3F800000
7F800000
7F000000
FFFFFFFC
FFFFFFF8
FFFFFFF8
FFFFFFF0
FFFFFFF0
ENDCHAR
STARTCHAR 0192
ENCODING 402
SWIDTH 500 0
DWIDTH 42 0
BBX 50 78 -7 -17
BITMAP
0000000007F000
000000003FFF00
000000007FFFC0
00000001FFFFC0
00000001FFFF80
00000003FC1F80
00000007F00300
00000007E00000
0000000FE00000
0000000FC00000
0000000FC00000
0000000FC00000
0000001F800000
0000001F800000
0000001F800000
0000001F800000
0000001F800000
0000003F000000
0000003F000000
0000003F000000
0000003F000000
00001FFFFFF000
00001FFFFFF000
00003FFFFFF000
00003FFFFFE000
00001FFFFFC000
000000FC000000
000000FC000000
000000FC000000
000000FC000000
000001FC000000
000001F8000000
000001F8000000
000001F8000000
000001F8000000
000003F8000000
000003F0000000
000003F0000000
000003F0000000
000007F0000000
000007E0000000
000007E0000000
000007E0000000
000007E0000000
00000FE0000000
00000FC0000000
00000FC0000000
00000FC0000000
00001FC0000000
00001F80000000
00001F80000000
00001F80000000
00003F80000000
00003F80000000
00003F00000000
00003F00000000
00003F00000000
00007F00000000
00007E00000000
00007E00000000
00007E00000000
0000FE00000000
0000FE00000000
0000FC00000000
0000FC00000000
0000FC00000000
0001FC00000000
0001F800000000
0003F800000000
0003F000000000
0007F000000000
001FE000000000
3EFFE000000000
7FFFC000000000
7FFF8000000000
7FFF0000000000
FFFC0000000000
3FE00000000000
ENDCHAR
STARTCHAR 02C6
ENCODING 710
SWIDTH 309 0
DWIDTH 26 0
BBX 21 11 2 48
BITMAP
007000
00FC00
01FE00
03FF00
0FFFC0
1FFFE0
3F8FF0
7F03F8
FC00F8
780078
200010
ENDCHAR
STARTCHAR 02C7
ENCODING 711
SWIDTH 309 0
DWIDTH 26 0
BBX 22 11 2 48
BITMAP
700030
7C00F8
FE03FC
7F87F0
1FDFE0
0FFFC0
07FF80
03FE00
00FC00
007800
003000
ENDCHAR
STARTCHAR 02C9
ENCODING 713
SWIDTH 309 0
DWIDTH 26 0
BBX 20 5 3 51
BITMAP
FFFFF0
FFFFF0
FFFFF0
FFFFF0
FFFFF0
ENDCHAR
STARTCHAR 02D8
ENCODING 728
SWIDTH 309 0
DWIDTH 26 0
BBX 22 11 2 47
BITMAP
7800F8
FC00FC
FC00FC
7C00F8
7E01F8
7F03F0
3FFFF0
1FFFE0
0FFFC0
07FF80
00FC00
ENDCHAR
STARTCHAR 02D9
ENCODING 729
SWIDTH 309 0
DWIDTH 26 0
BBX 10 10 8 47
BITMAP
0C00
7F00
7F80
FFC0
FFC0
FFC0
FFC0
FFC0
7F80
3F00
ENDCHAR
STARTCHAR 02DA
ENCODING 730
SWIDTH 309 0
DWIDTH 26 0
BBX 14 15 6 46
BITMAP
0FC0
3FF0
7FF8
FFF8
F03C
F03C
F03C
F03C
F03C
F03C
F87C
7FF8
3FF0
1FE0
0700
ENDCHAR
STARTCHAR 02DB
ENCODING 731
SWIDTH 309 0
DWIDTH 26 0
BBX 14 18 6 -14
BITMAP
0060
07C0
0FC0
1F80
1F00
3E00
7C00
7C00
F800
F800
F800
F800
F818
FC7C
FFFC
7FFC
3FF8
0FC0
ENDCHAR
STARTCHAR 02DC
ENCODING 732
SWIDTH 309 0
DWIDTH 26 0
BBX 25 8 0 49
BITMAP
07E00600
0FF80780
1FFE0F80
3FFFFF80
7FFFFF00
7E3FFE00
F80FFC00
3803F800
ENDCHAR
STARTCHAR 02DD
ENCODING 733
SWIDTH 309 0
DWIDTH 26 0
BBX 26 14 0 46
BITMAP
00600600
00F00F00
00FC1F80
01FC3FC0
03FC7F80
07F07F00
0FE0FE00
0FC1FC00
1F83F000
3F07E000
7E07C000
FC0F8000
F80F0000
60060000
ENDCHAR
STARTCHAR 03A9
ENCODING 937
SWIDTH 642 0
DWIDTH 54 0
BBX 46 55 4 1
BITMAP
00003FF80000
0001FFFF0000
0007FFFFC000
001FFFFFE000
003FFFFFF000
007FF03FFC00
00FF8007FE00
01FE0001FE00
03FC0000FF00
07F800007F80
07F000003FC0
0FE000001FC0
1FE000001FE0
1FC000000FE0
1F80000007E0
3F80000007F0
3F80000007F0
3F00000003F0
7F00000003F8
7F00000003F8
7E00000001F8
7E00000001F8
7E00000001F8
7E00000001F8
7E00000001F8
7E00000001F8
7E00000001F8
7E00000001F8
7E00000001F8
7E00000001F8
7E00000001F8
7E00000001F8
7E00000001F8
7F00000001F0
3F00000003F0
3F00000003F0
3F00000003F0
1F80000003E0
1F80000007E0
0F80000007C0
0FC000000FC0
07C000000F80
07E000001F80
03E000001F00
03F000003F00
01F000003E00
00F800007C00
007C0000F800
003E0001F000
001F0003E000
FFFF8007FFFC
FFFFC00FFFFC
FFFFC00FFFFC
FFFFC00FFFFC
FFFFC00FFFFC
ENDCHAR
STARTCHAR 03BC
ENCODING 956
SWIDTH 559 0
DWIDTH 47 0
BBX 32 58 6 -17
BITMAP
3C000078
FE0001F8
FE0001F8
FE0001F8
FE0001F8
FE0001F8
FE0001F8
FE0001F8
FE0001F8
FE0001F8
FE0001F8
FE0001F8
FE0001F8
FE0001F8
FE0001F8
FE0001F8
FE0001F8
FE0001F8
FE0001F8
FE0001F8
FE0001F8
FE0001F8
FE0001F8
FE0001F8
FE0001F8
FE0001F8
FE0001F8
FE0001F8
FE0001F8
FE0001F8
FE0001F8
FE0001F8
FE0007FC
FF000FFC
FF807FFC
FFFBFFFE
FFFFFFFE
FFFFFC7F
FFFFF87F
FFFFE03C
FE7F8038
FE000000
FE000000
FE000000
FE000000
FE000000
FE000000
FE000000
FE000000
FE000000
FE000000
FE000000
FE000000
FE000000
FE000000
FE000000
FC000000
40000000
ENDCHAR
STARTCHAR 03C0
ENCODING 960
SWIDTH 511 0
DWIDTH 43 0
BBX 41 40 1 1
BITMAP
3FFFFFFFFF80
FFFFFFFFFF80
FFFFFFFFFF80
FFFFFFFFFF80
FFFFFFFFFF00
407E000FC000
007E000FC000
007E000FC000
007E000FC000
007E000FC000
007E000FC000
00FE000FC000
00FC000FC000
00FC000FC000
00FC000FC000
00FC000FC000
00FC000FC000
00FC000FC000
00FC000FC000
00FC000FC000
01FC000FC000
01F8000FC000
01F8000FC000
01F8000FC000
01F8000FC000
01F8000FC000
01F8000FC000
03F0000FC000
03F0000FC000
03F0000FC000
03F0000FC000
03F0000FC000
07F0000FE000
07E0000FE000
07E0000FE000
07E00007E000
0FE00007E000
0FC00007E000
0FC00007E000
0FC00007E000
ENDCHAR
STARTCHAR 2013
ENCODING 8211
SWIDTH 500 0
DWIDTH 42 0
BBX 34 5 4 19
BITMAP
FFFFFFFFC0
FFFFFFFFC0
FFFFFFFFC0
FFFFFFFFC0
FFFFFFFFC0
ENDCHAR
STARTCHAR 2014
ENCODING 8212
SWIDTH 1000 0
DWIDTH 84 0
BBX 76 5 4 19
BITMAP
FFFFFFFFFFFFFFFFFFF0
FFFFFFFFFFFFFFFFFFF0
FFFFFFFFFFFFFFFFFFF0
FFFFFFFFFFFFFFFFFFF0
FFFFFFFFFFFFFFFFFFF0
ENDCHAR
STARTCHAR 2018
ENCODING 8216
SWIDTH 190 0
DWIDTH 16 0
BBX 14 20 1 41
BITMAP
0078
007C
00F8
00F8
01F8
01F8
03F0
03F0
07F0
07E0
0FE0
1FE0
1FC0
3FC0
3FC0
7FC0
7F80
FF80
FF80
FF00
ENDCHAR
STARTCHAR 2019
ENCODING 8217
SWIDTH 190 0
DWIDTH 16 0
BBX 14 20 1 41
BITMAP
07FC
07FC
0FF8
0FF8
0FF0
0FE0
1FE0
1FC0
1FC0
3F80
3F80
3F00
7F00
7E00
7E00
7C00
F800
F800
F000
1000
ENDCHAR
STARTCHAR 201A
ENCODING 8218
SWIDTH 190 0
DWIDTH 16 0
BBX 14 20 0 -11
BITMAP
03F8
07FC
07F8
0FF8
0FF0
0FF0
1FE0
1FE0
1FC0
3FC0
3F80
3F00
3F00
7E00
7E00
7C00
FC00
F800
F800
7000
ENDCHAR
STARTCHAR 201C
ENCODING 8220
SWIDTH 404 0
DWIDTH 34 0
BBX 29 20 3 41
BITMAP
003800F0
007C00F8
00FC01F0
00F801F0
01F803F0
01F803E0
03F007E0
03F00FE0
07F00FE0
07E01FC0
0FE01FC0
0FE03FC0
1FE03F80
3FC07F80
3FC07F80
7FC0FF00
7F80FF00
FF81FF00
FF81FF00
FF01FE00
ENDCHAR
STARTCHAR 201D
ENCODING 8221
SWIDTH 404 0
DWIDTH 34 0
BBX 29 20 3 41
BITMAP
07FC0FF8
0FF81FF0
0FF81FF0
0FF01FE0
0FF03FE0
1FE03FC0
1FE03F80
1FC07F80
3FC07F00
3F807F00
3F007E00
3F00FE00
7E00FC00
7E00FC00
7C01F800
FC01F800
F801F000
F801E000
F001E000
20004000
ENDCHAR
STARTCHAR 201E
ENCODING 8222
SWIDTH 404 0
DWIDTH 34 0
BBX 29 20 3 -11
BITMAP
03FC07F0
07FC0FF8
07F81FF0
0FF81FF0
0FF01FE0
0FF01FE0
0FE03FC0
1FE03FC0
1FC03F80
1FC07F00
3F807F00
3F807E00
3F007E00
7F00FC00
7E00FC00
7C00F800
7C01F800
F801F000
F801F000
7001E000
ENDCHAR
STARTCHAR 2020
ENCODING 8224
SWIDTH 500 0
DWIDTH 42 0
BBX 28 76 7 -18
BITMAP
000F0000
001F8000
001F8000
001F8000
001F8000
001F8000
001F8000
001F8000
001F8000
001F8000
001F8000
001F8000
001F8000
001F8000
001F8000
001F8000
001F8000
001F8000
001F8000
7FFFFFE0
FFFFFFF0
FFFFFFF0
FFFFFFF0
FFFFFFF0
FFFFFFF0
001F8000
001F8000
001F8000
001F8000
001F8000
001F8000
001F8000
001F8000
001F8000
001F8000
001F8000
001F8000
001F8000
001F8000
001F8000
001F8000
001F8000
001F8000
001F8000
001F8000
001F8000
001F8000
001F8000
001F8000
001F8000
001F8000
001F8000
001F8000
001F8000
001F8000
001F8000
001F8000
001F8000
001F8000
001F8000
001F8000
001F8000
001F8000
001F8000
001F8000
001F8000
001F8000
001F8000
001F8000
001F8000
001F8000
001F8000
001F8000
001F8000
001F8000
001F8000
ENDCHAR
STARTCHAR 2021
ENCODING 8225
SWIDTH 500 0
DWIDTH 42 0
BBX 28 76 7 -18
BITMAP
000F0000
001F8000
001F8000
001F8000
001F8000
001F8000
001F8000
001F8000
001F8000
001F8000
001F8000
001F8000
001F8000
001F8000
001F8000
001F8000
001F8000
001F8000
001F8000
7FFFFFE0
FFFFFFF0
FFFFFFF0
FFFFFFF0
FFFFFFF0
FFFFFFF0
001F8000
001F8000
001F8000
001F8000
001F8000
001F8000
001F8000
001F8000
001F8000
001F8000
001F8000
001F8000
001F8000
001F8000
001F8000
001F8000
001F8000
001F8000
001F8000
001F8000
001F8000
001F8000
001F8000
001F8000
001F8000
001F8000
FFFFFFF0
FFFFFFF0
FFFFFFF0
FFFFFFF0
FFFFFFF0
7FFFFFE0
001F8000
001F8000
001F8000
001F8000
001F8000
001F8000
001F8000
001F8000
001F8000
001F8000
001F8000
001F8000
001F8000
001F8000
001F8000
001F8000
001F8000
001F8000
001F8000
ENDCHAR
STARTCHAR 2022
ENCODING 8226
SWIDTH 500 0
DWIDTH 42 0
BBX 30 30 6 16
BITMAP
007FF800
01FFFE00
03FFFF00
07FFFF80
0FFFFFC0
1FFFFFE0
3FFFFFF0
3FFFFFF0
7FFFFFF8
7FFFFFF8
FFFFFFFC
FFFFFFFC
FFFFFFFC
FFFFFFFC
FFFFFFFC
FFFFFFFC
FFFFFFFC
FFFFFFFC
FFFFFFFC
7FFFFFF8
7FFFFFF8
7FFFFFF8
3FFFFFF0
1FFFFFE0
1FFFFFE0
0FFFFFC0
07FFFF80
01FFFE00
007FF800
000FC000
ENDCHAR
STARTCHAR 2026
ENCODING 8230
SWIDTH 1000 0
DWIDTH 84 0
BBX 68 11 8 1
BITMAP
1F800001F800001F80
7FE00007FC00007FC0
7FE00007FE00007FE0
7FE00007FE00007FE0
FFF0000FFF0000FFF0
FFF0000FFF0000FFF0
FFF0000FFF0000FFF0
7FE00007FE00007FE0
7FE00007FE00007FE0
3FC00003FC00003FC0
1F800001F800001F80
ENDCHAR
STARTCHAR 2030
ENCODING 8240
SWIDTH 1107 0
DWIDTH 93 0
BBX 85 56 4 -1
BITMAP
01FF00003F000000000000
07FFC0003E000000000000
0FFFE0007E000000000000
1FFFF0007E000000000000
3FE7F8007C000000000000
3F81F800FC000000000000
3F00FC00FC000000000000
7E00FC00FC000000000000
7E00FC01F8000000000000
7C007C01F8000000000000
7C007C01F8000000000000
FC007E03F0000000000000
FC007E03F0000000000000
FC007E03F0000000000000
FC007E03E0000000000000
FC007E07E0000000000000
FC007C07E0000000000000
FC007C07C0000000000000
7C007C0FC0000000000000
7C00FC0FC0000000000000
7E00FC0FC0000000000000
7E00F81F80000000000000
3F01F81F80000000000000
3F87F81F80000000000000
1FFFF03F00000000000000
1FFFE03F00000000000000
0FFFC03F00000000000000
03FF003E00000000000000
0000007E003FF00007FE00
0000007E00FFF8001FFF80
0000007C01FFFC003FFFC0
000000FC03FFFE007FFFE0
000000FC07F87F007F0FE0
000000F807E03F00FE07F0
000001F80FC01F80FC03F0
000001F80FC01F80F801F0
000001F80FC01F81F801F8
000003F00F800F81F801F8
000003F01F800F81F001F8
000003F01F800FC1F001F8
000003E01F800FC1F001F8
000007E01F800FC1F001F8
000007E01F800FC1F001F8
000007C01F800FC1F001F8
00000FC01F800F81F001F8
00000FC01F800F81F001F8
00000F801F800F81F801F8
00001F800F801F81F801F0
00001F800FC01F81F803F0
00001F800FC03F00FC03F0
00003F0007E07F00FE07E0
00003F0007F9FE007F9FE0
00003F0003FFFE007FFFC0
00003E0001FFFC003FFF80
00007E0000FFF8001FFF00
00007E00003FC00007FC00
ENDCHAR
STARTCHAR 2039
ENCODING 8249
SWIDTH 297 0
DWIDTH 25 0
BBX 19 38 2 2
BITMAP
000380
0007E0
0007E0
000FC0
001FC0
003F80
007F00
007F00
00FE00
01FC00
03FC00
07F800
07F000
0FF000
1FE000
3FC000
7F8000
7F8000
FF0000
FF0000
7F8000
3FC000
1FC000
1FE000
0FF000
07F000
03F800
03FC00
01FC00
00FE00
007F00
003F00
003F80
001FC0
000FC0
0007E0
0003C0
000300
ENDCHAR
STARTCHAR 203A
ENCODING 8250
SWIDTH 297 0
DWIDTH 25 0
BBX 19 38 4 2
BITMAP
380000
F80000
FC0000
7E0000
7F0000
3F8000
1F8000
1FC000
0FE000
07F000
07F800
03F800
01FC00
01FE00
00FF00
007F80
007F80
003FC0
001FE0
001FE0
003FC0
007F80
007F00
00FF00
01FE00
01FC00
03F800
07F000
0FF000
0FE000
1FC000
3F8000
3F0000
7F0000
FE0000
FC0000
780000
100000
ENDCHAR
STARTCHAR 2044
ENCODING 8260
SWIDTH 226 0
DWIDTH 19 0
BBX 28 56 -4 -1
BITMAP
000001F0
000003F0
000003F0
000007E0
000007E0
000007E0
00000FC0
00000FC0
00001F80
00001F80
00003F00
00003F00
00003F00
00007E00
00007E00
0000FC00
0000FC00
0000F800
0001F800
0001F800
0003F000
0003F000
0007E000
0007E000
0007E000
000FC000
000FC000
001F8000
001F8000
001F0000
003F0000
003F0000
007E0000
007E0000
00FC0000
00FC0000
00FC0000
01F80000
01F80000
03F00000
03F00000
03E00000
07E00000
07E00000
0FC00000
0FC00000
1F800000
1F800000
1F000000
3F000000
3F000000
7E000000
7E000000
FC000000
FC000000
FC000000
ENDCHAR
STARTCHAR 20AC
ENCODING 8364
SWIDTH 500 0
DWIDTH 42 0
BBX 39 56 2 -1
BITMAP
00001FFC00
00007FFF80
0001FFFFE0
0003FFFFF0
0007FFFFF8
000FFF3FFC
001FF007FC
003FE001F8
003F8000F8
007F800020
007F000000
00FE000000
00FE000000
00FE000000
01FC000000
01FC000000
01FC000000
01FC000000
01F8000000
01F8000000
03F8000000
FFFFFFF800
FFFFFFF800
FFFFFFF800
7FFFFFF000
03F8000000
03F8000000
03F8000000
03F8000000
03F8000000
FFFFFFF800
FFFFFFF800
FFFFFFF800
FFFFFFF800
03F8000000
01F8000000
01FC000000
01FC000000
01FC000000
01FC000000
01FC000000
00FE000000
00FE000000
00FF000000
007F000000
007F800000
003F800010
003FC00078
001FE000FC
001FF803FE
000FFFBFFE
0007FFFFFC
0003FFFFF8
0000FFFFE0
00007FFF80
00000FFC00
ENDCHAR
STARTCHAR 2113
ENCODING 8467
SWIDTH 440 0
DWIDTH 37 0
BBX 33 61 2 -1
BITMAP
0000600000
0007FE0000
000FFF0000
001FFF8000
003FFFC000
007F0FC000
007E03E000
00FC03E000
00FC01E000
01F801E000
01F801F000
01F801F000
01F801F000
01F001F000
03F001F000
03F001F000
03F001E000
03F001E000
03F001E000
03F003E000
03F003C000
03F007C000
03F007C000
03F0078000
03F00F8000
03F01F0000
03F01F0000
03F03E0000
03F07E0000
03F07C0000
03F0F80000
03F1F80000
03F3F00000
03F3E00000
03F7C00000
03FFC00000
03FF800000
03FF000000
03FE000000
03FC000000
03F8000000
07F0000000
0FF0000000
1FF0000000
7FF0000000
FFF0000000
7BF0000000
73F0000000
23F8000000
01F8000300
01F8000780
01FC000F80
01FC001F00
00FE003F00
00FF007E00
007FC1FC00
007FFFF800
003FFFF000
001FFFE000
0007FF8000
0000FC0000
ENDCHAR
STARTCHAR 2122
ENCODING 8482
SWIDTH 702 0
DWIDTH 59 0
BBX 42 25 6 33
BITMAP
FFFF1F800FC0
FFFF1FC01FC0
FFFF1FC01FC0
FFFF1DC01DC0
03C01DC01DC0
03C01DE03DC0
03C01CE03DC0
03C01CE039C0
03C01CF079C0
03C01CF079C0
03C01C7079C0
03C01C7071C0
03C01C78F1C0
03C01C78F1C0
03C01C38F1C0
03C01C38E1C0
03C01C3DE1C0
03C01C3DE1C0
03C01C1DC1C0
03C01C1DC1C0
03C01C1FC1C0
03C01C0FC1C0
03C01C0F81C0
03C01C0F81C0
03C01C0F81C0
ENDCHAR
STARTCHAR 2126
ENCODING 8486
SWIDTH 642 0
DWIDTH 54 0
BBX 46 55 4 1
BITMAP
00003FF80000
0001FFFF0000
0007FFFFC000
001FFFFFE000
003FFFFFF000
007FF03FFC00
00FF8007FE00
01FE0001FE00
03FC0000FF00
07F800007F80
07F000003FC0
0FE000001FC0
1FE000001FE0
1FC000000FE0
1F80000007E0
3F80000007F0
3F80000007F0
3F00000003F0
7F00000003F8
7F00000003F8
7E00000001F8
7E00000001F8
7E00000001F8
7E00000001F8
7E00000001F8
7E00000001F8
7E00000001F8
7E00000001F8
7E00000001F8
7E00000001F8
7E00000001F8
7E00000001F8
7E00000001F8
7F00000001F0
3F00000003F0
3F00000003F0
3F00000003F0
1F80000003E0
1F80000007E0
0F80000007C0
0FC000000FC0
07C000000F80
07E000001F80
03E000001F00
03F000003F00
01F000003E00
00F800007C00
007C0000F800
003E0001F000
001F0003E000
FFFF8007FFFC
FFFFC00FFFFC
FFFFC00FFFFC
FFFFC00FFFFC
FFFFC00FFFFC
ENDCHAR
STARTCHAR 212E
ENCODING 8494
SWIDTH 809 0
DWIDTH 68 0
BBX 62 56 3 -1
BITMAP
000000FFFC000000
00000FFFFFC00000
00007F0003F00000
0001F800007E0000
0007E000001F0000
000F80000007C000
001F00000003E000
007C00000000F000
00F8000000007C00
01F0000000003E00
03E0000000001F00
07E0000000001F00
07E0000000001F80
0FE0000000001FC0
1FE0000000001FC0
1FE0000000001FE0
3FE0000000001FF0
3FE0000000001FF0
7FE0000000001FF0
7FE0000000001FF8
7FE0000000001FF8
FFE0000000001FF8
FFE0000000001FFC
FFE0000000001FFC
FFE0000000001FFC
FFE0000000001FFC
FFE0000000001FFC
FFFFFFFFFFFFFFFC
FFFFFFFFFFFFFFFC
FFE0000000000000
FFE0000000000000
FFE0000000000000
FFE0000000000000
FFE0000000000000
FFE0000000000000
7FE0000000000000
7FE0000000000000
7FE0000000000000
3FE0000000000000
3FE0000000000000
1FE0000000000000
1FE0000000000000
0FE0000000000000
07E0000000000000
07E0000000000000
03E0000000001E00
01F0000000003C00
00F8000000007800
007C00000000F000
001E00000001E000
000F80000007C000
0003E000001F0000
0001F800007E0000
00007E0001F80000
00000FF87FC00000
000000FFFC000000
ENDCHAR
STARTCHAR 2202
ENCODING 8706
SWIDTH 500 0
DWIDTH 42 0
BBX 35 62 3 -1
BITMAP
0007800000
00FFFC0000
03FFFF0000
0FFFFF8000
1FFFFFC000
1FFCFFE000
0F801FF000
0E0007F800
0C0003FC00
000001FC00
000000FE00
0000007E00
0000007F00
0000003F00
0000003F80
0000001F80
0000001F80
0000001F80
0000000FC0
0000000FC0
0000000FC0
0000000FC0
0000000FC0
00000007C0
000FF007E0
003FFE07E0
00FFFF07E0
01FFFFC7E0
03FFFFE7E0
07FE0FF7E0
0FF001F7E0
1FE000FFE0
1FC0007FE0
3FC0003FE0
3F80001FE0
7F00001FE0
7F00000FC0
7E00000FC0
7E00000FC0
7E00000FC0
FE00001FC0
FC00001FC0
FC00001FC0
FC00001F80
FC00001F80
FC00003F80
FC00003F00
FE00003F00
7E00007F00
7E00007E00
7E0000FE00
7F0001FC00
3F0001FC00
3F8003F800
1FC007F800
1FE00FF000
0FFCFFE000
07FFFFC000
03FFFF8000
01FFFE0000
007FFC0000
000FC00000
ENDCHAR
STARTCHAR 2206
ENCODING 8710
SWIDTH 583 0
DWIDTH 49 0
BBX 45 56 2 0
BITMAP
00001FC00000
00001FE00000
00003FE00000
00003FE00000
00003FF00000
00007FF00000
00007FF00000
0000FFF80000
0000FDF80000
0000FDF80000
0001F9FC0000
0001F8FC0000
0001F8FE0000
0003F0FE0000
0003F07E0000
0003F07F0000
0007E03F0000
0007E03F0000
000FE03F8000
000FC01F8000
000FC01F8000
001FC01FC000
001F800FC000
001F800FE000
003F000FE000
003F0007E000
003F0007F000
007E0003F000
007E0003F000
00FE0003F800
00FC0001F800
00FC0001F800
01F80001FC00
01F80000FC00
01F80000FC00
03F00000FE00
03F000007E00
03F000007F00
07E000003F00
07E000003F00
0FC000003F80
0FC000001F80
0FC000001F80
1F8000001FC0
1F8000000FC0
1F8000000FC0
3F0000000FE0
3F00000007E0
3F00000007E0
7E00000003F0
7E00000003F0
FFFFFFFFFFF8
FFFFFFFFFFF8
FFFFFFFFFFF8
FFFFFFFFFFF8
FFFFFFFFFFF8
ENDCHAR
STARTCHAR 220F
ENCODING 8719
SWIDTH 630 0
DWIDTH 53 0
BBX 49 61 2 -7
BITMAP
FFFFFFFFFFFF80
FFFFFFFFFFFF80
FFFFFFFFFFFF80
FFFFFFFFFFFF80
FFFFFFFFFFFF80
00FC00001F8000
00FC00001F8000
00FC00001F8000
00FC00001F8000
00FC00001F8000
00FC00001F8000
00FC00001F8000
00FC00001F8000
00FC00001F8000
00FC00001F8000
00FC00001F8000
00FC00001F8000
00FC00001F8000
00FC00001F8000
00FC00001F8000
00FC00001F8000
00FC00001F8000
00FC00001F8000
00FC00001F8000
00FC00001F8000
00FC00001F8000
00FC00001F8000
00FC00001F8000
00FC00001F8000
00FC00001F8000
00FC00001F8000
00FC00001F8000
00FC00001F8000
00FC00001F8000
00FC00001F8000
00FC00001F8000
00FC00001F8000
00FC00001F8000
00FC00001F8000
00FC00001F8000
00FC00001F8000
00FC00001F8000
00FC00001F8000
00FC00001F8000
00FC00001F8000
00FC00001F8000
00FC00001F8000
00FC00001F8000
00FC00001F8000
00FC00001F8000
00FC00001F8000
00FC00001F8000
00FC00001F8000
00FC00001F8000
00FC00001F8000
00FC00001F8000
00FC00001F8000
00FC00001F8000
00FC00001F8000
00FC00001F8000
00FC00001F8000
ENDCHAR
STARTCHAR 2211
ENCODING 8721
SWIDTH 500 0
DWIDTH 42 0
BBX 38 61 2 -7
BITMAP
7FFFFFFFF8
7FFFFFFFF8
7FFFFFFFF8
7FFFFFFFF8
7FFFFFFFF8
3F80000000
3FC0000000
1FE0000000
0FE0000000
07F0000000
07F8000000
03FC000000
01FC000000
01FE000000
00FF000000
007F800000
003F800000
003FC00000
001FE00000
000FE00000
0007F00000
0007F80000
0003FC0000
0001FC0000
0001FE0000
0000FF0000
00007F8000
00003F8000
00003FC000
00001FE000
00000FC000
00001FC000
00003F8000
00003F0000
00007E0000
0000FE0000
0001FC0000
0001F80000
0003F00000
0007F00000
000FE00000
000FC00000
001F800000
003F000000
007F000000
007E000000
00FC000000
01F8000000
03F8000000
03F0000000
07E0000000
0FC0000000
1FC0000000
1F80000000
3F00000000
7E00000000
FFFFFFFFFC
FFFFFFFFFC
FFFFFFFFFC
FFFFFFFFFC
FFFFFFFFFC
ENDCHAR
STARTCHAR 2212
ENCODING 8722
SWIDTH 500 0
DWIDTH 42 0
BBX 38 6 2 19
BITMAP
FFFFFFFFFC
FFFFFFFFFC
FFFFFFFFFC
FFFFFFFFFC
FFFFFFFFFC
FFFFFFFFF8
ENDCHAR
STARTCHAR 2215
ENCODING 8725
SWIDTH 226 0
DWIDTH 19 0
BBX 28 56 -4 -1
BITMAP
000001F0
000003F0
000003F0
000007E0
000007E0
000007E0
00000FC0
00000FC0
00001F80
00001F80
00003F00
00003F00
00003F00
00007E00
00007E00
0000FC00
0000FC00
0000F800
0001F800
0001F800
0003F000
0003F000
0007E000
0007E000
0007E000
000FC000
000FC000
001F8000
001F8000
001F0000
003F0000
003F0000
007E0000
007E0000
00FC0000
00FC0000
00FC0000
01F80000
01F80000
03F00000
03F00000
03E00000
07E00000
07E00000
0FC00000
0FC00000
1F800000
1F800000
1F000000
3F000000
3F000000
7E000000
7E000000
FC000000
FC000000
FC000000
ENDCHAR
STARTCHAR 2219
ENCODING 8729
SWIDTH 500 0
DWIDTH 42 0
BBX 10 10 16 17
BITMAP
7F80
7F80
FFC0
FFC0
FFC0
FFC0
FFC0
FFC0
7F80
1E00
ENDCHAR
STARTCHAR 221A
ENCODING 8730
SWIDTH 523 0
DWIDTH 44 0
BBX 41 77 3 -12
BITMAP
000000000F80
000000000F00
000000000F00
000000001F00
000000001F00
000000001E00
000000001E00
000000001E00
000000003E00
000000003E00
000000003C00
000000003C00
000000007C00
000000007C00
000000007800
000000007800
000000007800
00000000F800
00000000F800
00000000F000
00000000F000
00000001F000
00000001F000
00000001E000
00000001E000
00000003E000
00000003E000
00000003E000
00000003C000
00000003C000
00000007C000
00000007C000
00000007C000
000000078000
0000000F8000
0040000F8000
03E0000F8000
0FE0000F0000
7FE0000F0000
FFF0001F0000
FFF0001F0000
F1F0001F0000
41F8001E0000
01F8003E0000
00F8003E0000
00FC003E0000
00FC003C0000
007C003C0000
007E007C0000
007E007C0000
003E007C0000
003F00780000
003F00F80000
001F00F80000
001F80F80000
001F80F00000
000F80F00000
000FC1F00000
000FC1F00000
0007C1F00000
0007E1E00000
0007E3E00000
0003E3E00000
0003F3E00000
0003F3C00000
0001F3C00000
0001F3C00000
0001FFC00000
0000FFC00000
0000FF800000
0000FF800000
00007F800000
00007F800000
00007F000000
00003F000000
00003F000000
00003F000000
ENDCHAR
STARTCHAR 221E
ENCODING 8734
SWIDTH 702 0
DWIDTH 59 0
BBX 51 24 4 11
BITMAP
01FF00000FF800
07FFC0007FFE00
0FFFF000FFFF00
1F87F801FC3F80
3E00FC03F007C0
7C003E07C003C0
78001F0F8003E0
F8000F9F0001E0
F00007FE0001E0
F00003FC0001E0
F00003F80001E0
F00001F00001E0
F00001F80001E0
F00003FC0001E0
F00007FE0001E0
F0000FBF0001E0
78001F1F8003E0
78003E0FC007C0
3C007C07F00FC0
1F81F803FC1F80
1FFFF000FFFF00
07FFE0007FFE00
03FF80001FF800
007C000003C000
ENDCHAR
STARTCHAR 222B
ENCODING 8747
SWIDTH 333 0
DWIDTH 28 0
BBX 25 79 1 -12
BITMAP
00007F80
0001FF80
0003FF80
0007FF80
000FF100
000FC000
001F8000
001F8000
001F0000
003F0000
003F0000
003F0000
003F0000
003E0000
003E0000
003E0000
003E0000
003E0000
003E0000
003E0000
003E0000
003E0000
003E0000
003E0000
003E0000
003E0000
003E0000
003E0000
003E0000
003E0000
003E0000
003E0000
003E0000
003F0000
003F0000
003F0000
003F0000
003F0000
003F0000
003F0000
003F0000
003F0000
003F0000
003F0000
003F0000
003F0000
003F0000
003F0000
003F0000
003F0000
003F0000
003F0000
003F0000
001F0000
001F0000
001F0000
001F0000
001F0000
001F0000
001F0000
001F0000
001F0000
003F0000
003F0000
003F0000
003F0000
003F0000
003F0000
003E0000
007E0000
007E0000
00FC0000
00FC0000
63FC0000
7FF80000
7FF00000
FFE00000
FFC00000
0C000000
ENDCHAR
STARTCHAR 2248
ENCODING 8776
SWIDTH 511 0
DWIDTH 43 0
BBX 35 23 4 10
BITMAP
0060000000
07FE0000C0
0FFF8001E0
3FFFC003E0
7F1FF003C0
7C03FC0F80
F800FFFF80
F0003FFF00
E0001FFC00
400003F000
0000000000
0000000000
0000000000
0000000000
03FC0000C0
0FFF0001E0
1FFFC001E0
3F9FF003C0
7C03FC0FC0
F800FFFF80
F0007FFF00
E0001FFE00
400003F800
ENDCHAR
STARTCHAR 2260
ENCODING 8800
SWIDTH 511 0
DWIDTH 43 0
BBX 35 36 4 4
BITMAP
0000018000
000003C000
000003C000
0000078000
0000078000
0000070000
00000F0000
00000E0000
FFFFFFFFE0
FFFFFFFFE0
FFFFFFFFE0
FFFFFFFFE0
0000380000
0000780000
0000700000
0000F00000
0000F00000
0001E00000
0001E00000
0003C00000
0003C00000
0003800000
0007800000
FFFFFFFFE0
FFFFFFFFE0
FFFFFFFFE0
FFFFFFFFE0
001E000000
001C000000
003C000000
0038000000
0078000000
0078000000
00F0000000
00F0000000
0060000000
ENDCHAR
STARTCHAR 2264
ENCODING 8804
SWIDTH 511 0
DWIDTH 43 0
BBX 35 46 4 1
BITMAP
0000000040
00000001C0
00000007C0
0000001FC0
0000007FC0
000001FF00
000007FC00
00001FF000
00007FC000
0001FF0000
0007FC0000
001FF00000
007FC00000
01FF000000
07FC000000
1FF0000000
7F80000000
FE00000000
F800000000
F800000000
FE00000000
7FC0000000
1FF0000000
07FC000000
01FF000000
007FC00000
001FF00000
0007FC0000
0001FF0000
00007FC000
00001FF000
000007FC00
000001FF00
0000007FC0
0000001FC0
00000007C0
00000001C0
0000000040
0000000000
0000000000
0000000000
FFFFFFFFE0
FFFFFFFFE0
FFFFFFFFE0
FFFFFFFFE0
FFFFFFFFE0
ENDCHAR
STARTCHAR 2265
ENCODING 8805
SWIDTH 511 0
DWIDTH 43 0
BBX 35 46 4 1
BITMAP
C000000000
F000000000
FC00000000
FF00000000
7FC0000000
1FF0000000
07FC000000
01FF000000
007FC00000
001FF00000
0007FC0000
0001FF0000
00007FC000
00001FF000
000007FC00
000001FF00
0000007FC0
0000001FE0
00000007E0
00000003E0
0000001FE0
0000007FC0
000001FF00
000007FC00
00001FF000
00007FC000
0001FF0000
0007FC0000
001FF00000
007FC00000
01FF000000
07FC000000
1FF0000000
7FC0000000
FF00000000
FC00000000
F000000000
C000000000
0000000000
0000000000
0000000000
FFFFFFFFE0
FFFFFFFFE0
FFFFFFFFE0
FFFFFFFFE0
FFFFFFFFE0
ENDCHAR
STARTCHAR 25CA
ENCODING 9674
SWIDTH 523 0
DWIDTH 44 0
BBX 35 61 4 -4
BITMAP
0001F80000
0001F80000
0003FC0000
0003FC0000
0007FE0000
0007FE0000
000FBF0000
000FBF0000
001F9F8000
001F1F8000
003F0F8000
003E0FC000
007E07C000
007C07E000
00FC03E000
00F803F000
01F801F000
01F001F800
03F000F800
03E000FC00
07E0007C00
07C0007E00
0FC0003E00
0F80003F00
1F80001F00
1F00001F80
3F00000F80
3E00000FC0
7E000007C0
7C000007E0
FC000003E0
FC000003E0
7E000007E0
7E000007C0
3F00000FC0
3F00000F80
1F80001F80
1F80001F00
0FC0003F00
0FC0003E00
07C0007E00
07E0007C00
03E000FC00
03F000F800
01F001F800
01F801F000
00F803F000
00FC03E000
007C07E000
007E07C000
003E0FC000
003F0F8000
001F1F8000
001F9F0000
000FBF0000
000FBE0000
0007FE0000
0007FC0000
0003FC0000
0003F80000
0001F80000
ENDCHAR
STARTCHAR FB01
ENCODING 64257
SWIDTH 535 0
DWIDTH 45 0
BBX 37 61 2 0
BITMAP
0003F00000
001FFE07E0
003FFF1FF0
007FFF1FF0
00FFFE1FF8
00FFFE1FF8
01FE041FF8
01FC001FF8
01F8001FF0
01F8000FF0
03F80007C0
03F8000000
03F8000000
03F8000000
03F8000000
03F8000000
03F8000000
03F8000000
03F8000000
03F8000000
03F8000000
FFFFFFFFE0
FFFFFFFFE0
FFFFFFFFE0
FFFFFFFFE0
FFFFFFFFE0
03F80007E0
03F80007E0
03F80007E0
03F80007E0
03F80007E0
03F80007E0
03F80007E0
03F80007E0
03F80007E0
03F80007E0
03F80007E0
03F80007E0
03F80007E0
03F80007E0
03F80007E0
03F80007E0
03F80007E0
03F80007E0
03F80007E0
03F80007E0
03F80007E0
03F80007E0
03F80007E0
03F80007E0
03F80007E0
03F80007E0
03F80007E0
03F80007E0
03F80007E0
03F80007E0
03F80007E0
03F80007E0
03F80007E0
03F80007E0
03F80007E0
ENDCHAR
STARTCHAR FB02
ENCODING 64258
SWIDTH 559 0
DWIDTH 47 0
BBX 45 62 2 -2
BITMAP
0001FC006000
000FFF83F000
003FFFE7F000
007FFFE7F000
007FFFE7F000
00FFFFE7F000
00FE03C7F000
01FC0007F000
01FC0007F000
01F80007F000
01F80007F000
01F80007F000
01F80007F000
01F80007F000
01F80007F000
01F80007F000
01F80007F000
01F80007F000
01F80007F000
01F80007F000
01F80007F000
FFFFFFC7F000
FFFFFFC7F000
FFFFFF87F000
FFFFFF87F000
FFFFFF87F000
01F80007F000
01F80007F000
01F80007F000
01F80007F000
01F80007F000
01F80007F000
01F80007F000
01F80007F000
01F80007F000
01F80007F000
01F80007F000
01F80007F000
01F80007F000
01F80007F000
01F80007F000
01F80007F000
01F80007F000
01F80007F000
01F80007F000
01F80007F000
01F80007F000
01F80007F000
01F80007F000
01F80007F000
01F80007F000
01F80007F000
01F80007F000
01F80007F000
01F80003F000
01F80003F000
01F80003F830
01F80003FFF8
01F80001FFF8
01F80001FFF8
01F80000FFF8
000000003FE0
ENDCHAR
ENDFONT
